G04 #@! TF.FileFunction,Copper,L3,Inr,Plane*
%FSLAX46Y46*%
G04 Gerber Fmt 4.6, Leading zero omitted, Abs format (unit mm)*
G04 Created by KiCad (PCBNEW (2015-06-14 BZR 5747, Git dc9ebf3)-product) date 24/06/2015 09:37:51*
%MOMM*%
G01*
G04 APERTURE LIST*
%ADD10C,0.100000*%
%ADD11C,0.150000*%
%ADD12C,0.300000*%
%ADD13C,0.400000*%
%ADD14R,2.999740X2.999740*%
%ADD15C,2.999740*%
%ADD16C,2.400000*%
%ADD17C,2.600000*%
%ADD18C,5.600700*%
%ADD19C,0.600000*%
%ADD20C,0.254000*%
G04 APERTURE END LIST*
D10*
D11*
X53812200Y-30117200D02*
X53812200Y-62117200D01*
X161812200Y-62117200D01*
X161812200Y-30117200D01*
X53812200Y-30117200D01*
D10*
D11*
X-113190000Y125890000D02*
X-113190000Y-64117200D01*
X163812200Y-64117200D01*
X163812200Y125890000D01*
X-113190000Y125890000D01*
D10*
D11*
X-111190000Y123890000D02*
X-111190000Y-62117200D01*
X161812200Y-62117200D01*
X161812200Y123890000D01*
X-111190000Y123890000D01*
D10*
D11*
X-63190000Y123890000D02*
X-63190000Y125890000D01*
D10*
D11*
X-13190000Y123890000D02*
X-13190000Y125890000D01*
D10*
D11*
X36810000Y123890000D02*
X36810000Y125890000D01*
D10*
D11*
X86810000Y123890000D02*
X86810000Y125890000D01*
D10*
D11*
X136810000Y123890000D02*
X136810000Y125890000D01*
D10*
D11*
X-87199524Y124301905D02*
X-87942381Y124301905D01*
X-87570952Y124301905D02*
X-87570952Y125601905D01*
X-87694762Y125416190D01*
X-87818571Y125292381D01*
X-87942381Y125230476D01*
D10*
D11*
X-37942381Y125478095D02*
X-37880476Y125540000D01*
X-37756667Y125601905D01*
X-37447143Y125601905D01*
X-37323333Y125540000D01*
X-37261429Y125478095D01*
X-37199524Y125354286D01*
X-37199524Y125230476D01*
X-37261429Y125044762D01*
X-38004286Y124301905D01*
X-37199524Y124301905D01*
D10*
D11*
X11995714Y125601905D02*
X12800476Y125601905D01*
X12367143Y125106667D01*
X12552857Y125106667D01*
X12676667Y125044762D01*
X12738571Y124982857D01*
X12800476Y124859048D01*
X12800476Y124549524D01*
X12738571Y124425714D01*
X12676667Y124363810D01*
X12552857Y124301905D01*
X12181429Y124301905D01*
X12057619Y124363810D01*
X11995714Y124425714D01*
D10*
D11*
X62676667Y125168571D02*
X62676667Y124301905D01*
X62367143Y125663810D02*
X62057619Y124735238D01*
X62862381Y124735238D01*
D10*
D11*
X112738571Y125601905D02*
X112119524Y125601905D01*
X112057619Y124982857D01*
X112119524Y125044762D01*
X112243333Y125106667D01*
X112552857Y125106667D01*
X112676667Y125044762D01*
X112738571Y124982857D01*
X112800476Y124859048D01*
X112800476Y124549524D01*
X112738571Y124425714D01*
X112676667Y124363810D01*
X112552857Y124301905D01*
X112243333Y124301905D01*
X112119524Y124363810D01*
X112057619Y124425714D01*
D10*
D11*
X162676667Y125601905D02*
X162429048Y125601905D01*
X162305238Y125540000D01*
X162243333Y125478095D01*
X162119524Y125292381D01*
X162057619Y125044762D01*
X162057619Y124549524D01*
X162119524Y124425714D01*
X162181429Y124363810D01*
X162305238Y124301905D01*
X162552857Y124301905D01*
X162676667Y124363810D01*
X162738571Y124425714D01*
X162800476Y124549524D01*
X162800476Y124859048D01*
X162738571Y124982857D01*
X162676667Y125044762D01*
X162552857Y125106667D01*
X162305238Y125106667D01*
X162181429Y125044762D01*
X162119524Y124982857D01*
X162057619Y124859048D01*
D10*
D11*
X-63190000Y-62117200D02*
X-63190000Y-64117200D01*
D10*
D11*
X-13190000Y-62117200D02*
X-13190000Y-64117200D01*
D10*
D11*
X36810000Y-62117200D02*
X36810000Y-64117200D01*
D10*
D11*
X86810000Y-62117200D02*
X86810000Y-64117200D01*
D10*
D11*
X136810000Y-62117200D02*
X136810000Y-64117200D01*
D10*
D11*
X-87199524Y-63705295D02*
X-87942381Y-63705295D01*
X-87570952Y-63705295D02*
X-87570952Y-62405295D01*
X-87694762Y-62591010D01*
X-87818571Y-62714819D01*
X-87942381Y-62776724D01*
D10*
D11*
X-37942381Y-62529105D02*
X-37880476Y-62467200D01*
X-37756667Y-62405295D01*
X-37447143Y-62405295D01*
X-37323333Y-62467200D01*
X-37261429Y-62529105D01*
X-37199524Y-62652914D01*
X-37199524Y-62776724D01*
X-37261429Y-62962438D01*
X-38004286Y-63705295D01*
X-37199524Y-63705295D01*
D10*
D11*
X11995714Y-62405295D02*
X12800476Y-62405295D01*
X12367143Y-62900533D01*
X12552857Y-62900533D01*
X12676667Y-62962438D01*
X12738571Y-63024343D01*
X12800476Y-63148152D01*
X12800476Y-63457676D01*
X12738571Y-63581486D01*
X12676667Y-63643390D01*
X12552857Y-63705295D01*
X12181429Y-63705295D01*
X12057619Y-63643390D01*
X11995714Y-63581486D01*
D10*
D11*
X62676667Y-62838629D02*
X62676667Y-63705295D01*
X62367143Y-62343390D02*
X62057619Y-63271962D01*
X62862381Y-63271962D01*
D10*
D11*
X112738571Y-62405295D02*
X112119524Y-62405295D01*
X112057619Y-63024343D01*
X112119524Y-62962438D01*
X112243333Y-62900533D01*
X112552857Y-62900533D01*
X112676667Y-62962438D01*
X112738571Y-63024343D01*
X112800476Y-63148152D01*
X112800476Y-63457676D01*
X112738571Y-63581486D01*
X112676667Y-63643390D01*
X112552857Y-63705295D01*
X112243333Y-63705295D01*
X112119524Y-63643390D01*
X112057619Y-63581486D01*
D10*
D11*
X162676667Y-62405295D02*
X162429048Y-62405295D01*
X162305238Y-62467200D01*
X162243333Y-62529105D01*
X162119524Y-62714819D01*
X162057619Y-62962438D01*
X162057619Y-63457676D01*
X162119524Y-63581486D01*
X162181429Y-63643390D01*
X162305238Y-63705295D01*
X162552857Y-63705295D01*
X162676667Y-63643390D01*
X162738571Y-63581486D01*
X162800476Y-63457676D01*
X162800476Y-63148152D01*
X162738571Y-63024343D01*
X162676667Y-62962438D01*
X162552857Y-62900533D01*
X162305238Y-62900533D01*
X162181429Y-62962438D01*
X162119524Y-63024343D01*
X162057619Y-63148152D01*
D10*
D11*
X-113190000Y75890000D02*
X-111190000Y75890000D01*
D10*
D11*
X-113190000Y25890000D02*
X-111190000Y25890000D01*
D10*
D11*
X-113190000Y-24110000D02*
X-111190000Y-24110000D01*
D10*
D11*
X-112499524Y100673333D02*
X-111880476Y100673333D01*
X-112623333Y100301905D02*
X-112190000Y101601905D01*
X-111756667Y100301905D01*
D10*
D11*
X-112097143Y50982857D02*
X-111911429Y50920952D01*
X-111849524Y50859048D01*
X-111787619Y50735238D01*
X-111787619Y50549524D01*
X-111849524Y50425714D01*
X-111911429Y50363810D01*
X-112035238Y50301905D01*
X-112530476Y50301905D01*
X-112530476Y51601905D01*
X-112097143Y51601905D01*
X-111973333Y51540000D01*
X-111911429Y51478095D01*
X-111849524Y51354286D01*
X-111849524Y51230476D01*
X-111911429Y51106667D01*
X-111973333Y51044762D01*
X-112097143Y50982857D01*
X-112530476Y50982857D01*
D10*
D11*
X-111787619Y425714D02*
X-111849524Y363810D01*
X-112035238Y301905D01*
X-112159048Y301905D01*
X-112344762Y363810D01*
X-112468571Y487619D01*
X-112530476Y611429D01*
X-112592381Y859048D01*
X-112592381Y1044762D01*
X-112530476Y1292381D01*
X-112468571Y1416190D01*
X-112344762Y1540000D01*
X-112159048Y1601905D01*
X-112035238Y1601905D01*
X-111849524Y1540000D01*
X-111787619Y1478095D01*
D10*
D11*
X-112530476Y-49698095D02*
X-112530476Y-48398095D01*
X-112220952Y-48398095D01*
X-112035238Y-48460000D01*
X-111911429Y-48583810D01*
X-111849524Y-48707619D01*
X-111787619Y-48955238D01*
X-111787619Y-49140952D01*
X-111849524Y-49388571D01*
X-111911429Y-49512381D01*
X-112035238Y-49636190D01*
X-112220952Y-49698095D01*
X-112530476Y-49698095D01*
D10*
D11*
X163812200Y75890000D02*
X161812200Y75890000D01*
D10*
D11*
X163812200Y25890000D02*
X161812200Y25890000D01*
D10*
D11*
X163812200Y-24110000D02*
X161812200Y-24110000D01*
D10*
D11*
X162502676Y100673333D02*
X163121724Y100673333D01*
X162378867Y100301905D02*
X162812200Y101601905D01*
X163245533Y100301905D01*
D10*
D11*
X162905057Y50982857D02*
X163090771Y50920952D01*
X163152676Y50859048D01*
X163214581Y50735238D01*
X163214581Y50549524D01*
X163152676Y50425714D01*
X163090771Y50363810D01*
X162966962Y50301905D01*
X162471724Y50301905D01*
X162471724Y51601905D01*
X162905057Y51601905D01*
X163028867Y51540000D01*
X163090771Y51478095D01*
X163152676Y51354286D01*
X163152676Y51230476D01*
X163090771Y51106667D01*
X163028867Y51044762D01*
X162905057Y50982857D01*
X162471724Y50982857D01*
D10*
D11*
X163214581Y425714D02*
X163152676Y363810D01*
X162966962Y301905D01*
X162843152Y301905D01*
X162657438Y363810D01*
X162533629Y487619D01*
X162471724Y611429D01*
X162409819Y859048D01*
X162409819Y1044762D01*
X162471724Y1292381D01*
X162533629Y1416190D01*
X162657438Y1540000D01*
X162843152Y1601905D01*
X162966962Y1601905D01*
X163152676Y1540000D01*
X163214581Y1478095D01*
D10*
D11*
X162471724Y-49698095D02*
X162471724Y-48398095D01*
X162781248Y-48398095D01*
X162966962Y-48460000D01*
X163090771Y-48583810D01*
X163152676Y-48707619D01*
X163214581Y-48955238D01*
X163214581Y-49140952D01*
X163152676Y-49388571D01*
X163090771Y-49512381D01*
X162966962Y-49636190D01*
X162781248Y-49698095D01*
X162471724Y-49698095D01*
D10*
D11*
X77169343Y-57895771D02*
X77169343Y-56395771D01*
X77526486Y-56395771D01*
X77740771Y-56467200D01*
X77883629Y-56610057D01*
X77955057Y-56752914D01*
X78026486Y-57038629D01*
X78026486Y-57252914D01*
X77955057Y-57538629D01*
X77883629Y-57681486D01*
X77740771Y-57824343D01*
X77526486Y-57895771D01*
X77169343Y-57895771D01*
X79312200Y-57895771D02*
X79312200Y-57110057D01*
X79240771Y-56967200D01*
X79097914Y-56895771D01*
X78812200Y-56895771D01*
X78669343Y-56967200D01*
X79312200Y-57824343D02*
X79169343Y-57895771D01*
X78812200Y-57895771D01*
X78669343Y-57824343D01*
X78597914Y-57681486D01*
X78597914Y-57538629D01*
X78669343Y-57395771D01*
X78812200Y-57324343D01*
X79169343Y-57324343D01*
X79312200Y-57252914D01*
X79812200Y-56895771D02*
X80383629Y-56895771D01*
X80026486Y-56395771D02*
X80026486Y-57681486D01*
X80097914Y-57824343D01*
X80240772Y-57895771D01*
X80383629Y-57895771D01*
X81455057Y-57824343D02*
X81312200Y-57895771D01*
X81026486Y-57895771D01*
X80883629Y-57824343D01*
X80812200Y-57681486D01*
X80812200Y-57110057D01*
X80883629Y-56967200D01*
X81026486Y-56895771D01*
X81312200Y-56895771D01*
X81455057Y-56967200D01*
X81526486Y-57110057D01*
X81526486Y-57252914D01*
X80812200Y-57395771D01*
X82169343Y-57752914D02*
X82240771Y-57824343D01*
X82169343Y-57895771D01*
X82097914Y-57824343D01*
X82169343Y-57752914D01*
X82169343Y-57895771D01*
X82169343Y-56967200D02*
X82240771Y-57038629D01*
X82169343Y-57110057D01*
X82097914Y-57038629D01*
X82169343Y-56967200D01*
X82169343Y-57110057D01*
X83955057Y-56538629D02*
X84026486Y-56467200D01*
X84169343Y-56395771D01*
X84526486Y-56395771D01*
X84669343Y-56467200D01*
X84740772Y-56538629D01*
X84812200Y-56681486D01*
X84812200Y-56824343D01*
X84740772Y-57038629D01*
X83883629Y-57895771D01*
X84812200Y-57895771D01*
X85740771Y-56395771D02*
X85883628Y-56395771D01*
X86026485Y-56467200D01*
X86097914Y-56538629D01*
X86169343Y-56681486D01*
X86240771Y-56967200D01*
X86240771Y-57324343D01*
X86169343Y-57610057D01*
X86097914Y-57752914D01*
X86026485Y-57824343D01*
X85883628Y-57895771D01*
X85740771Y-57895771D01*
X85597914Y-57824343D01*
X85526485Y-57752914D01*
X85455057Y-57610057D01*
X85383628Y-57324343D01*
X85383628Y-56967200D01*
X85455057Y-56681486D01*
X85526485Y-56538629D01*
X85597914Y-56467200D01*
X85740771Y-56395771D01*
X87669342Y-57895771D02*
X86812199Y-57895771D01*
X87240771Y-57895771D02*
X87240771Y-56395771D01*
X87097914Y-56610057D01*
X86955056Y-56752914D01*
X86812199Y-56824343D01*
X89026485Y-56395771D02*
X88312199Y-56395771D01*
X88240770Y-57110057D01*
X88312199Y-57038629D01*
X88455056Y-56967200D01*
X88812199Y-56967200D01*
X88955056Y-57038629D01*
X89026485Y-57110057D01*
X89097913Y-57252914D01*
X89097913Y-57610057D01*
X89026485Y-57752914D01*
X88955056Y-57824343D01*
X88812199Y-57895771D01*
X88455056Y-57895771D01*
X88312199Y-57824343D01*
X88240770Y-57752914D01*
X89740770Y-57324343D02*
X90883627Y-57324343D01*
X91883627Y-56395771D02*
X92026484Y-56395771D01*
X92169341Y-56467200D01*
X92240770Y-56538629D01*
X92312199Y-56681486D01*
X92383627Y-56967200D01*
X92383627Y-57324343D01*
X92312199Y-57610057D01*
X92240770Y-57752914D01*
X92169341Y-57824343D01*
X92026484Y-57895771D01*
X91883627Y-57895771D01*
X91740770Y-57824343D01*
X91669341Y-57752914D01*
X91597913Y-57610057D01*
X91526484Y-57324343D01*
X91526484Y-56967200D01*
X91597913Y-56681486D01*
X91669341Y-56538629D01*
X91740770Y-56467200D01*
X91883627Y-56395771D01*
X93669341Y-56395771D02*
X93383627Y-56395771D01*
X93240770Y-56467200D01*
X93169341Y-56538629D01*
X93026484Y-56752914D01*
X92955055Y-57038629D01*
X92955055Y-57610057D01*
X93026484Y-57752914D01*
X93097912Y-57824343D01*
X93240770Y-57895771D01*
X93526484Y-57895771D01*
X93669341Y-57824343D01*
X93740770Y-57752914D01*
X93812198Y-57610057D01*
X93812198Y-57252914D01*
X93740770Y-57110057D01*
X93669341Y-57038629D01*
X93526484Y-56967200D01*
X93240770Y-56967200D01*
X93097912Y-57038629D01*
X93026484Y-57110057D01*
X92955055Y-57252914D01*
X94455055Y-57324343D02*
X95597912Y-57324343D01*
X96240769Y-56538629D02*
X96312198Y-56467200D01*
X96455055Y-56395771D01*
X96812198Y-56395771D01*
X96955055Y-56467200D01*
X97026484Y-56538629D01*
X97097912Y-56681486D01*
X97097912Y-56824343D01*
X97026484Y-57038629D01*
X96169341Y-57895771D01*
X97097912Y-57895771D01*
X97669340Y-56538629D02*
X97740769Y-56467200D01*
X97883626Y-56395771D01*
X98240769Y-56395771D01*
X98383626Y-56467200D01*
X98455055Y-56538629D01*
X98526483Y-56681486D01*
X98526483Y-56824343D01*
X98455055Y-57038629D01*
X97597912Y-57895771D01*
X98526483Y-57895771D01*
D10*
D11*
X53812200Y-58617200D02*
X161812200Y-58617200D01*
D10*
D11*
X55169343Y-60695771D02*
X55169343Y-59195771D01*
X56026486Y-60695771D02*
X55383629Y-59838629D01*
X56026486Y-59195771D02*
X55169343Y-60052914D01*
X56669343Y-60695771D02*
X56669343Y-59695771D01*
X56669343Y-59195771D02*
X56597914Y-59267200D01*
X56669343Y-59338629D01*
X56740771Y-59267200D01*
X56669343Y-59195771D01*
X56669343Y-59338629D01*
X58240772Y-60552914D02*
X58169343Y-60624343D01*
X57955057Y-60695771D01*
X57812200Y-60695771D01*
X57597915Y-60624343D01*
X57455057Y-60481486D01*
X57383629Y-60338629D01*
X57312200Y-60052914D01*
X57312200Y-59838629D01*
X57383629Y-59552914D01*
X57455057Y-59410057D01*
X57597915Y-59267200D01*
X57812200Y-59195771D01*
X57955057Y-59195771D01*
X58169343Y-59267200D01*
X58240772Y-59338629D01*
X59526486Y-60695771D02*
X59526486Y-59910057D01*
X59455057Y-59767200D01*
X59312200Y-59695771D01*
X59026486Y-59695771D01*
X58883629Y-59767200D01*
X59526486Y-60624343D02*
X59383629Y-60695771D01*
X59026486Y-60695771D01*
X58883629Y-60624343D01*
X58812200Y-60481486D01*
X58812200Y-60338629D01*
X58883629Y-60195771D01*
X59026486Y-60124343D01*
X59383629Y-60124343D01*
X59526486Y-60052914D01*
X60883629Y-60695771D02*
X60883629Y-59195771D01*
X60883629Y-60624343D02*
X60740772Y-60695771D01*
X60455058Y-60695771D01*
X60312200Y-60624343D01*
X60240772Y-60552914D01*
X60169343Y-60410057D01*
X60169343Y-59981486D01*
X60240772Y-59838629D01*
X60312200Y-59767200D01*
X60455058Y-59695771D01*
X60740772Y-59695771D01*
X60883629Y-59767200D01*
X62740772Y-59910057D02*
X63240772Y-59910057D01*
X63455058Y-60695771D02*
X62740772Y-60695771D01*
X62740772Y-59195771D01*
X63455058Y-59195771D01*
X64097915Y-60552914D02*
X64169343Y-60624343D01*
X64097915Y-60695771D01*
X64026486Y-60624343D01*
X64097915Y-60552914D01*
X64097915Y-60695771D01*
X64812201Y-60695771D02*
X64812201Y-59195771D01*
X65169344Y-59195771D01*
X65383629Y-59267200D01*
X65526487Y-59410057D01*
X65597915Y-59552914D01*
X65669344Y-59838629D01*
X65669344Y-60052914D01*
X65597915Y-60338629D01*
X65526487Y-60481486D01*
X65383629Y-60624343D01*
X65169344Y-60695771D01*
X64812201Y-60695771D01*
X66312201Y-60552914D02*
X66383629Y-60624343D01*
X66312201Y-60695771D01*
X66240772Y-60624343D01*
X66312201Y-60552914D01*
X66312201Y-60695771D01*
X66955058Y-60267200D02*
X67669344Y-60267200D01*
X66812201Y-60695771D02*
X67312201Y-59195771D01*
X67812201Y-60695771D01*
X68312201Y-60552914D02*
X68383629Y-60624343D01*
X68312201Y-60695771D01*
X68240772Y-60624343D01*
X68312201Y-60552914D01*
X68312201Y-60695771D01*
X71312201Y-59695771D02*
X71312201Y-61195771D01*
X71312201Y-59767200D02*
X71455058Y-59695771D01*
X71740772Y-59695771D01*
X71883629Y-59767200D01*
X71955058Y-59838629D01*
X72026487Y-59981486D01*
X72026487Y-60410057D01*
X71955058Y-60552914D01*
X71883629Y-60624343D01*
X71740772Y-60695771D01*
X71455058Y-60695771D01*
X71312201Y-60624343D01*
X73312201Y-60624343D02*
X73169344Y-60695771D01*
X72883630Y-60695771D01*
X72740772Y-60624343D01*
X72669344Y-60552914D01*
X72597915Y-60410057D01*
X72597915Y-59981486D01*
X72669344Y-59838629D01*
X72740772Y-59767200D01*
X72883630Y-59695771D01*
X73169344Y-59695771D01*
X73312201Y-59767200D01*
X73955058Y-60695771D02*
X73955058Y-59195771D01*
X73955058Y-59767200D02*
X74097915Y-59695771D01*
X74383629Y-59695771D01*
X74526486Y-59767200D01*
X74597915Y-59838629D01*
X74669344Y-59981486D01*
X74669344Y-60410057D01*
X74597915Y-60552914D01*
X74526486Y-60624343D01*
X74383629Y-60695771D01*
X74097915Y-60695771D01*
X73955058Y-60624343D01*
X75312201Y-59695771D02*
X75312201Y-60695771D01*
X75312201Y-59838629D02*
X75383629Y-59767200D01*
X75526487Y-59695771D01*
X75740772Y-59695771D01*
X75883629Y-59767200D01*
X75955058Y-59910057D01*
X75955058Y-60695771D01*
X77240772Y-60624343D02*
X77097915Y-60695771D01*
X76812201Y-60695771D01*
X76669344Y-60624343D01*
X76597915Y-60481486D01*
X76597915Y-59910057D01*
X76669344Y-59767200D01*
X76812201Y-59695771D01*
X77097915Y-59695771D01*
X77240772Y-59767200D01*
X77312201Y-59910057D01*
X77312201Y-60052914D01*
X76597915Y-60195771D01*
X77812201Y-59695771D02*
X78097915Y-60695771D01*
X78383629Y-59981486D01*
X78669344Y-60695771D01*
X78955058Y-59695771D01*
X81097915Y-61267200D02*
X81026487Y-61195771D01*
X80883630Y-60981486D01*
X80812201Y-60838629D01*
X80740772Y-60624343D01*
X80669344Y-60267200D01*
X80669344Y-59981486D01*
X80740772Y-59624343D01*
X80812201Y-59410057D01*
X80883630Y-59267200D01*
X81026487Y-59052914D01*
X81097915Y-58981486D01*
X81597915Y-59338629D02*
X81669344Y-59267200D01*
X81812201Y-59195771D01*
X82169344Y-59195771D01*
X82312201Y-59267200D01*
X82383630Y-59338629D01*
X82455058Y-59481486D01*
X82455058Y-59624343D01*
X82383630Y-59838629D01*
X81526487Y-60695771D01*
X82455058Y-60695771D01*
X83383629Y-59195771D02*
X83526486Y-59195771D01*
X83669343Y-59267200D01*
X83740772Y-59338629D01*
X83812201Y-59481486D01*
X83883629Y-59767200D01*
X83883629Y-60124343D01*
X83812201Y-60410057D01*
X83740772Y-60552914D01*
X83669343Y-60624343D01*
X83526486Y-60695771D01*
X83383629Y-60695771D01*
X83240772Y-60624343D01*
X83169343Y-60552914D01*
X83097915Y-60410057D01*
X83026486Y-60124343D01*
X83026486Y-59767200D01*
X83097915Y-59481486D01*
X83169343Y-59338629D01*
X83240772Y-59267200D01*
X83383629Y-59195771D01*
X85312200Y-60695771D02*
X84455057Y-60695771D01*
X84883629Y-60695771D02*
X84883629Y-59195771D01*
X84740772Y-59410057D01*
X84597914Y-59552914D01*
X84455057Y-59624343D01*
X86669343Y-59195771D02*
X85955057Y-59195771D01*
X85883628Y-59910057D01*
X85955057Y-59838629D01*
X86097914Y-59767200D01*
X86455057Y-59767200D01*
X86597914Y-59838629D01*
X86669343Y-59910057D01*
X86740771Y-60052914D01*
X86740771Y-60410057D01*
X86669343Y-60552914D01*
X86597914Y-60624343D01*
X86455057Y-60695771D01*
X86097914Y-60695771D01*
X85955057Y-60624343D01*
X85883628Y-60552914D01*
X87383628Y-60124343D02*
X88526485Y-60124343D01*
X89526485Y-59195771D02*
X89669342Y-59195771D01*
X89812199Y-59267200D01*
X89883628Y-59338629D01*
X89955057Y-59481486D01*
X90026485Y-59767200D01*
X90026485Y-60124343D01*
X89955057Y-60410057D01*
X89883628Y-60552914D01*
X89812199Y-60624343D01*
X89669342Y-60695771D01*
X89526485Y-60695771D01*
X89383628Y-60624343D01*
X89312199Y-60552914D01*
X89240771Y-60410057D01*
X89169342Y-60124343D01*
X89169342Y-59767200D01*
X89240771Y-59481486D01*
X89312199Y-59338629D01*
X89383628Y-59267200D01*
X89526485Y-59195771D01*
X91312199Y-59195771D02*
X91026485Y-59195771D01*
X90883628Y-59267200D01*
X90812199Y-59338629D01*
X90669342Y-59552914D01*
X90597913Y-59838629D01*
X90597913Y-60410057D01*
X90669342Y-60552914D01*
X90740770Y-60624343D01*
X90883628Y-60695771D01*
X91169342Y-60695771D01*
X91312199Y-60624343D01*
X91383628Y-60552914D01*
X91455056Y-60410057D01*
X91455056Y-60052914D01*
X91383628Y-59910057D01*
X91312199Y-59838629D01*
X91169342Y-59767200D01*
X90883628Y-59767200D01*
X90740770Y-59838629D01*
X90669342Y-59910057D01*
X90597913Y-60052914D01*
X92097913Y-60124343D02*
X93240770Y-60124343D01*
X94740770Y-60695771D02*
X93883627Y-60695771D01*
X94312199Y-60695771D02*
X94312199Y-59195771D01*
X94169342Y-59410057D01*
X94026484Y-59552914D01*
X93883627Y-59624343D01*
X96026484Y-59695771D02*
X96026484Y-60695771D01*
X95669341Y-59124343D02*
X95312198Y-60195771D01*
X96240770Y-60195771D01*
X98455055Y-59910057D02*
X98669341Y-59981486D01*
X98740769Y-60052914D01*
X98812198Y-60195771D01*
X98812198Y-60410057D01*
X98740769Y-60552914D01*
X98669341Y-60624343D01*
X98526483Y-60695771D01*
X97955055Y-60695771D01*
X97955055Y-59195771D01*
X98455055Y-59195771D01*
X98597912Y-59267200D01*
X98669341Y-59338629D01*
X98740769Y-59481486D01*
X98740769Y-59624343D01*
X98669341Y-59767200D01*
X98597912Y-59838629D01*
X98455055Y-59910057D01*
X97955055Y-59910057D01*
X99312198Y-59195771D02*
X100312198Y-59195771D01*
X99312198Y-60695771D01*
X100312198Y-60695771D01*
X101740769Y-60695771D02*
X101240769Y-59981486D01*
X100883626Y-60695771D02*
X100883626Y-59195771D01*
X101455054Y-59195771D01*
X101597912Y-59267200D01*
X101669340Y-59338629D01*
X101740769Y-59481486D01*
X101740769Y-59695771D01*
X101669340Y-59838629D01*
X101597912Y-59910057D01*
X101455054Y-59981486D01*
X100883626Y-59981486D01*
X104240769Y-59195771D02*
X103526483Y-59195771D01*
X103455054Y-59910057D01*
X103526483Y-59838629D01*
X103669340Y-59767200D01*
X104026483Y-59767200D01*
X104169340Y-59838629D01*
X104240769Y-59910057D01*
X104312197Y-60052914D01*
X104312197Y-60410057D01*
X104240769Y-60552914D01*
X104169340Y-60624343D01*
X104026483Y-60695771D01*
X103669340Y-60695771D01*
X103526483Y-60624343D01*
X103455054Y-60552914D01*
X104812197Y-59195771D02*
X105812197Y-59195771D01*
X105169340Y-60695771D01*
X107026482Y-59695771D02*
X107026482Y-60695771D01*
X106669339Y-59124343D02*
X106312196Y-60195771D01*
X107240768Y-60195771D01*
X107669339Y-59195771D02*
X108669339Y-59195771D01*
X108026482Y-60695771D01*
X109312195Y-60624343D02*
X109312195Y-60695771D01*
X109240767Y-60838629D01*
X109169338Y-60910057D01*
X111883624Y-59267200D02*
X111740767Y-59195771D01*
X111526481Y-59195771D01*
X111312196Y-59267200D01*
X111169338Y-59410057D01*
X111097910Y-59552914D01*
X111026481Y-59838629D01*
X111026481Y-60052914D01*
X111097910Y-60338629D01*
X111169338Y-60481486D01*
X111312196Y-60624343D01*
X111526481Y-60695771D01*
X111669338Y-60695771D01*
X111883624Y-60624343D01*
X111955053Y-60552914D01*
X111955053Y-60052914D01*
X111669338Y-60052914D01*
X112597910Y-60695771D02*
X112597910Y-59695771D01*
X112597910Y-59195771D02*
X112526481Y-59267200D01*
X112597910Y-59338629D01*
X112669338Y-59267200D01*
X112597910Y-59195771D01*
X112597910Y-59338629D01*
X113097910Y-59695771D02*
X113669339Y-59695771D01*
X113312196Y-59195771D02*
X113312196Y-60481486D01*
X113383624Y-60624343D01*
X113526482Y-60695771D01*
X113669339Y-60695771D01*
X115955053Y-60695771D02*
X115955053Y-59195771D01*
X115955053Y-60624343D02*
X115812196Y-60695771D01*
X115526482Y-60695771D01*
X115383624Y-60624343D01*
X115312196Y-60552914D01*
X115240767Y-60410057D01*
X115240767Y-59981486D01*
X115312196Y-59838629D01*
X115383624Y-59767200D01*
X115526482Y-59695771D01*
X115812196Y-59695771D01*
X115955053Y-59767200D01*
X117312196Y-60624343D02*
X117169339Y-60695771D01*
X116883625Y-60695771D01*
X116740767Y-60624343D01*
X116669339Y-60552914D01*
X116597910Y-60410057D01*
X116597910Y-59981486D01*
X116669339Y-59838629D01*
X116740767Y-59767200D01*
X116883625Y-59695771D01*
X117169339Y-59695771D01*
X117312196Y-59767200D01*
X118026481Y-60695771D02*
X118312196Y-60695771D01*
X118455053Y-60624343D01*
X118526481Y-60552914D01*
X118669339Y-60338629D01*
X118740767Y-60052914D01*
X118740767Y-59481486D01*
X118669339Y-59338629D01*
X118597910Y-59267200D01*
X118455053Y-59195771D01*
X118169339Y-59195771D01*
X118026481Y-59267200D01*
X117955053Y-59338629D01*
X117883624Y-59481486D01*
X117883624Y-59838629D01*
X117955053Y-59981486D01*
X118026481Y-60052914D01*
X118169339Y-60124343D01*
X118455053Y-60124343D01*
X118597910Y-60052914D01*
X118669339Y-59981486D01*
X118740767Y-59838629D01*
X119955052Y-60624343D02*
X119812195Y-60695771D01*
X119526481Y-60695771D01*
X119383624Y-60624343D01*
X119312195Y-60481486D01*
X119312195Y-59910057D01*
X119383624Y-59767200D01*
X119526481Y-59695771D01*
X119812195Y-59695771D01*
X119955052Y-59767200D01*
X120026481Y-59910057D01*
X120026481Y-60052914D01*
X119312195Y-60195771D01*
X120669338Y-60695771D02*
X120669338Y-59195771D01*
X120669338Y-59767200D02*
X120812195Y-59695771D01*
X121097909Y-59695771D01*
X121240766Y-59767200D01*
X121312195Y-59838629D01*
X121383624Y-59981486D01*
X121383624Y-60410057D01*
X121312195Y-60552914D01*
X121240766Y-60624343D01*
X121097909Y-60695771D01*
X120812195Y-60695771D01*
X120669338Y-60624343D01*
X121812195Y-59695771D02*
X122383624Y-59695771D01*
X122026481Y-60695771D02*
X122026481Y-59410057D01*
X122097909Y-59267200D01*
X122240767Y-59195771D01*
X122383624Y-59195771D01*
X122740767Y-59195771D02*
X123669338Y-59195771D01*
X123169338Y-59767200D01*
X123383624Y-59767200D01*
X123526481Y-59838629D01*
X123597910Y-59910057D01*
X123669338Y-60052914D01*
X123669338Y-60410057D01*
X123597910Y-60552914D01*
X123526481Y-60624343D01*
X123383624Y-60695771D01*
X122955052Y-60695771D01*
X122812195Y-60624343D01*
X122740767Y-60552914D01*
X124169338Y-61267200D02*
X124240766Y-61195771D01*
X124383623Y-60981486D01*
X124455052Y-60838629D01*
X124526481Y-60624343D01*
X124597909Y-60267200D01*
X124597909Y-59981486D01*
X124526481Y-59624343D01*
X124455052Y-59410057D01*
X124383623Y-59267200D01*
X124240766Y-59052914D01*
X124169338Y-58981486D01*
X125312195Y-60124343D02*
X126455052Y-60124343D01*
X127169338Y-59695771D02*
X127169338Y-61195771D01*
X127169338Y-59767200D02*
X127312195Y-59695771D01*
X127597909Y-59695771D01*
X127740766Y-59767200D01*
X127812195Y-59838629D01*
X127883624Y-59981486D01*
X127883624Y-60410057D01*
X127812195Y-60552914D01*
X127740766Y-60624343D01*
X127597909Y-60695771D01*
X127312195Y-60695771D01*
X127169338Y-60624343D01*
X128526481Y-60695771D02*
X128526481Y-59695771D01*
X128526481Y-59981486D02*
X128597909Y-59838629D01*
X128669338Y-59767200D01*
X128812195Y-59695771D01*
X128955052Y-59695771D01*
X129669338Y-60695771D02*
X129526480Y-60624343D01*
X129455052Y-60552914D01*
X129383623Y-60410057D01*
X129383623Y-59981486D01*
X129455052Y-59838629D01*
X129526480Y-59767200D01*
X129669338Y-59695771D01*
X129883623Y-59695771D01*
X130026480Y-59767200D01*
X130097909Y-59838629D01*
X130169338Y-59981486D01*
X130169338Y-60410057D01*
X130097909Y-60552914D01*
X130026480Y-60624343D01*
X129883623Y-60695771D01*
X129669338Y-60695771D01*
X131455052Y-60695771D02*
X131455052Y-59195771D01*
X131455052Y-60624343D02*
X131312195Y-60695771D01*
X131026481Y-60695771D01*
X130883623Y-60624343D01*
X130812195Y-60552914D01*
X130740766Y-60410057D01*
X130740766Y-59981486D01*
X130812195Y-59838629D01*
X130883623Y-59767200D01*
X131026481Y-59695771D01*
X131312195Y-59695771D01*
X131455052Y-59767200D01*
X132812195Y-59695771D02*
X132812195Y-60695771D01*
X132169338Y-59695771D02*
X132169338Y-60481486D01*
X132240766Y-60624343D01*
X132383624Y-60695771D01*
X132597909Y-60695771D01*
X132740766Y-60624343D01*
X132812195Y-60552914D01*
X134169338Y-60624343D02*
X134026481Y-60695771D01*
X133740767Y-60695771D01*
X133597909Y-60624343D01*
X133526481Y-60552914D01*
X133455052Y-60410057D01*
X133455052Y-59981486D01*
X133526481Y-59838629D01*
X133597909Y-59767200D01*
X133740767Y-59695771D01*
X134026481Y-59695771D01*
X134169338Y-59767200D01*
X134597909Y-59695771D02*
X135169338Y-59695771D01*
X134812195Y-59195771D02*
X134812195Y-60481486D01*
X134883623Y-60624343D01*
X135026481Y-60695771D01*
X135169338Y-60695771D01*
D10*
D11*
X53812200Y-55617200D02*
X161812200Y-55617200D01*
D10*
D12*
X141026486Y-57895771D02*
X140526486Y-57181486D01*
X140169343Y-57895771D02*
X140169343Y-56395771D01*
X140740771Y-56395771D01*
X140883629Y-56467200D01*
X140955057Y-56538629D01*
X141026486Y-56681486D01*
X141026486Y-56895771D01*
X140955057Y-57038629D01*
X140883629Y-57110057D01*
X140740771Y-57181486D01*
X140169343Y-57181486D01*
X142240771Y-57824343D02*
X142097914Y-57895771D01*
X141812200Y-57895771D01*
X141669343Y-57824343D01*
X141597914Y-57681486D01*
X141597914Y-57110057D01*
X141669343Y-56967200D01*
X141812200Y-56895771D01*
X142097914Y-56895771D01*
X142240771Y-56967200D01*
X142312200Y-57110057D01*
X142312200Y-57252914D01*
X141597914Y-57395771D01*
X142812200Y-56895771D02*
X143169343Y-57895771D01*
X143526485Y-56895771D01*
X144097914Y-57752914D02*
X144169342Y-57824343D01*
X144097914Y-57895771D01*
X144026485Y-57824343D01*
X144097914Y-57752914D01*
X144097914Y-57895771D01*
X144097914Y-56967200D02*
X144169342Y-57038629D01*
X144097914Y-57110057D01*
X144026485Y-57038629D01*
X144097914Y-56967200D01*
X144097914Y-57110057D01*
X146240771Y-56395771D02*
X146383628Y-56395771D01*
X146526485Y-56467200D01*
X146597914Y-56538629D01*
X146669343Y-56681486D01*
X146740771Y-56967200D01*
X146740771Y-57324343D01*
X146669343Y-57610057D01*
X146597914Y-57752914D01*
X146526485Y-57824343D01*
X146383628Y-57895771D01*
X146240771Y-57895771D01*
X146097914Y-57824343D01*
X146026485Y-57752914D01*
X145955057Y-57610057D01*
X145883628Y-57324343D01*
X145883628Y-56967200D01*
X145955057Y-56681486D01*
X146026485Y-56538629D01*
X146097914Y-56467200D01*
X146240771Y-56395771D01*
X147383628Y-57752914D02*
X147455056Y-57824343D01*
X147383628Y-57895771D01*
X147312199Y-57824343D01*
X147383628Y-57752914D01*
X147383628Y-57895771D01*
X148883628Y-57895771D02*
X148026485Y-57895771D01*
X148455057Y-57895771D02*
X148455057Y-56395771D01*
X148312200Y-56610057D01*
X148169342Y-56752914D01*
X148026485Y-56824343D01*
D10*
D11*
X55097914Y-57824343D02*
X55312200Y-57895771D01*
X55669343Y-57895771D01*
X55812200Y-57824343D01*
X55883629Y-57752914D01*
X55955057Y-57610057D01*
X55955057Y-57467200D01*
X55883629Y-57324343D01*
X55812200Y-57252914D01*
X55669343Y-57181486D01*
X55383629Y-57110057D01*
X55240771Y-57038629D01*
X55169343Y-56967200D01*
X55097914Y-56824343D01*
X55097914Y-56681486D01*
X55169343Y-56538629D01*
X55240771Y-56467200D01*
X55383629Y-56395771D01*
X55740771Y-56395771D01*
X55955057Y-56467200D01*
X56597914Y-57895771D02*
X56597914Y-56895771D01*
X56597914Y-56395771D02*
X56526485Y-56467200D01*
X56597914Y-56538629D01*
X56669342Y-56467200D01*
X56597914Y-56395771D01*
X56597914Y-56538629D01*
X57169343Y-56895771D02*
X57955057Y-56895771D01*
X57169343Y-57895771D01*
X57955057Y-57895771D01*
X59097914Y-57824343D02*
X58955057Y-57895771D01*
X58669343Y-57895771D01*
X58526486Y-57824343D01*
X58455057Y-57681486D01*
X58455057Y-57110057D01*
X58526486Y-56967200D01*
X58669343Y-56895771D01*
X58955057Y-56895771D01*
X59097914Y-56967200D01*
X59169343Y-57110057D01*
X59169343Y-57252914D01*
X58455057Y-57395771D01*
X59812200Y-57752914D02*
X59883628Y-57824343D01*
X59812200Y-57895771D01*
X59740771Y-57824343D01*
X59812200Y-57752914D01*
X59812200Y-57895771D01*
X59812200Y-56967200D02*
X59883628Y-57038629D01*
X59812200Y-57110057D01*
X59740771Y-57038629D01*
X59812200Y-56967200D01*
X59812200Y-57110057D01*
X61597914Y-57467200D02*
X62312200Y-57467200D01*
X61455057Y-57895771D02*
X61955057Y-56395771D01*
X62455057Y-57895771D01*
X63597914Y-56895771D02*
X63597914Y-57895771D01*
X63240771Y-56324343D02*
X62883628Y-57395771D01*
X63812200Y-57395771D01*
D10*
D11*
X140169343Y-60695771D02*
X140169343Y-59195771D01*
X141526486Y-60695771D02*
X141526486Y-59195771D01*
X141526486Y-60624343D02*
X141383629Y-60695771D01*
X141097915Y-60695771D01*
X140955057Y-60624343D01*
X140883629Y-60552914D01*
X140812200Y-60410057D01*
X140812200Y-59981486D01*
X140883629Y-59838629D01*
X140955057Y-59767200D01*
X141097915Y-59695771D01*
X141383629Y-59695771D01*
X141526486Y-59767200D01*
X142240772Y-60552914D02*
X142312200Y-60624343D01*
X142240772Y-60695771D01*
X142169343Y-60624343D01*
X142240772Y-60552914D01*
X142240772Y-60695771D01*
X142240772Y-59767200D02*
X142312200Y-59838629D01*
X142240772Y-59910057D01*
X142169343Y-59838629D01*
X142240772Y-59767200D01*
X142240772Y-59910057D01*
X144883629Y-60695771D02*
X144026486Y-60695771D01*
X144455058Y-60695771D02*
X144455058Y-59195771D01*
X144312201Y-59410057D01*
X144169343Y-59552914D01*
X144026486Y-59624343D01*
X146597914Y-59124343D02*
X145312200Y-61052914D01*
X147883629Y-60695771D02*
X147026486Y-60695771D01*
X147455058Y-60695771D02*
X147455058Y-59195771D01*
X147312201Y-59410057D01*
X147169343Y-59552914D01*
X147026486Y-59624343D01*
D10*
D11*
X163812200Y-64117200D02*
X163812200Y-64117200D01*
D10*
D11*
X53812200Y-51617200D02*
X120812200Y-51617200D01*
D10*
D13*
X55264581Y-31021962D02*
X56407438Y-31021962D01*
X55586010Y-33021962D02*
X55836010Y-31021962D01*
X56824105Y-33021962D02*
X56990771Y-31688629D01*
X57074105Y-31021962D02*
X56966962Y-31117200D01*
X57050295Y-31212438D01*
X57157439Y-31117200D01*
X57074105Y-31021962D01*
X57050295Y-31212438D01*
X57657438Y-31688629D02*
X58419343Y-31688629D01*
X58026486Y-31021962D02*
X57812200Y-32736248D01*
X57883630Y-32926724D01*
X58062201Y-33021962D01*
X58252677Y-33021962D01*
X59205058Y-33021962D02*
X59026487Y-32926724D01*
X58955057Y-32736248D01*
X59169343Y-31021962D01*
X60740772Y-32926724D02*
X60538391Y-33021962D01*
X60157439Y-33021962D01*
X59978867Y-32926724D01*
X59907438Y-32736248D01*
X60002676Y-31974343D01*
X60121724Y-31783867D01*
X60324105Y-31688629D01*
X60705057Y-31688629D01*
X60883629Y-31783867D01*
X60955057Y-31974343D01*
X60931248Y-32164819D01*
X59955057Y-32355295D01*
X61705057Y-32831486D02*
X61788392Y-32926724D01*
X61681248Y-33021962D01*
X61597915Y-32926724D01*
X61705057Y-32831486D01*
X61681248Y-33021962D01*
X61836010Y-31783867D02*
X61919344Y-31879105D01*
X61812200Y-31974343D01*
X61728867Y-31879105D01*
X61836010Y-31783867D01*
X61812200Y-31974343D01*
X64074106Y-32926724D02*
X64347916Y-33021962D01*
X64824106Y-33021962D01*
X65026487Y-32926724D01*
X65133629Y-32831486D01*
X65252678Y-32641010D01*
X65276487Y-32450533D01*
X65205058Y-32260057D01*
X65121725Y-32164819D01*
X64943153Y-32069581D01*
X64574106Y-31974343D01*
X64395535Y-31879105D01*
X64312201Y-31783867D01*
X64240772Y-31593390D01*
X64264582Y-31402914D01*
X64383629Y-31212438D01*
X64490773Y-31117200D01*
X64693154Y-31021962D01*
X65169344Y-31021962D01*
X65443154Y-31117200D01*
X66062201Y-33021962D02*
X66228867Y-31688629D01*
X66312201Y-31021962D02*
X66205058Y-31117200D01*
X66288391Y-31212438D01*
X66395535Y-31117200D01*
X66312201Y-31021962D01*
X66288391Y-31212438D01*
X67181248Y-31688629D02*
X67014582Y-33021962D01*
X67157439Y-31879105D02*
X67264583Y-31783867D01*
X67466963Y-31688629D01*
X67752677Y-31688629D01*
X67931249Y-31783867D01*
X68002677Y-31974343D01*
X67871725Y-33021962D01*
X69847915Y-31688629D02*
X69645534Y-33307676D01*
X69526487Y-33498152D01*
X69419344Y-33593390D01*
X69216963Y-33688629D01*
X68931249Y-33688629D01*
X68752677Y-33593390D01*
X69693154Y-32926724D02*
X69490773Y-33021962D01*
X69109821Y-33021962D01*
X68931250Y-32926724D01*
X68847915Y-32831486D01*
X68776487Y-32641010D01*
X68847915Y-32069581D01*
X68966963Y-31879105D01*
X69074107Y-31783867D01*
X69276487Y-31688629D01*
X69657439Y-31688629D01*
X69836011Y-31783867D01*
X70919345Y-33021962D02*
X70740774Y-32926724D01*
X70669344Y-32736248D01*
X70883630Y-31021962D01*
X72455059Y-32926724D02*
X72252678Y-33021962D01*
X71871726Y-33021962D01*
X71693154Y-32926724D01*
X71621725Y-32736248D01*
X71716963Y-31974343D01*
X71836011Y-31783867D01*
X72038392Y-31688629D01*
X72419344Y-31688629D01*
X72597916Y-31783867D01*
X72669344Y-31974343D01*
X72645535Y-32164819D01*
X71669344Y-32355295D01*
X74800297Y-31688629D02*
X75562202Y-31688629D01*
X75169345Y-31021962D02*
X74955059Y-32736248D01*
X75026489Y-32926724D01*
X75205060Y-33021962D01*
X75395536Y-33021962D01*
X76347917Y-33021962D02*
X76169346Y-32926724D01*
X76086011Y-32831486D01*
X76014583Y-32641010D01*
X76086011Y-32069581D01*
X76205059Y-31879105D01*
X76312203Y-31783867D01*
X76514583Y-31688629D01*
X76800297Y-31688629D01*
X76978869Y-31783867D01*
X77062202Y-31879105D01*
X77133630Y-32069581D01*
X77062202Y-32641010D01*
X76943154Y-32831486D01*
X76836012Y-32926724D01*
X76633631Y-33021962D01*
X76347917Y-33021962D01*
X79395536Y-33021962D02*
X79645536Y-31021962D01*
X80121727Y-31021962D01*
X80395536Y-31117200D01*
X80562203Y-31307676D01*
X80633632Y-31498152D01*
X80681251Y-31879105D01*
X80645537Y-32164819D01*
X80502680Y-32545771D01*
X80383631Y-32736248D01*
X80169346Y-32926724D01*
X79871727Y-33021962D01*
X79395536Y-33021962D01*
X81395536Y-33021962D02*
X81562202Y-31688629D01*
X81645536Y-31021962D02*
X81538393Y-31117200D01*
X81621726Y-31212438D01*
X81728870Y-31117200D01*
X81645536Y-31021962D01*
X81621726Y-31212438D01*
X82228869Y-31688629D02*
X82990774Y-31688629D01*
X82347917Y-33021962D02*
X82562203Y-31307676D01*
X82681251Y-31117200D01*
X82883632Y-31021962D01*
X83074108Y-31021962D01*
X83371726Y-31688629D02*
X84133631Y-31688629D01*
X83490774Y-33021962D02*
X83705060Y-31307676D01*
X83824108Y-31117200D01*
X84026489Y-31021962D01*
X84216965Y-31021962D01*
X85407441Y-32926724D02*
X85205060Y-33021962D01*
X84824108Y-33021962D01*
X84645536Y-32926724D01*
X84574107Y-32736248D01*
X84669345Y-31974343D01*
X84788393Y-31783867D01*
X84990774Y-31688629D01*
X85371726Y-31688629D01*
X85550298Y-31783867D01*
X85621726Y-31974343D01*
X85597917Y-32164819D01*
X84621726Y-32355295D01*
X86347917Y-33021962D02*
X86514583Y-31688629D01*
X86466964Y-32069581D02*
X86586013Y-31879105D01*
X86693156Y-31783867D01*
X86895536Y-31688629D01*
X87086012Y-31688629D01*
X88359822Y-32926724D02*
X88157441Y-33021962D01*
X87776489Y-33021962D01*
X87597917Y-32926724D01*
X87526488Y-32736248D01*
X87621726Y-31974343D01*
X87740774Y-31783867D01*
X87943155Y-31688629D01*
X88324107Y-31688629D01*
X88502679Y-31783867D01*
X88574107Y-31974343D01*
X88550298Y-32164819D01*
X87574107Y-32355295D01*
X89466964Y-31688629D02*
X89300298Y-33021962D01*
X89443155Y-31879105D02*
X89550299Y-31783867D01*
X89752679Y-31688629D01*
X90038393Y-31688629D01*
X90216965Y-31783867D01*
X90288393Y-31974343D01*
X90157441Y-33021962D01*
X90990774Y-31688629D02*
X91752679Y-31688629D01*
X91359822Y-31021962D02*
X91145536Y-32736248D01*
X91216966Y-32926724D01*
X91395537Y-33021962D01*
X91586013Y-33021962D01*
X92252679Y-33021962D02*
X92419345Y-31688629D01*
X92502679Y-31021962D02*
X92395536Y-31117200D01*
X92478869Y-31212438D01*
X92586013Y-31117200D01*
X92502679Y-31021962D01*
X92478869Y-31212438D01*
X94062203Y-33021962D02*
X94193155Y-31974343D01*
X94121727Y-31783867D01*
X93943155Y-31688629D01*
X93562203Y-31688629D01*
X93359822Y-31783867D01*
X94074108Y-32926724D02*
X93871727Y-33021962D01*
X93395537Y-33021962D01*
X93216965Y-32926724D01*
X93145536Y-32736248D01*
X93169346Y-32545771D01*
X93288393Y-32355295D01*
X93490775Y-32260057D01*
X93966965Y-32260057D01*
X94169346Y-32164819D01*
X95300299Y-33021962D02*
X95121728Y-32926724D01*
X95050298Y-32736248D01*
X95264584Y-31021962D01*
X98752680Y-32831486D02*
X98645538Y-32926724D01*
X98347918Y-33021962D01*
X98157442Y-33021962D01*
X97883633Y-32926724D01*
X97716966Y-32736248D01*
X97645537Y-32545771D01*
X97597918Y-32164819D01*
X97633632Y-31879105D01*
X97776489Y-31498152D01*
X97895538Y-31307676D01*
X98109823Y-31117200D01*
X98407442Y-31021962D01*
X98597918Y-31021962D01*
X98871728Y-31117200D01*
X98955061Y-31212438D01*
X99871728Y-33021962D02*
X99693157Y-32926724D01*
X99609822Y-32831486D01*
X99538394Y-32641010D01*
X99609822Y-32069581D01*
X99728870Y-31879105D01*
X99836014Y-31783867D01*
X100038394Y-31688629D01*
X100324108Y-31688629D01*
X100502680Y-31783867D01*
X100586013Y-31879105D01*
X100657441Y-32069581D01*
X100586013Y-32641010D01*
X100466965Y-32831486D01*
X100359823Y-32926724D01*
X100157442Y-33021962D01*
X99871728Y-33021962D01*
X101562203Y-31688629D02*
X101395537Y-33021962D01*
X101538394Y-31879105D02*
X101645538Y-31783867D01*
X101847918Y-31688629D01*
X102133632Y-31688629D01*
X102312204Y-31783867D01*
X102383632Y-31974343D01*
X102252680Y-33021962D01*
X103181251Y-31688629D02*
X103490776Y-33021962D01*
X104133632Y-31688629D01*
X105502681Y-32926724D02*
X105300300Y-33021962D01*
X104919348Y-33021962D01*
X104740776Y-32926724D01*
X104669347Y-32736248D01*
X104764585Y-31974343D01*
X104883633Y-31783867D01*
X105086014Y-31688629D01*
X105466966Y-31688629D01*
X105645538Y-31783867D01*
X105716966Y-31974343D01*
X105693157Y-32164819D01*
X104716966Y-32355295D01*
X106443157Y-33021962D02*
X106609823Y-31688629D01*
X106562204Y-32069581D02*
X106681253Y-31879105D01*
X106788396Y-31783867D01*
X106990776Y-31688629D01*
X107181252Y-31688629D01*
X107562204Y-31688629D02*
X108324109Y-31688629D01*
X107931252Y-31021962D02*
X107716966Y-32736248D01*
X107788396Y-32926724D01*
X107966967Y-33021962D01*
X108157443Y-33021962D01*
X109109824Y-33021962D02*
X108931253Y-32926724D01*
X108847918Y-32831486D01*
X108776490Y-32641010D01*
X108847918Y-32069581D01*
X108966966Y-31879105D01*
X109074110Y-31783867D01*
X109276490Y-31688629D01*
X109562204Y-31688629D01*
X109740776Y-31783867D01*
X109824109Y-31879105D01*
X109895537Y-32069581D01*
X109824109Y-32641010D01*
X109705061Y-32831486D01*
X109597919Y-32926724D01*
X109395538Y-33021962D01*
X109109824Y-33021962D01*
X110633633Y-33021962D02*
X110800299Y-31688629D01*
X110752680Y-32069581D02*
X110871729Y-31879105D01*
X110978872Y-31783867D01*
X111181252Y-31688629D01*
X111371728Y-31688629D01*
D10*
D11*
X55669343Y-49710057D02*
X55169343Y-49710057D01*
X55169343Y-50495771D02*
X55169343Y-48995771D01*
X55883629Y-48995771D01*
X56455057Y-50495771D02*
X56455057Y-49495771D01*
X56455057Y-48995771D02*
X56383628Y-49067200D01*
X56455057Y-49138629D01*
X56526485Y-49067200D01*
X56455057Y-48995771D01*
X56455057Y-49138629D01*
X57383629Y-50495771D02*
X57240771Y-50424343D01*
X57169343Y-50281486D01*
X57169343Y-48995771D01*
X58526485Y-50424343D02*
X58383628Y-50495771D01*
X58097914Y-50495771D01*
X57955057Y-50424343D01*
X57883628Y-50281486D01*
X57883628Y-49710057D01*
X57955057Y-49567200D01*
X58097914Y-49495771D01*
X58383628Y-49495771D01*
X58526485Y-49567200D01*
X58597914Y-49710057D01*
X58597914Y-49852914D01*
X57883628Y-49995771D01*
X59240771Y-50352914D02*
X59312199Y-50424343D01*
X59240771Y-50495771D01*
X59169342Y-50424343D01*
X59240771Y-50352914D01*
X59240771Y-50495771D01*
X59240771Y-49567200D02*
X59312199Y-49638629D01*
X59240771Y-49710057D01*
X59169342Y-49638629D01*
X59240771Y-49567200D01*
X59240771Y-49710057D01*
X61097914Y-50495771D02*
X61097914Y-49495771D01*
X61097914Y-49638629D02*
X61169342Y-49567200D01*
X61312200Y-49495771D01*
X61526485Y-49495771D01*
X61669342Y-49567200D01*
X61740771Y-49710057D01*
X61740771Y-50495771D01*
X61740771Y-49710057D02*
X61812200Y-49567200D01*
X61955057Y-49495771D01*
X62169342Y-49495771D01*
X62312200Y-49567200D01*
X62383628Y-49710057D01*
X62383628Y-50495771D01*
X63312200Y-50495771D02*
X63169342Y-50424343D01*
X63097914Y-50352914D01*
X63026485Y-50210057D01*
X63026485Y-49781486D01*
X63097914Y-49638629D01*
X63169342Y-49567200D01*
X63312200Y-49495771D01*
X63526485Y-49495771D01*
X63669342Y-49567200D01*
X63740771Y-49638629D01*
X63812200Y-49781486D01*
X63812200Y-50210057D01*
X63740771Y-50352914D01*
X63669342Y-50424343D01*
X63526485Y-50495771D01*
X63312200Y-50495771D01*
X64455057Y-49495771D02*
X64455057Y-50495771D01*
X64455057Y-49638629D02*
X64526485Y-49567200D01*
X64669343Y-49495771D01*
X64883628Y-49495771D01*
X65026485Y-49567200D01*
X65097914Y-49710057D01*
X65097914Y-50495771D01*
X66026486Y-50495771D02*
X65883628Y-50424343D01*
X65812200Y-50352914D01*
X65740771Y-50210057D01*
X65740771Y-49781486D01*
X65812200Y-49638629D01*
X65883628Y-49567200D01*
X66026486Y-49495771D01*
X66240771Y-49495771D01*
X66383628Y-49567200D01*
X66455057Y-49638629D01*
X66526486Y-49781486D01*
X66526486Y-50210057D01*
X66455057Y-50352914D01*
X66383628Y-50424343D01*
X66240771Y-50495771D01*
X66026486Y-50495771D01*
X66812200Y-50638629D02*
X67955057Y-50638629D01*
X68097914Y-49495771D02*
X68669343Y-49495771D01*
X68312200Y-48995771D02*
X68312200Y-50281486D01*
X68383628Y-50424343D01*
X68526486Y-50495771D01*
X68669343Y-50495771D01*
X69383629Y-50495771D02*
X69240771Y-50424343D01*
X69169343Y-50352914D01*
X69097914Y-50210057D01*
X69097914Y-49781486D01*
X69169343Y-49638629D01*
X69240771Y-49567200D01*
X69383629Y-49495771D01*
X69597914Y-49495771D01*
X69740771Y-49567200D01*
X69812200Y-49638629D01*
X69883629Y-49781486D01*
X69883629Y-50210057D01*
X69812200Y-50352914D01*
X69740771Y-50424343D01*
X69597914Y-50495771D01*
X69383629Y-50495771D01*
X70169343Y-50638629D02*
X71312200Y-50638629D01*
X72312200Y-50495771D02*
X72312200Y-48995771D01*
X72312200Y-50424343D02*
X72169343Y-50495771D01*
X71883629Y-50495771D01*
X71740771Y-50424343D01*
X71669343Y-50352914D01*
X71597914Y-50210057D01*
X71597914Y-49781486D01*
X71669343Y-49638629D01*
X71740771Y-49567200D01*
X71883629Y-49495771D01*
X72169343Y-49495771D01*
X72312200Y-49567200D01*
X73026486Y-50495771D02*
X73026486Y-49495771D01*
X73026486Y-48995771D02*
X72955057Y-49067200D01*
X73026486Y-49138629D01*
X73097914Y-49067200D01*
X73026486Y-48995771D01*
X73026486Y-49138629D01*
X73526486Y-49495771D02*
X74097915Y-49495771D01*
X73740772Y-50495771D02*
X73740772Y-49210057D01*
X73812200Y-49067200D01*
X73955058Y-48995771D01*
X74097915Y-48995771D01*
X74383629Y-49495771D02*
X74955058Y-49495771D01*
X74597915Y-50495771D02*
X74597915Y-49210057D01*
X74669343Y-49067200D01*
X74812201Y-48995771D01*
X74955058Y-48995771D01*
X75455058Y-50352914D02*
X75526486Y-50424343D01*
X75455058Y-50495771D01*
X75383629Y-50424343D01*
X75455058Y-50352914D01*
X75455058Y-50495771D01*
X76169344Y-50495771D02*
X76169344Y-48995771D01*
X76312201Y-49924343D02*
X76740772Y-50495771D01*
X76740772Y-49495771D02*
X76169344Y-50067200D01*
X77383630Y-50495771D02*
X77383630Y-49495771D01*
X77383630Y-48995771D02*
X77312201Y-49067200D01*
X77383630Y-49138629D01*
X77455058Y-49067200D01*
X77383630Y-48995771D01*
X77383630Y-49138629D01*
X78740773Y-50424343D02*
X78597916Y-50495771D01*
X78312202Y-50495771D01*
X78169344Y-50424343D01*
X78097916Y-50352914D01*
X78026487Y-50210057D01*
X78026487Y-49781486D01*
X78097916Y-49638629D01*
X78169344Y-49567200D01*
X78312202Y-49495771D01*
X78597916Y-49495771D01*
X78740773Y-49567200D01*
X80026487Y-50495771D02*
X80026487Y-49710057D01*
X79955058Y-49567200D01*
X79812201Y-49495771D01*
X79526487Y-49495771D01*
X79383630Y-49567200D01*
X80026487Y-50424343D02*
X79883630Y-50495771D01*
X79526487Y-50495771D01*
X79383630Y-50424343D01*
X79312201Y-50281486D01*
X79312201Y-50138629D01*
X79383630Y-49995771D01*
X79526487Y-49924343D01*
X79883630Y-49924343D01*
X80026487Y-49852914D01*
X81383630Y-50495771D02*
X81383630Y-48995771D01*
X81383630Y-50424343D02*
X81240773Y-50495771D01*
X80955059Y-50495771D01*
X80812201Y-50424343D01*
X80740773Y-50352914D01*
X80669344Y-50210057D01*
X80669344Y-49781486D01*
X80740773Y-49638629D01*
X80812201Y-49567200D01*
X80955059Y-49495771D01*
X81240773Y-49495771D01*
X81383630Y-49567200D01*
X81740773Y-50638629D02*
X82883630Y-50638629D01*
X83240773Y-49495771D02*
X83240773Y-50995771D01*
X83240773Y-49567200D02*
X83383630Y-49495771D01*
X83669344Y-49495771D01*
X83812201Y-49567200D01*
X83883630Y-49638629D01*
X83955059Y-49781486D01*
X83955059Y-50210057D01*
X83883630Y-50352914D01*
X83812201Y-50424343D01*
X83669344Y-50495771D01*
X83383630Y-50495771D01*
X83240773Y-50424343D01*
X85240773Y-50424343D02*
X85097916Y-50495771D01*
X84812202Y-50495771D01*
X84669344Y-50424343D01*
X84597916Y-50352914D01*
X84526487Y-50210057D01*
X84526487Y-49781486D01*
X84597916Y-49638629D01*
X84669344Y-49567200D01*
X84812202Y-49495771D01*
X85097916Y-49495771D01*
X85240773Y-49567200D01*
X85883630Y-50495771D02*
X85883630Y-48995771D01*
X85883630Y-49567200D02*
X86026487Y-49495771D01*
X86312201Y-49495771D01*
X86455058Y-49567200D01*
X86526487Y-49638629D01*
X86597916Y-49781486D01*
X86597916Y-50210057D01*
X86526487Y-50352914D01*
X86455058Y-50424343D01*
X86312201Y-50495771D01*
X86026487Y-50495771D01*
X85883630Y-50424343D01*
D10*
D11*
X53812200Y-45617200D02*
X120812200Y-45617200D01*
D10*
D11*
X55097914Y-47724343D02*
X55312200Y-47795771D01*
X55669343Y-47795771D01*
X55812200Y-47724343D01*
X55883629Y-47652914D01*
X55955057Y-47510057D01*
X55955057Y-47367200D01*
X55883629Y-47224343D01*
X55812200Y-47152914D01*
X55669343Y-47081486D01*
X55383629Y-47010057D01*
X55240771Y-46938629D01*
X55169343Y-46867200D01*
X55097914Y-46724343D01*
X55097914Y-46581486D01*
X55169343Y-46438629D01*
X55240771Y-46367200D01*
X55383629Y-46295771D01*
X55740771Y-46295771D01*
X55955057Y-46367200D01*
X56597914Y-47795771D02*
X56597914Y-46295771D01*
X57240771Y-47795771D02*
X57240771Y-47010057D01*
X57169342Y-46867200D01*
X57026485Y-46795771D01*
X56812200Y-46795771D01*
X56669342Y-46867200D01*
X56597914Y-46938629D01*
X58526485Y-47724343D02*
X58383628Y-47795771D01*
X58097914Y-47795771D01*
X57955057Y-47724343D01*
X57883628Y-47581486D01*
X57883628Y-47010057D01*
X57955057Y-46867200D01*
X58097914Y-46795771D01*
X58383628Y-46795771D01*
X58526485Y-46867200D01*
X58597914Y-47010057D01*
X58597914Y-47152914D01*
X57883628Y-47295771D01*
X59812199Y-47724343D02*
X59669342Y-47795771D01*
X59383628Y-47795771D01*
X59240771Y-47724343D01*
X59169342Y-47581486D01*
X59169342Y-47010057D01*
X59240771Y-46867200D01*
X59383628Y-46795771D01*
X59669342Y-46795771D01*
X59812199Y-46867200D01*
X59883628Y-47010057D01*
X59883628Y-47152914D01*
X59169342Y-47295771D01*
X60312199Y-46795771D02*
X60883628Y-46795771D01*
X60526485Y-46295771D02*
X60526485Y-47581486D01*
X60597913Y-47724343D01*
X60740771Y-47795771D01*
X60883628Y-47795771D01*
X61383628Y-47652914D02*
X61455056Y-47724343D01*
X61383628Y-47795771D01*
X61312199Y-47724343D01*
X61383628Y-47652914D01*
X61383628Y-47795771D01*
X61383628Y-46867200D02*
X61455056Y-46938629D01*
X61383628Y-47010057D01*
X61312199Y-46938629D01*
X61383628Y-46867200D01*
X61383628Y-47010057D01*
D10*
D11*
X55169343Y-37795571D02*
X55169343Y-36295571D01*
X55526486Y-36295571D01*
X55740771Y-36367000D01*
X55883629Y-36509857D01*
X55955057Y-36652714D01*
X56026486Y-36938429D01*
X56026486Y-37152714D01*
X55955057Y-37438429D01*
X55883629Y-37581286D01*
X55740771Y-37724143D01*
X55526486Y-37795571D01*
X55169343Y-37795571D01*
X57240771Y-37724143D02*
X57097914Y-37795571D01*
X56812200Y-37795571D01*
X56669343Y-37724143D01*
X56597914Y-37581286D01*
X56597914Y-37009857D01*
X56669343Y-36867000D01*
X56812200Y-36795571D01*
X57097914Y-36795571D01*
X57240771Y-36867000D01*
X57312200Y-37009857D01*
X57312200Y-37152714D01*
X56597914Y-37295571D01*
X57883628Y-37724143D02*
X58026485Y-37795571D01*
X58312200Y-37795571D01*
X58455057Y-37724143D01*
X58526485Y-37581286D01*
X58526485Y-37509857D01*
X58455057Y-37367000D01*
X58312200Y-37295571D01*
X58097914Y-37295571D01*
X57955057Y-37224143D01*
X57883628Y-37081286D01*
X57883628Y-37009857D01*
X57955057Y-36867000D01*
X58097914Y-36795571D01*
X58312200Y-36795571D01*
X58455057Y-36867000D01*
X59812200Y-37724143D02*
X59669343Y-37795571D01*
X59383629Y-37795571D01*
X59240771Y-37724143D01*
X59169343Y-37652714D01*
X59097914Y-37509857D01*
X59097914Y-37081286D01*
X59169343Y-36938429D01*
X59240771Y-36867000D01*
X59383629Y-36795571D01*
X59669343Y-36795571D01*
X59812200Y-36867000D01*
X60455057Y-37795571D02*
X60455057Y-36795571D01*
X60455057Y-37081286D02*
X60526485Y-36938429D01*
X60597914Y-36867000D01*
X60740771Y-36795571D01*
X60883628Y-36795571D01*
X61383628Y-37795571D02*
X61383628Y-36795571D01*
X61383628Y-36295571D02*
X61312199Y-36367000D01*
X61383628Y-36438429D01*
X61455056Y-36367000D01*
X61383628Y-36295571D01*
X61383628Y-36438429D01*
X62097914Y-36795571D02*
X62097914Y-38295571D01*
X62097914Y-36867000D02*
X62240771Y-36795571D01*
X62526485Y-36795571D01*
X62669342Y-36867000D01*
X62740771Y-36938429D01*
X62812200Y-37081286D01*
X62812200Y-37509857D01*
X62740771Y-37652714D01*
X62669342Y-37724143D01*
X62526485Y-37795571D01*
X62240771Y-37795571D01*
X62097914Y-37724143D01*
X63240771Y-36795571D02*
X63812200Y-36795571D01*
X63455057Y-36295571D02*
X63455057Y-37581286D01*
X63526485Y-37724143D01*
X63669343Y-37795571D01*
X63812200Y-37795571D01*
X64312200Y-37795571D02*
X64312200Y-36795571D01*
X64312200Y-36295571D02*
X64240771Y-36367000D01*
X64312200Y-36438429D01*
X64383628Y-36367000D01*
X64312200Y-36295571D01*
X64312200Y-36438429D01*
X65240772Y-37795571D02*
X65097914Y-37724143D01*
X65026486Y-37652714D01*
X64955057Y-37509857D01*
X64955057Y-37081286D01*
X65026486Y-36938429D01*
X65097914Y-36867000D01*
X65240772Y-36795571D01*
X65455057Y-36795571D01*
X65597914Y-36867000D01*
X65669343Y-36938429D01*
X65740772Y-37081286D01*
X65740772Y-37509857D01*
X65669343Y-37652714D01*
X65597914Y-37724143D01*
X65455057Y-37795571D01*
X65240772Y-37795571D01*
X66383629Y-36795571D02*
X66383629Y-37795571D01*
X66383629Y-36938429D02*
X66455057Y-36867000D01*
X66597915Y-36795571D01*
X66812200Y-36795571D01*
X66955057Y-36867000D01*
X67026486Y-37009857D01*
X67026486Y-37795571D01*
X67740772Y-37652714D02*
X67812200Y-37724143D01*
X67740772Y-37795571D01*
X67669343Y-37724143D01*
X67740772Y-37652714D01*
X67740772Y-37795571D01*
X67740772Y-36867000D02*
X67812200Y-36938429D01*
X67740772Y-37009857D01*
X67669343Y-36938429D01*
X67740772Y-36867000D01*
X67740772Y-37009857D01*
X69526486Y-37367000D02*
X70240772Y-37367000D01*
X69383629Y-37795571D02*
X69883629Y-36295571D01*
X70383629Y-37795571D01*
X70883629Y-36795571D02*
X70883629Y-37795571D01*
X70883629Y-36938429D02*
X70955057Y-36867000D01*
X71097915Y-36795571D01*
X71312200Y-36795571D01*
X71455057Y-36867000D01*
X71526486Y-37009857D01*
X71526486Y-37795571D01*
X72883629Y-37795571D02*
X72883629Y-37009857D01*
X72812200Y-36867000D01*
X72669343Y-36795571D01*
X72383629Y-36795571D01*
X72240772Y-36867000D01*
X72883629Y-37724143D02*
X72740772Y-37795571D01*
X72383629Y-37795571D01*
X72240772Y-37724143D01*
X72169343Y-37581286D01*
X72169343Y-37438429D01*
X72240772Y-37295571D01*
X72383629Y-37224143D01*
X72740772Y-37224143D01*
X72883629Y-37152714D01*
X73812201Y-37795571D02*
X73669343Y-37724143D01*
X73597915Y-37581286D01*
X73597915Y-36295571D01*
X74597915Y-37795571D02*
X74455057Y-37724143D01*
X74383629Y-37652714D01*
X74312200Y-37509857D01*
X74312200Y-37081286D01*
X74383629Y-36938429D01*
X74455057Y-36867000D01*
X74597915Y-36795571D01*
X74812200Y-36795571D01*
X74955057Y-36867000D01*
X75026486Y-36938429D01*
X75097915Y-37081286D01*
X75097915Y-37509857D01*
X75026486Y-37652714D01*
X74955057Y-37724143D01*
X74812200Y-37795571D01*
X74597915Y-37795571D01*
X76383629Y-36795571D02*
X76383629Y-38009857D01*
X76312200Y-38152714D01*
X76240772Y-38224143D01*
X76097915Y-38295571D01*
X75883629Y-38295571D01*
X75740772Y-38224143D01*
X76383629Y-37724143D02*
X76240772Y-37795571D01*
X75955058Y-37795571D01*
X75812200Y-37724143D01*
X75740772Y-37652714D01*
X75669343Y-37509857D01*
X75669343Y-37081286D01*
X75740772Y-36938429D01*
X75812200Y-36867000D01*
X75955058Y-36795571D01*
X76240772Y-36795571D01*
X76383629Y-36867000D01*
X78169343Y-37724143D02*
X78312200Y-37795571D01*
X78597915Y-37795571D01*
X78740772Y-37724143D01*
X78812200Y-37581286D01*
X78812200Y-37509857D01*
X78740772Y-37367000D01*
X78597915Y-37295571D01*
X78383629Y-37295571D01*
X78240772Y-37224143D01*
X78169343Y-37081286D01*
X78169343Y-37009857D01*
X78240772Y-36867000D01*
X78383629Y-36795571D01*
X78597915Y-36795571D01*
X78740772Y-36867000D01*
X79455058Y-37795571D02*
X79455058Y-36795571D01*
X79455058Y-36295571D02*
X79383629Y-36367000D01*
X79455058Y-36438429D01*
X79526486Y-36367000D01*
X79455058Y-36295571D01*
X79455058Y-36438429D01*
X80169344Y-36795571D02*
X80169344Y-37795571D01*
X80169344Y-36938429D02*
X80240772Y-36867000D01*
X80383630Y-36795571D01*
X80597915Y-36795571D01*
X80740772Y-36867000D01*
X80812201Y-37009857D01*
X80812201Y-37795571D01*
X82169344Y-36795571D02*
X82169344Y-38009857D01*
X82097915Y-38152714D01*
X82026487Y-38224143D01*
X81883630Y-38295571D01*
X81669344Y-38295571D01*
X81526487Y-38224143D01*
X82169344Y-37724143D02*
X82026487Y-37795571D01*
X81740773Y-37795571D01*
X81597915Y-37724143D01*
X81526487Y-37652714D01*
X81455058Y-37509857D01*
X81455058Y-37081286D01*
X81526487Y-36938429D01*
X81597915Y-36867000D01*
X81740773Y-36795571D01*
X82026487Y-36795571D01*
X82169344Y-36867000D01*
X83097916Y-37795571D02*
X82955058Y-37724143D01*
X82883630Y-37581286D01*
X82883630Y-36295571D01*
X84240772Y-37724143D02*
X84097915Y-37795571D01*
X83812201Y-37795571D01*
X83669344Y-37724143D01*
X83597915Y-37581286D01*
X83597915Y-37009857D01*
X83669344Y-36867000D01*
X83812201Y-36795571D01*
X84097915Y-36795571D01*
X84240772Y-36867000D01*
X84312201Y-37009857D01*
X84312201Y-37152714D01*
X83597915Y-37295571D01*
X85883629Y-36795571D02*
X86455058Y-36795571D01*
X86097915Y-36295571D02*
X86097915Y-37581286D01*
X86169343Y-37724143D01*
X86312201Y-37795571D01*
X86455058Y-37795571D01*
X87169344Y-37795571D02*
X87026486Y-37724143D01*
X86955058Y-37652714D01*
X86883629Y-37509857D01*
X86883629Y-37081286D01*
X86955058Y-36938429D01*
X87026486Y-36867000D01*
X87169344Y-36795571D01*
X87383629Y-36795571D01*
X87526486Y-36867000D01*
X87597915Y-36938429D01*
X87669344Y-37081286D01*
X87669344Y-37509857D01*
X87597915Y-37652714D01*
X87526486Y-37724143D01*
X87383629Y-37795571D01*
X87169344Y-37795571D01*
X90097915Y-37795571D02*
X90097915Y-36295571D01*
X90097915Y-37724143D02*
X89955058Y-37795571D01*
X89669344Y-37795571D01*
X89526486Y-37724143D01*
X89455058Y-37652714D01*
X89383629Y-37509857D01*
X89383629Y-37081286D01*
X89455058Y-36938429D01*
X89526486Y-36867000D01*
X89669344Y-36795571D01*
X89955058Y-36795571D01*
X90097915Y-36867000D01*
X90812201Y-37795571D02*
X90812201Y-36795571D01*
X90812201Y-36295571D02*
X90740772Y-36367000D01*
X90812201Y-36438429D01*
X90883629Y-36367000D01*
X90812201Y-36295571D01*
X90812201Y-36438429D01*
X91312201Y-36795571D02*
X91883630Y-36795571D01*
X91526487Y-37795571D02*
X91526487Y-36509857D01*
X91597915Y-36367000D01*
X91740773Y-36295571D01*
X91883630Y-36295571D01*
X92169344Y-36795571D02*
X92740773Y-36795571D01*
X92383630Y-37795571D02*
X92383630Y-36509857D01*
X92455058Y-36367000D01*
X92597916Y-36295571D01*
X92740773Y-36295571D01*
X93812201Y-37724143D02*
X93669344Y-37795571D01*
X93383630Y-37795571D01*
X93240773Y-37724143D01*
X93169344Y-37581286D01*
X93169344Y-37009857D01*
X93240773Y-36867000D01*
X93383630Y-36795571D01*
X93669344Y-36795571D01*
X93812201Y-36867000D01*
X93883630Y-37009857D01*
X93883630Y-37152714D01*
X93169344Y-37295571D01*
X94526487Y-37795571D02*
X94526487Y-36795571D01*
X94526487Y-37081286D02*
X94597915Y-36938429D01*
X94669344Y-36867000D01*
X94812201Y-36795571D01*
X94955058Y-36795571D01*
X96026486Y-37724143D02*
X95883629Y-37795571D01*
X95597915Y-37795571D01*
X95455058Y-37724143D01*
X95383629Y-37581286D01*
X95383629Y-37009857D01*
X95455058Y-36867000D01*
X95597915Y-36795571D01*
X95883629Y-36795571D01*
X96026486Y-36867000D01*
X96097915Y-37009857D01*
X96097915Y-37152714D01*
X95383629Y-37295571D01*
X96740772Y-36795571D02*
X96740772Y-37795571D01*
X96740772Y-36938429D02*
X96812200Y-36867000D01*
X96955058Y-36795571D01*
X97169343Y-36795571D01*
X97312200Y-36867000D01*
X97383629Y-37009857D01*
X97383629Y-37795571D01*
X97883629Y-36795571D02*
X98455058Y-36795571D01*
X98097915Y-36295571D02*
X98097915Y-37581286D01*
X98169343Y-37724143D01*
X98312201Y-37795571D01*
X98455058Y-37795571D01*
X98955058Y-37795571D02*
X98955058Y-36795571D01*
X98955058Y-36295571D02*
X98883629Y-36367000D01*
X98955058Y-36438429D01*
X99026486Y-36367000D01*
X98955058Y-36295571D01*
X98955058Y-36438429D01*
X100312201Y-37795571D02*
X100312201Y-37009857D01*
X100240772Y-36867000D01*
X100097915Y-36795571D01*
X99812201Y-36795571D01*
X99669344Y-36867000D01*
X100312201Y-37724143D02*
X100169344Y-37795571D01*
X99812201Y-37795571D01*
X99669344Y-37724143D01*
X99597915Y-37581286D01*
X99597915Y-37438429D01*
X99669344Y-37295571D01*
X99812201Y-37224143D01*
X100169344Y-37224143D01*
X100312201Y-37152714D01*
X101240773Y-37795571D02*
X101097915Y-37724143D01*
X101026487Y-37581286D01*
X101026487Y-36295571D01*
X103597915Y-37724143D02*
X103455058Y-37795571D01*
X103169344Y-37795571D01*
X103026486Y-37724143D01*
X102955058Y-37652714D01*
X102883629Y-37509857D01*
X102883629Y-37081286D01*
X102955058Y-36938429D01*
X103026486Y-36867000D01*
X103169344Y-36795571D01*
X103455058Y-36795571D01*
X103597915Y-36867000D01*
X104455058Y-37795571D02*
X104312200Y-37724143D01*
X104240772Y-37652714D01*
X104169343Y-37509857D01*
X104169343Y-37081286D01*
X104240772Y-36938429D01*
X104312200Y-36867000D01*
X104455058Y-36795571D01*
X104669343Y-36795571D01*
X104812200Y-36867000D01*
X104883629Y-36938429D01*
X104955058Y-37081286D01*
X104955058Y-37509857D01*
X104883629Y-37652714D01*
X104812200Y-37724143D01*
X104669343Y-37795571D01*
X104455058Y-37795571D01*
X105597915Y-36795571D02*
X105597915Y-37795571D01*
X105597915Y-36938429D02*
X105669343Y-36867000D01*
X105812201Y-36795571D01*
X106026486Y-36795571D01*
X106169343Y-36867000D01*
X106240772Y-37009857D01*
X106240772Y-37795571D01*
X106812201Y-36795571D02*
X107169344Y-37795571D01*
X107526486Y-36795571D01*
X108669343Y-37724143D02*
X108526486Y-37795571D01*
X108240772Y-37795571D01*
X108097915Y-37724143D01*
X108026486Y-37581286D01*
X108026486Y-37009857D01*
X108097915Y-36867000D01*
X108240772Y-36795571D01*
X108526486Y-36795571D01*
X108669343Y-36867000D01*
X108740772Y-37009857D01*
X108740772Y-37152714D01*
X108026486Y-37295571D01*
X109383629Y-37795571D02*
X109383629Y-36795571D01*
X109383629Y-37081286D02*
X109455057Y-36938429D01*
X109526486Y-36867000D01*
X109669343Y-36795571D01*
X109812200Y-36795571D01*
X110097914Y-36795571D02*
X110669343Y-36795571D01*
X110312200Y-36295571D02*
X110312200Y-37581286D01*
X110383628Y-37724143D01*
X110526486Y-37795571D01*
X110669343Y-37795571D01*
X111383629Y-37795571D02*
X111240771Y-37724143D01*
X111169343Y-37652714D01*
X111097914Y-37509857D01*
X111097914Y-37081286D01*
X111169343Y-36938429D01*
X111240771Y-36867000D01*
X111383629Y-36795571D01*
X111597914Y-36795571D01*
X111740771Y-36867000D01*
X111812200Y-36938429D01*
X111883629Y-37081286D01*
X111883629Y-37509857D01*
X111812200Y-37652714D01*
X111740771Y-37724143D01*
X111597914Y-37795571D01*
X111383629Y-37795571D01*
X112526486Y-37795571D02*
X112526486Y-36795571D01*
X112526486Y-37081286D02*
X112597914Y-36938429D01*
X112669343Y-36867000D01*
X112812200Y-36795571D01*
X112955057Y-36795571D01*
D10*
D11*
X55169343Y-44795771D02*
X55169343Y-43295771D01*
X55740771Y-43295771D01*
X55883629Y-43367200D01*
X55955057Y-43438629D01*
X56026486Y-43581486D01*
X56026486Y-43795771D01*
X55955057Y-43938629D01*
X55883629Y-44010057D01*
X55740771Y-44081486D01*
X55169343Y-44081486D01*
X56669343Y-44795771D02*
X56669343Y-43795771D01*
X56669343Y-44081486D02*
X56740771Y-43938629D01*
X56812200Y-43867200D01*
X56955057Y-43795771D01*
X57097914Y-43795771D01*
X57812200Y-44795771D02*
X57669342Y-44724343D01*
X57597914Y-44652914D01*
X57526485Y-44510057D01*
X57526485Y-44081486D01*
X57597914Y-43938629D01*
X57669342Y-43867200D01*
X57812200Y-43795771D01*
X58026485Y-43795771D01*
X58169342Y-43867200D01*
X58240771Y-43938629D01*
X58312200Y-44081486D01*
X58312200Y-44510057D01*
X58240771Y-44652914D01*
X58169342Y-44724343D01*
X58026485Y-44795771D01*
X57812200Y-44795771D01*
X58955057Y-43795771D02*
X58955057Y-45081486D01*
X58883628Y-45224343D01*
X58740771Y-45295771D01*
X58669343Y-45295771D01*
X58955057Y-43295771D02*
X58883628Y-43367200D01*
X58955057Y-43438629D01*
X59026485Y-43367200D01*
X58955057Y-43295771D01*
X58955057Y-43438629D01*
X60240771Y-44724343D02*
X60097914Y-44795771D01*
X59812200Y-44795771D01*
X59669343Y-44724343D01*
X59597914Y-44581486D01*
X59597914Y-44010057D01*
X59669343Y-43867200D01*
X59812200Y-43795771D01*
X60097914Y-43795771D01*
X60240771Y-43867200D01*
X60312200Y-44010057D01*
X60312200Y-44152914D01*
X59597914Y-44295771D01*
X61597914Y-44724343D02*
X61455057Y-44795771D01*
X61169343Y-44795771D01*
X61026485Y-44724343D01*
X60955057Y-44652914D01*
X60883628Y-44510057D01*
X60883628Y-44081486D01*
X60955057Y-43938629D01*
X61026485Y-43867200D01*
X61169343Y-43795771D01*
X61455057Y-43795771D01*
X61597914Y-43867200D01*
X62026485Y-43795771D02*
X62597914Y-43795771D01*
X62240771Y-43295771D02*
X62240771Y-44581486D01*
X62312199Y-44724343D01*
X62455057Y-44795771D01*
X62597914Y-44795771D01*
X63097914Y-44652914D02*
X63169342Y-44724343D01*
X63097914Y-44795771D01*
X63026485Y-44724343D01*
X63097914Y-44652914D01*
X63097914Y-44795771D01*
X63097914Y-43867200D02*
X63169342Y-43938629D01*
X63097914Y-44010057D01*
X63026485Y-43938629D01*
X63097914Y-43867200D01*
X63097914Y-44010057D01*
X64955057Y-44795771D02*
X64955057Y-43295771D01*
X66669343Y-44938629D02*
X66526486Y-44867200D01*
X66383629Y-44724343D01*
X66169343Y-44510057D01*
X66026486Y-44438629D01*
X65883629Y-44438629D01*
X65955057Y-44795771D02*
X65812200Y-44724343D01*
X65669343Y-44581486D01*
X65597914Y-44295771D01*
X65597914Y-43795771D01*
X65669343Y-43510057D01*
X65812200Y-43367200D01*
X65955057Y-43295771D01*
X66240771Y-43295771D01*
X66383629Y-43367200D01*
X66526486Y-43510057D01*
X66597914Y-43795771D01*
X66597914Y-44295771D01*
X66526486Y-44581486D01*
X66383629Y-44724343D01*
X66240771Y-44795771D01*
X65955057Y-44795771D01*
X68383629Y-44795771D02*
X68383629Y-43795771D01*
X68383629Y-43938629D02*
X68455057Y-43867200D01*
X68597915Y-43795771D01*
X68812200Y-43795771D01*
X68955057Y-43867200D01*
X69026486Y-44010057D01*
X69026486Y-44795771D01*
X69026486Y-44010057D02*
X69097915Y-43867200D01*
X69240772Y-43795771D01*
X69455057Y-43795771D01*
X69597915Y-43867200D01*
X69669343Y-44010057D01*
X69669343Y-44795771D01*
X70597915Y-44795771D02*
X70455057Y-44724343D01*
X70383629Y-44652914D01*
X70312200Y-44510057D01*
X70312200Y-44081486D01*
X70383629Y-43938629D01*
X70455057Y-43867200D01*
X70597915Y-43795771D01*
X70812200Y-43795771D01*
X70955057Y-43867200D01*
X71026486Y-43938629D01*
X71097915Y-44081486D01*
X71097915Y-44510057D01*
X71026486Y-44652914D01*
X70955057Y-44724343D01*
X70812200Y-44795771D01*
X70597915Y-44795771D01*
X72383629Y-44795771D02*
X72383629Y-43295771D01*
X72383629Y-44724343D02*
X72240772Y-44795771D01*
X71955058Y-44795771D01*
X71812200Y-44724343D01*
X71740772Y-44652914D01*
X71669343Y-44510057D01*
X71669343Y-44081486D01*
X71740772Y-43938629D01*
X71812200Y-43867200D01*
X71955058Y-43795771D01*
X72240772Y-43795771D01*
X72383629Y-43867200D01*
X73740772Y-43795771D02*
X73740772Y-44795771D01*
X73097915Y-43795771D02*
X73097915Y-44581486D01*
X73169343Y-44724343D01*
X73312201Y-44795771D01*
X73526486Y-44795771D01*
X73669343Y-44724343D01*
X73740772Y-44652914D01*
X74669344Y-44795771D02*
X74526486Y-44724343D01*
X74455058Y-44581486D01*
X74455058Y-43295771D01*
X75883629Y-44795771D02*
X75883629Y-44010057D01*
X75812200Y-43867200D01*
X75669343Y-43795771D01*
X75383629Y-43795771D01*
X75240772Y-43867200D01*
X75883629Y-44724343D02*
X75740772Y-44795771D01*
X75383629Y-44795771D01*
X75240772Y-44724343D01*
X75169343Y-44581486D01*
X75169343Y-44438629D01*
X75240772Y-44295771D01*
X75383629Y-44224343D01*
X75740772Y-44224343D01*
X75883629Y-44152914D01*
X76383629Y-43795771D02*
X76955058Y-43795771D01*
X76597915Y-43295771D02*
X76597915Y-44581486D01*
X76669343Y-44724343D01*
X76812201Y-44795771D01*
X76955058Y-44795771D01*
X77669344Y-44795771D02*
X77526486Y-44724343D01*
X77455058Y-44652914D01*
X77383629Y-44510057D01*
X77383629Y-44081486D01*
X77455058Y-43938629D01*
X77526486Y-43867200D01*
X77669344Y-43795771D01*
X77883629Y-43795771D01*
X78026486Y-43867200D01*
X78097915Y-43938629D01*
X78169344Y-44081486D01*
X78169344Y-44510057D01*
X78097915Y-44652914D01*
X78026486Y-44724343D01*
X77883629Y-44795771D01*
X77669344Y-44795771D01*
X78812201Y-44795771D02*
X78812201Y-43795771D01*
X78812201Y-44081486D02*
X78883629Y-43938629D01*
X78955058Y-43867200D01*
X79097915Y-43795771D01*
X79240772Y-43795771D01*
D10*
D11*
X55097914Y-53367200D02*
X55812200Y-53367200D01*
X54955057Y-53795771D02*
X55455057Y-52295771D01*
X55955057Y-53795771D01*
X57097914Y-52795771D02*
X57097914Y-53795771D01*
X56455057Y-52795771D02*
X56455057Y-53581486D01*
X56526485Y-53724343D01*
X56669343Y-53795771D01*
X56883628Y-53795771D01*
X57026485Y-53724343D01*
X57097914Y-53652914D01*
X57597914Y-52795771D02*
X58169343Y-52795771D01*
X57812200Y-52295771D02*
X57812200Y-53581486D01*
X57883628Y-53724343D01*
X58026486Y-53795771D01*
X58169343Y-53795771D01*
X58669343Y-53795771D02*
X58669343Y-52295771D01*
X59312200Y-53795771D02*
X59312200Y-53010057D01*
X59240771Y-52867200D01*
X59097914Y-52795771D01*
X58883629Y-52795771D01*
X58740771Y-52867200D01*
X58669343Y-52938629D01*
X60240772Y-53795771D02*
X60097914Y-53724343D01*
X60026486Y-53652914D01*
X59955057Y-53510057D01*
X59955057Y-53081486D01*
X60026486Y-52938629D01*
X60097914Y-52867200D01*
X60240772Y-52795771D01*
X60455057Y-52795771D01*
X60597914Y-52867200D01*
X60669343Y-52938629D01*
X60740772Y-53081486D01*
X60740772Y-53510057D01*
X60669343Y-53652914D01*
X60597914Y-53724343D01*
X60455057Y-53795771D01*
X60240772Y-53795771D01*
X61383629Y-53795771D02*
X61383629Y-52795771D01*
X61383629Y-53081486D02*
X61455057Y-52938629D01*
X61526486Y-52867200D01*
X61669343Y-52795771D01*
X61812200Y-52795771D01*
X62312200Y-53652914D02*
X62383628Y-53724343D01*
X62312200Y-53795771D01*
X62240771Y-53724343D01*
X62312200Y-53652914D01*
X62312200Y-53795771D01*
X62312200Y-52867200D02*
X62383628Y-52938629D01*
X62312200Y-53010057D01*
X62240771Y-52938629D01*
X62312200Y-52867200D01*
X62312200Y-53010057D01*
X64597914Y-52295771D02*
X64597914Y-53367200D01*
X64526486Y-53581486D01*
X64383629Y-53724343D01*
X64169343Y-53795771D01*
X64026486Y-53795771D01*
X65883628Y-53724343D02*
X65740771Y-53795771D01*
X65455057Y-53795771D01*
X65312200Y-53724343D01*
X65240771Y-53581486D01*
X65240771Y-53010057D01*
X65312200Y-52867200D01*
X65455057Y-52795771D01*
X65740771Y-52795771D01*
X65883628Y-52867200D01*
X65955057Y-53010057D01*
X65955057Y-53152914D01*
X65240771Y-53295771D01*
X67240771Y-53795771D02*
X67240771Y-53010057D01*
X67169342Y-52867200D01*
X67026485Y-52795771D01*
X66740771Y-52795771D01*
X66597914Y-52867200D01*
X67240771Y-53724343D02*
X67097914Y-53795771D01*
X66740771Y-53795771D01*
X66597914Y-53724343D01*
X66526485Y-53581486D01*
X66526485Y-53438629D01*
X66597914Y-53295771D01*
X66740771Y-53224343D01*
X67097914Y-53224343D01*
X67240771Y-53152914D01*
X67955057Y-52795771D02*
X67955057Y-53795771D01*
X67955057Y-52938629D02*
X68026485Y-52867200D01*
X68169343Y-52795771D01*
X68383628Y-52795771D01*
X68526485Y-52867200D01*
X68597914Y-53010057D01*
X68597914Y-53795771D01*
X69312200Y-53224343D02*
X70455057Y-53224343D01*
X71169343Y-53795771D02*
X71169343Y-52295771D01*
X71740771Y-52295771D01*
X71883629Y-52367200D01*
X71955057Y-52438629D01*
X72026486Y-52581486D01*
X72026486Y-52795771D01*
X71955057Y-52938629D01*
X71883629Y-53010057D01*
X71740771Y-53081486D01*
X71169343Y-53081486D01*
X73312200Y-53795771D02*
X73312200Y-53010057D01*
X73240771Y-52867200D01*
X73097914Y-52795771D01*
X72812200Y-52795771D01*
X72669343Y-52867200D01*
X73312200Y-53724343D02*
X73169343Y-53795771D01*
X72812200Y-53795771D01*
X72669343Y-53724343D01*
X72597914Y-53581486D01*
X72597914Y-53438629D01*
X72669343Y-53295771D01*
X72812200Y-53224343D01*
X73169343Y-53224343D01*
X73312200Y-53152914D01*
X74669343Y-52795771D02*
X74669343Y-53795771D01*
X74026486Y-52795771D02*
X74026486Y-53581486D01*
X74097914Y-53724343D01*
X74240772Y-53795771D01*
X74455057Y-53795771D01*
X74597914Y-53724343D01*
X74669343Y-53652914D01*
X75597915Y-53795771D02*
X75455057Y-53724343D01*
X75383629Y-53581486D01*
X75383629Y-52295771D01*
X77312200Y-53795771D02*
X77312200Y-52795771D01*
X77312200Y-53081486D02*
X77383628Y-52938629D01*
X77455057Y-52867200D01*
X77597914Y-52795771D01*
X77740771Y-52795771D01*
X78240771Y-53795771D02*
X78240771Y-52795771D01*
X78240771Y-52295771D02*
X78169342Y-52367200D01*
X78240771Y-52438629D01*
X78312199Y-52367200D01*
X78240771Y-52295771D01*
X78240771Y-52438629D01*
X79597914Y-53724343D02*
X79455057Y-53795771D01*
X79169343Y-53795771D01*
X79026485Y-53724343D01*
X78955057Y-53652914D01*
X78883628Y-53510057D01*
X78883628Y-53081486D01*
X78955057Y-52938629D01*
X79026485Y-52867200D01*
X79169343Y-52795771D01*
X79455057Y-52795771D01*
X79597914Y-52867200D01*
X80883628Y-53795771D02*
X80883628Y-53010057D01*
X80812199Y-52867200D01*
X80669342Y-52795771D01*
X80383628Y-52795771D01*
X80240771Y-52867200D01*
X80883628Y-53724343D02*
X80740771Y-53795771D01*
X80383628Y-53795771D01*
X80240771Y-53724343D01*
X80169342Y-53581486D01*
X80169342Y-53438629D01*
X80240771Y-53295771D01*
X80383628Y-53224343D01*
X80740771Y-53224343D01*
X80883628Y-53152914D01*
X82240771Y-52795771D02*
X82240771Y-53795771D01*
X81597914Y-52795771D02*
X81597914Y-53581486D01*
X81669342Y-53724343D01*
X81812200Y-53795771D01*
X82026485Y-53795771D01*
X82169342Y-53724343D01*
X82240771Y-53652914D01*
X83597914Y-53795771D02*
X83597914Y-52295771D01*
X83597914Y-53724343D02*
X83455057Y-53795771D01*
X83169343Y-53795771D01*
X83026485Y-53724343D01*
X82955057Y-53652914D01*
X82883628Y-53510057D01*
X82883628Y-53081486D01*
X82955057Y-52938629D01*
X83026485Y-52867200D01*
X83169343Y-52795771D01*
X83455057Y-52795771D01*
X83597914Y-52867200D01*
D10*
D11*
X73812200Y-55617200D02*
X73812200Y-58617200D01*
D10*
D11*
X137812200Y-55617200D02*
X137812200Y-62117200D01*
D10*
D11*
X123894629Y-43168771D02*
X123180343Y-43168771D01*
X123180343Y-41668771D01*
X124466057Y-41668771D02*
X124323200Y-41954486D01*
X125394629Y-41668771D02*
X125680343Y-41668771D01*
X125823201Y-41740200D01*
X125966058Y-41883057D01*
X126037486Y-42168771D01*
X126037486Y-42668771D01*
X125966058Y-42954486D01*
X125823201Y-43097343D01*
X125680343Y-43168771D01*
X125394629Y-43168771D01*
X125251772Y-43097343D01*
X125108915Y-42954486D01*
X125037486Y-42668771D01*
X125037486Y-42168771D01*
X125108915Y-41883057D01*
X125251772Y-41740200D01*
X125394629Y-41668771D01*
X126680344Y-43168771D02*
X126680344Y-42168771D01*
X126680344Y-42454486D02*
X126751772Y-42311629D01*
X126823201Y-42240200D01*
X126966058Y-42168771D01*
X127108915Y-42168771D01*
X127608915Y-43168771D02*
X127608915Y-42168771D01*
X127608915Y-42311629D02*
X127680343Y-42240200D01*
X127823201Y-42168771D01*
X128037486Y-42168771D01*
X128180343Y-42240200D01*
X128251772Y-42383057D01*
X128251772Y-43168771D01*
X128251772Y-42383057D02*
X128323201Y-42240200D01*
X128466058Y-42168771D01*
X128680343Y-42168771D01*
X128823201Y-42240200D01*
X128894629Y-42383057D01*
X128894629Y-43168771D01*
X130180343Y-43097343D02*
X130037486Y-43168771D01*
X129751772Y-43168771D01*
X129608915Y-43097343D01*
X129537486Y-42954486D01*
X129537486Y-42383057D01*
X129608915Y-42240200D01*
X129751772Y-42168771D01*
X130037486Y-42168771D01*
X130180343Y-42240200D01*
X130251772Y-42383057D01*
X130251772Y-42525914D01*
X129537486Y-42668771D01*
X132680343Y-43168771D02*
X132680343Y-41668771D01*
X132680343Y-43097343D02*
X132537486Y-43168771D01*
X132251772Y-43168771D01*
X132108914Y-43097343D01*
X132037486Y-43025914D01*
X131966057Y-42883057D01*
X131966057Y-42454486D01*
X132037486Y-42311629D01*
X132108914Y-42240200D01*
X132251772Y-42168771D01*
X132537486Y-42168771D01*
X132680343Y-42240200D01*
X133966057Y-43097343D02*
X133823200Y-43168771D01*
X133537486Y-43168771D01*
X133394629Y-43097343D01*
X133323200Y-42954486D01*
X133323200Y-42383057D01*
X133394629Y-42240200D01*
X133537486Y-42168771D01*
X133823200Y-42168771D01*
X133966057Y-42240200D01*
X134037486Y-42383057D01*
X134037486Y-42525914D01*
X133323200Y-42668771D01*
X134608914Y-43097343D02*
X134751771Y-43168771D01*
X135037486Y-43168771D01*
X135180343Y-43097343D01*
X135251771Y-42954486D01*
X135251771Y-42883057D01*
X135180343Y-42740200D01*
X135037486Y-42668771D01*
X134823200Y-42668771D01*
X134680343Y-42597343D01*
X134608914Y-42454486D01*
X134608914Y-42383057D01*
X134680343Y-42240200D01*
X134823200Y-42168771D01*
X135037486Y-42168771D01*
X135180343Y-42240200D01*
X137037486Y-43168771D02*
X137037486Y-41668771D01*
X137537486Y-42740200D01*
X138037486Y-41668771D01*
X138037486Y-43168771D01*
X139323200Y-43097343D02*
X139180343Y-43168771D01*
X138894629Y-43168771D01*
X138751772Y-43097343D01*
X138680343Y-42954486D01*
X138680343Y-42383057D01*
X138751772Y-42240200D01*
X138894629Y-42168771D01*
X139180343Y-42168771D01*
X139323200Y-42240200D01*
X139394629Y-42383057D01*
X139394629Y-42525914D01*
X138680343Y-42668771D01*
X140037486Y-43168771D02*
X140037486Y-42168771D01*
X140037486Y-42454486D02*
X140108914Y-42311629D01*
X140180343Y-42240200D01*
X140323200Y-42168771D01*
X140466057Y-42168771D01*
X140966057Y-43168771D02*
X140966057Y-42168771D01*
X140966057Y-41668771D02*
X140894628Y-41740200D01*
X140966057Y-41811629D01*
X141037485Y-41740200D01*
X140966057Y-41668771D01*
X140966057Y-41811629D01*
X141608914Y-43097343D02*
X141751771Y-43168771D01*
X142037486Y-43168771D01*
X142180343Y-43097343D01*
X142251771Y-42954486D01*
X142251771Y-42883057D01*
X142180343Y-42740200D01*
X142037486Y-42668771D01*
X141823200Y-42668771D01*
X141680343Y-42597343D01*
X141608914Y-42454486D01*
X141608914Y-42383057D01*
X141680343Y-42240200D01*
X141823200Y-42168771D01*
X142037486Y-42168771D01*
X142180343Y-42240200D01*
X142894629Y-43168771D02*
X142894629Y-42168771D01*
X142894629Y-41668771D02*
X142823200Y-41740200D01*
X142894629Y-41811629D01*
X142966057Y-41740200D01*
X142894629Y-41668771D01*
X142894629Y-41811629D01*
X144180343Y-43097343D02*
X144037486Y-43168771D01*
X143751772Y-43168771D01*
X143608915Y-43097343D01*
X143537486Y-42954486D01*
X143537486Y-42383057D01*
X143608915Y-42240200D01*
X143751772Y-42168771D01*
X144037486Y-42168771D01*
X144180343Y-42240200D01*
X144251772Y-42383057D01*
X144251772Y-42525914D01*
X143537486Y-42668771D01*
X144894629Y-43168771D02*
X144894629Y-42168771D01*
X144894629Y-42454486D02*
X144966057Y-42311629D01*
X145037486Y-42240200D01*
X145180343Y-42168771D01*
X145323200Y-42168771D01*
X145751771Y-43097343D02*
X145894628Y-43168771D01*
X146180343Y-43168771D01*
X146323200Y-43097343D01*
X146394628Y-42954486D01*
X146394628Y-42883057D01*
X146323200Y-42740200D01*
X146180343Y-42668771D01*
X145966057Y-42668771D01*
X145823200Y-42597343D01*
X145751771Y-42454486D01*
X145751771Y-42383057D01*
X145823200Y-42240200D01*
X145966057Y-42168771D01*
X146180343Y-42168771D01*
X146323200Y-42240200D01*
X123108914Y-45347343D02*
X123323200Y-45418771D01*
X123680343Y-45418771D01*
X123823200Y-45347343D01*
X123894629Y-45275914D01*
X123966057Y-45133057D01*
X123966057Y-44990200D01*
X123894629Y-44847343D01*
X123823200Y-44775914D01*
X123680343Y-44704486D01*
X123394629Y-44633057D01*
X123251771Y-44561629D01*
X123180343Y-44490200D01*
X123108914Y-44347343D01*
X123108914Y-44204486D01*
X123180343Y-44061629D01*
X123251771Y-43990200D01*
X123394629Y-43918771D01*
X123751771Y-43918771D01*
X123966057Y-43990200D01*
X125251771Y-45418771D02*
X125251771Y-44633057D01*
X125180342Y-44490200D01*
X125037485Y-44418771D01*
X124751771Y-44418771D01*
X124608914Y-44490200D01*
X125251771Y-45347343D02*
X125108914Y-45418771D01*
X124751771Y-45418771D01*
X124608914Y-45347343D01*
X124537485Y-45204486D01*
X124537485Y-45061629D01*
X124608914Y-44918771D01*
X124751771Y-44847343D01*
X125108914Y-44847343D01*
X125251771Y-44775914D01*
X125966057Y-45418771D02*
X125966057Y-44418771D01*
X125966057Y-43918771D02*
X125894628Y-43990200D01*
X125966057Y-44061629D01*
X126037485Y-43990200D01*
X125966057Y-43918771D01*
X125966057Y-44061629D01*
X126680343Y-44418771D02*
X126680343Y-45418771D01*
X126680343Y-44561629D02*
X126751771Y-44490200D01*
X126894629Y-44418771D01*
X127108914Y-44418771D01*
X127251771Y-44490200D01*
X127323200Y-44633057D01*
X127323200Y-45418771D01*
X127823200Y-44418771D02*
X128394629Y-44418771D01*
X128037486Y-43918771D02*
X128037486Y-45204486D01*
X128108914Y-45347343D01*
X128251772Y-45418771D01*
X128394629Y-45418771D01*
X128894629Y-44847343D02*
X130037486Y-44847343D01*
X130680343Y-44990200D02*
X131394629Y-44990200D01*
X130537486Y-45418771D02*
X131037486Y-43918771D01*
X131537486Y-45418771D01*
X132680343Y-44418771D02*
X132680343Y-45418771D01*
X132037486Y-44418771D02*
X132037486Y-45204486D01*
X132108914Y-45347343D01*
X132251772Y-45418771D01*
X132466057Y-45418771D01*
X132608914Y-45347343D01*
X132680343Y-45275914D01*
X133394629Y-45418771D02*
X133394629Y-43918771D01*
X133394629Y-44490200D02*
X133537486Y-44418771D01*
X133823200Y-44418771D01*
X133966057Y-44490200D01*
X134037486Y-44561629D01*
X134108915Y-44704486D01*
X134108915Y-45133057D01*
X134037486Y-45275914D01*
X133966057Y-45347343D01*
X133823200Y-45418771D01*
X133537486Y-45418771D01*
X133394629Y-45347343D01*
X134751772Y-45418771D02*
X134751772Y-44418771D01*
X134751772Y-43918771D02*
X134680343Y-43990200D01*
X134751772Y-44061629D01*
X134823200Y-43990200D01*
X134751772Y-43918771D01*
X134751772Y-44061629D01*
X135466058Y-44418771D02*
X135466058Y-45418771D01*
X135466058Y-44561629D02*
X135537486Y-44490200D01*
X135680344Y-44418771D01*
X135894629Y-44418771D01*
X136037486Y-44490200D01*
X136108915Y-44633057D01*
X136108915Y-45418771D01*
X137966058Y-44847343D02*
X139108915Y-44847343D01*
X141466058Y-44633057D02*
X141680344Y-44704486D01*
X141751772Y-44775914D01*
X141823201Y-44918771D01*
X141823201Y-45133057D01*
X141751772Y-45275914D01*
X141680344Y-45347343D01*
X141537486Y-45418771D01*
X140966058Y-45418771D01*
X140966058Y-43918771D01*
X141466058Y-43918771D01*
X141608915Y-43990200D01*
X141680344Y-44061629D01*
X141751772Y-44204486D01*
X141751772Y-44347343D01*
X141680344Y-44490200D01*
X141608915Y-44561629D01*
X141466058Y-44633057D01*
X140966058Y-44633057D01*
X142466058Y-45418771D02*
X142466058Y-43918771D01*
X143037486Y-43918771D01*
X143180344Y-43990200D01*
X143251772Y-44061629D01*
X143323201Y-44204486D01*
X143323201Y-44418771D01*
X143251772Y-44561629D01*
X143180344Y-44633057D01*
X143037486Y-44704486D01*
X142466058Y-44704486D01*
X145751772Y-44418771D02*
X145751772Y-45418771D01*
X145394629Y-43847343D02*
X145037486Y-44918771D01*
X145966058Y-44918771D01*
X146751772Y-44561629D02*
X146608914Y-44490200D01*
X146537486Y-44418771D01*
X146466057Y-44275914D01*
X146466057Y-44204486D01*
X146537486Y-44061629D01*
X146608914Y-43990200D01*
X146751772Y-43918771D01*
X147037486Y-43918771D01*
X147180343Y-43990200D01*
X147251772Y-44061629D01*
X147323200Y-44204486D01*
X147323200Y-44275914D01*
X147251772Y-44418771D01*
X147180343Y-44490200D01*
X147037486Y-44561629D01*
X146751772Y-44561629D01*
X146608914Y-44633057D01*
X146537486Y-44704486D01*
X146466057Y-44847343D01*
X146466057Y-45133057D01*
X146537486Y-45275914D01*
X146608914Y-45347343D01*
X146751772Y-45418771D01*
X147037486Y-45418771D01*
X147180343Y-45347343D01*
X147251772Y-45275914D01*
X147323200Y-45133057D01*
X147323200Y-44847343D01*
X147251772Y-44704486D01*
X147180343Y-44633057D01*
X147037486Y-44561629D01*
X123251771Y-47668771D02*
X123537486Y-47668771D01*
X123680343Y-47597343D01*
X123751771Y-47525914D01*
X123894629Y-47311629D01*
X123966057Y-47025914D01*
X123966057Y-46454486D01*
X123894629Y-46311629D01*
X123823200Y-46240200D01*
X123680343Y-46168771D01*
X123394629Y-46168771D01*
X123251771Y-46240200D01*
X123180343Y-46311629D01*
X123108914Y-46454486D01*
X123108914Y-46811629D01*
X123180343Y-46954486D01*
X123251771Y-47025914D01*
X123394629Y-47097343D01*
X123680343Y-47097343D01*
X123823200Y-47025914D01*
X123894629Y-46954486D01*
X123966057Y-46811629D01*
X125394628Y-47668771D02*
X124537485Y-47668771D01*
X124966057Y-47668771D02*
X124966057Y-46168771D01*
X124823200Y-46383057D01*
X124680342Y-46525914D01*
X124537485Y-46597343D01*
X126823199Y-47668771D02*
X125966056Y-47668771D01*
X126394628Y-47668771D02*
X126394628Y-46168771D01*
X126251771Y-46383057D01*
X126108913Y-46525914D01*
X125966056Y-46597343D01*
X127537484Y-47668771D02*
X127823199Y-47668771D01*
X127966056Y-47597343D01*
X128037484Y-47525914D01*
X128180342Y-47311629D01*
X128251770Y-47025914D01*
X128251770Y-46454486D01*
X128180342Y-46311629D01*
X128108913Y-46240200D01*
X127966056Y-46168771D01*
X127680342Y-46168771D01*
X127537484Y-46240200D01*
X127466056Y-46311629D01*
X127394627Y-46454486D01*
X127394627Y-46811629D01*
X127466056Y-46954486D01*
X127537484Y-47025914D01*
X127680342Y-47097343D01*
X127966056Y-47097343D01*
X128108913Y-47025914D01*
X128180342Y-46954486D01*
X128251770Y-46811629D01*
X128823198Y-46311629D02*
X128894627Y-46240200D01*
X129037484Y-46168771D01*
X129394627Y-46168771D01*
X129537484Y-46240200D01*
X129608913Y-46311629D01*
X129680341Y-46454486D01*
X129680341Y-46597343D01*
X129608913Y-46811629D01*
X128751770Y-47668771D01*
X129680341Y-47668771D01*
X132251769Y-46240200D02*
X132108912Y-46168771D01*
X131894626Y-46168771D01*
X131680341Y-46240200D01*
X131537483Y-46383057D01*
X131466055Y-46525914D01*
X131394626Y-46811629D01*
X131394626Y-47025914D01*
X131466055Y-47311629D01*
X131537483Y-47454486D01*
X131680341Y-47597343D01*
X131894626Y-47668771D01*
X132037483Y-47668771D01*
X132251769Y-47597343D01*
X132323198Y-47525914D01*
X132323198Y-47025914D01*
X132037483Y-47025914D01*
X132966055Y-47668771D02*
X132966055Y-46168771D01*
X134180341Y-46883057D02*
X133680341Y-46883057D01*
X133680341Y-47668771D02*
X133680341Y-46168771D01*
X134394627Y-46168771D01*
X134966055Y-47097343D02*
X136108912Y-47097343D01*
X136751769Y-47597343D02*
X136894626Y-47668771D01*
X137180341Y-47668771D01*
X137323198Y-47597343D01*
X137394626Y-47454486D01*
X137394626Y-47383057D01*
X137323198Y-47240200D01*
X137180341Y-47168771D01*
X136966055Y-47168771D01*
X136823198Y-47097343D01*
X136751769Y-46954486D01*
X136751769Y-46883057D01*
X136823198Y-46740200D01*
X136966055Y-46668771D01*
X137180341Y-46668771D01*
X137323198Y-46740200D01*
X138680341Y-46668771D02*
X138680341Y-47668771D01*
X138037484Y-46668771D02*
X138037484Y-47454486D01*
X138108912Y-47597343D01*
X138251770Y-47668771D01*
X138466055Y-47668771D01*
X138608912Y-47597343D01*
X138680341Y-47525914D01*
X139394627Y-47668771D02*
X139394627Y-46668771D01*
X139394627Y-46954486D02*
X139466055Y-46811629D01*
X139537484Y-46740200D01*
X139680341Y-46668771D01*
X139823198Y-46668771D01*
X140323198Y-47097343D02*
X141466055Y-47097343D01*
X142466055Y-46954486D02*
X142466055Y-47668771D01*
X141966055Y-46168771D02*
X142466055Y-46954486D01*
X142966055Y-46168771D01*
X143251769Y-46168771D02*
X143751769Y-47668771D01*
X144251769Y-46168771D01*
X144751769Y-46883057D02*
X145251769Y-46883057D01*
X145466055Y-47668771D02*
X144751769Y-47668771D01*
X144751769Y-46168771D01*
X145466055Y-46168771D01*
X145894626Y-46168771D02*
X146751769Y-46168771D01*
X146323198Y-47668771D02*
X146323198Y-46168771D01*
X147037483Y-46168771D02*
X147894626Y-46168771D01*
X147466055Y-47668771D02*
X147466055Y-46168771D01*
X148394626Y-46883057D02*
X148894626Y-46883057D01*
X149108912Y-47668771D02*
X148394626Y-47668771D01*
X148394626Y-46168771D01*
X149108912Y-46168771D01*
X151751769Y-47525914D02*
X151680340Y-47597343D01*
X151466054Y-47668771D01*
X151323197Y-47668771D01*
X151108912Y-47597343D01*
X150966054Y-47454486D01*
X150894626Y-47311629D01*
X150823197Y-47025914D01*
X150823197Y-46811629D01*
X150894626Y-46525914D01*
X150966054Y-46383057D01*
X151108912Y-46240200D01*
X151323197Y-46168771D01*
X151466054Y-46168771D01*
X151680340Y-46240200D01*
X151751769Y-46311629D01*
X152394626Y-46883057D02*
X152894626Y-46883057D01*
X153108912Y-47668771D02*
X152394626Y-47668771D01*
X152394626Y-46168771D01*
X153108912Y-46168771D01*
X153751769Y-47668771D02*
X153751769Y-46168771D01*
X154108912Y-46168771D01*
X154323197Y-46240200D01*
X154466055Y-46383057D01*
X154537483Y-46525914D01*
X154608912Y-46811629D01*
X154608912Y-47025914D01*
X154537483Y-47311629D01*
X154466055Y-47454486D01*
X154323197Y-47597343D01*
X154108912Y-47668771D01*
X153751769Y-47668771D01*
X155251769Y-46883057D02*
X155751769Y-46883057D01*
X155966055Y-47668771D02*
X155251769Y-47668771D01*
X155251769Y-46168771D01*
X155966055Y-46168771D01*
X156466055Y-46168771D02*
X157466055Y-47668771D01*
X157466055Y-46168771D02*
X156466055Y-47668771D01*
X123680343Y-49133057D02*
X123180343Y-49133057D01*
X123180343Y-49918771D02*
X123180343Y-48418771D01*
X123894629Y-48418771D01*
X124466057Y-49918771D02*
X124466057Y-48918771D01*
X124466057Y-49204486D02*
X124537485Y-49061629D01*
X124608914Y-48990200D01*
X124751771Y-48918771D01*
X124894628Y-48918771D01*
X126037485Y-49918771D02*
X126037485Y-49133057D01*
X125966056Y-48990200D01*
X125823199Y-48918771D01*
X125537485Y-48918771D01*
X125394628Y-48990200D01*
X126037485Y-49847343D02*
X125894628Y-49918771D01*
X125537485Y-49918771D01*
X125394628Y-49847343D01*
X125323199Y-49704486D01*
X125323199Y-49561629D01*
X125394628Y-49418771D01*
X125537485Y-49347343D01*
X125894628Y-49347343D01*
X126037485Y-49275914D01*
X126751771Y-48918771D02*
X126751771Y-49918771D01*
X126751771Y-49061629D02*
X126823199Y-48990200D01*
X126966057Y-48918771D01*
X127180342Y-48918771D01*
X127323199Y-48990200D01*
X127394628Y-49133057D01*
X127394628Y-49918771D01*
X128751771Y-49847343D02*
X128608914Y-49918771D01*
X128323200Y-49918771D01*
X128180342Y-49847343D01*
X128108914Y-49775914D01*
X128037485Y-49633057D01*
X128037485Y-49204486D01*
X128108914Y-49061629D01*
X128180342Y-48990200D01*
X128323200Y-48918771D01*
X128608914Y-48918771D01*
X128751771Y-48990200D01*
X129966056Y-49847343D02*
X129823199Y-49918771D01*
X129537485Y-49918771D01*
X129394628Y-49847343D01*
X129323199Y-49704486D01*
X129323199Y-49133057D01*
X129394628Y-48990200D01*
X129537485Y-48918771D01*
X129823199Y-48918771D01*
X129966056Y-48990200D01*
X130037485Y-49133057D01*
X130037485Y-49275914D01*
X129323199Y-49418771D01*
X123180343Y-54418771D02*
X123180343Y-52918771D01*
X123823200Y-54418771D02*
X123823200Y-53633057D01*
X123751771Y-53490200D01*
X123608914Y-53418771D01*
X123394629Y-53418771D01*
X123251771Y-53490200D01*
X123180343Y-53561629D01*
X124323200Y-53418771D02*
X124894629Y-53418771D01*
X124537486Y-52918771D02*
X124537486Y-54204486D01*
X124608914Y-54347343D01*
X124751772Y-54418771D01*
X124894629Y-54418771D01*
X125180343Y-53418771D02*
X125751772Y-53418771D01*
X125394629Y-52918771D02*
X125394629Y-54204486D01*
X125466057Y-54347343D01*
X125608915Y-54418771D01*
X125751772Y-54418771D01*
X126251772Y-53418771D02*
X126251772Y-54918771D01*
X126251772Y-53490200D02*
X126394629Y-53418771D01*
X126680343Y-53418771D01*
X126823200Y-53490200D01*
X126894629Y-53561629D01*
X126966058Y-53704486D01*
X126966058Y-54133057D01*
X126894629Y-54275914D01*
X126823200Y-54347343D01*
X126680343Y-54418771D01*
X126394629Y-54418771D01*
X126251772Y-54347343D01*
X127608915Y-54275914D02*
X127680343Y-54347343D01*
X127608915Y-54418771D01*
X127537486Y-54347343D01*
X127608915Y-54275914D01*
X127608915Y-54418771D01*
X127608915Y-53490200D02*
X127680343Y-53561629D01*
X127608915Y-53633057D01*
X127537486Y-53561629D01*
X127608915Y-53490200D01*
X127608915Y-53633057D01*
X129394629Y-52847343D02*
X128108915Y-54775914D01*
X130966058Y-52847343D02*
X129680344Y-54775914D01*
X131323202Y-53418771D02*
X131608916Y-54418771D01*
X131894630Y-53704486D01*
X132180345Y-54418771D01*
X132466059Y-53418771D01*
X132894631Y-53418771D02*
X133180345Y-54418771D01*
X133466059Y-53704486D01*
X133751774Y-54418771D01*
X134037488Y-53418771D01*
X134466060Y-53418771D02*
X134751774Y-54418771D01*
X135037488Y-53704486D01*
X135323203Y-54418771D01*
X135608917Y-53418771D01*
X136180346Y-54275914D02*
X136251774Y-54347343D01*
X136180346Y-54418771D01*
X136108917Y-54347343D01*
X136180346Y-54275914D01*
X136180346Y-54418771D01*
X136823203Y-54347343D02*
X136966060Y-54418771D01*
X137251775Y-54418771D01*
X137394632Y-54347343D01*
X137466060Y-54204486D01*
X137466060Y-54133057D01*
X137394632Y-53990200D01*
X137251775Y-53918771D01*
X137037489Y-53918771D01*
X136894632Y-53847343D01*
X136823203Y-53704486D01*
X136823203Y-53633057D01*
X136894632Y-53490200D01*
X137037489Y-53418771D01*
X137251775Y-53418771D01*
X137394632Y-53490200D01*
X137966061Y-53418771D02*
X138323204Y-54418771D01*
X138680346Y-53418771D02*
X138323204Y-54418771D01*
X138180346Y-54775914D01*
X138108918Y-54847343D01*
X137966061Y-54918771D01*
X139251775Y-53418771D02*
X139251775Y-54418771D01*
X139251775Y-53561629D02*
X139323203Y-53490200D01*
X139466061Y-53418771D01*
X139680346Y-53418771D01*
X139823203Y-53490200D01*
X139894632Y-53633057D01*
X139894632Y-54418771D01*
X141251775Y-54347343D02*
X141108918Y-54418771D01*
X140823204Y-54418771D01*
X140680346Y-54347343D01*
X140608918Y-54275914D01*
X140537489Y-54133057D01*
X140537489Y-53704486D01*
X140608918Y-53561629D01*
X140680346Y-53490200D01*
X140823204Y-53418771D01*
X141108918Y-53418771D01*
X141251775Y-53490200D01*
X141894632Y-54418771D02*
X141894632Y-52918771D01*
X142537489Y-54418771D02*
X142537489Y-53633057D01*
X142466060Y-53490200D01*
X142323203Y-53418771D01*
X142108918Y-53418771D01*
X141966060Y-53490200D01*
X141894632Y-53561629D01*
X143251775Y-54418771D02*
X143251775Y-53418771D01*
X143251775Y-53704486D02*
X143323203Y-53561629D01*
X143394632Y-53490200D01*
X143537489Y-53418771D01*
X143680346Y-53418771D01*
X144394632Y-54418771D02*
X144251774Y-54347343D01*
X144180346Y-54275914D01*
X144108917Y-54133057D01*
X144108917Y-53704486D01*
X144180346Y-53561629D01*
X144251774Y-53490200D01*
X144394632Y-53418771D01*
X144608917Y-53418771D01*
X144751774Y-53490200D01*
X144823203Y-53561629D01*
X144894632Y-53704486D01*
X144894632Y-54133057D01*
X144823203Y-54275914D01*
X144751774Y-54347343D01*
X144608917Y-54418771D01*
X144394632Y-54418771D01*
X145323203Y-53418771D02*
X145894632Y-53418771D01*
X145537489Y-52918771D02*
X145537489Y-54204486D01*
X145608917Y-54347343D01*
X145751775Y-54418771D01*
X145894632Y-54418771D01*
X146394632Y-54418771D02*
X146394632Y-53418771D01*
X146394632Y-53704486D02*
X146466060Y-53561629D01*
X146537489Y-53490200D01*
X146680346Y-53418771D01*
X146823203Y-53418771D01*
X147537489Y-54418771D02*
X147394631Y-54347343D01*
X147323203Y-54275914D01*
X147251774Y-54133057D01*
X147251774Y-53704486D01*
X147323203Y-53561629D01*
X147394631Y-53490200D01*
X147537489Y-53418771D01*
X147751774Y-53418771D01*
X147894631Y-53490200D01*
X147966060Y-53561629D01*
X148037489Y-53704486D01*
X148037489Y-54133057D01*
X147966060Y-54275914D01*
X147894631Y-54347343D01*
X147751774Y-54418771D01*
X147537489Y-54418771D01*
X148680346Y-53418771D02*
X148680346Y-54418771D01*
X148680346Y-53561629D02*
X148751774Y-53490200D01*
X148894632Y-53418771D01*
X149108917Y-53418771D01*
X149251774Y-53490200D01*
X149323203Y-53633057D01*
X149323203Y-54418771D01*
X150037489Y-53847343D02*
X151180346Y-53847343D01*
X151823203Y-54347343D02*
X151966060Y-54418771D01*
X152251775Y-54418771D01*
X152394632Y-54347343D01*
X152466060Y-54204486D01*
X152466060Y-54133057D01*
X152394632Y-53990200D01*
X152251775Y-53918771D01*
X152037489Y-53918771D01*
X151894632Y-53847343D01*
X151823203Y-53704486D01*
X151823203Y-53633057D01*
X151894632Y-53490200D01*
X152037489Y-53418771D01*
X152251775Y-53418771D01*
X152394632Y-53490200D01*
X153323204Y-54418771D02*
X153180346Y-54347343D01*
X153108918Y-54275914D01*
X153037489Y-54133057D01*
X153037489Y-53704486D01*
X153108918Y-53561629D01*
X153180346Y-53490200D01*
X153323204Y-53418771D01*
X153537489Y-53418771D01*
X153680346Y-53490200D01*
X153751775Y-53561629D01*
X153823204Y-53704486D01*
X153823204Y-54133057D01*
X153751775Y-54275914D01*
X153680346Y-54347343D01*
X153537489Y-54418771D01*
X153323204Y-54418771D01*
X154680347Y-54418771D02*
X154537489Y-54347343D01*
X154466061Y-54204486D01*
X154466061Y-52918771D01*
X155823203Y-54347343D02*
X155680346Y-54418771D01*
X155394632Y-54418771D01*
X155251775Y-54347343D01*
X155180346Y-54204486D01*
X155180346Y-53633057D01*
X155251775Y-53490200D01*
X155394632Y-53418771D01*
X155680346Y-53418771D01*
X155823203Y-53490200D01*
X155894632Y-53633057D01*
X155894632Y-53775914D01*
X155180346Y-53918771D01*
X156537489Y-54418771D02*
X156537489Y-53418771D01*
X156537489Y-52918771D02*
X156466060Y-52990200D01*
X156537489Y-53061629D01*
X156608917Y-52990200D01*
X156537489Y-52918771D01*
X156537489Y-53061629D01*
X157466061Y-54418771D02*
X157323203Y-54347343D01*
X157251775Y-54204486D01*
X157251775Y-52918771D01*
X158037489Y-54275914D02*
X158108917Y-54347343D01*
X158037489Y-54418771D01*
X157966060Y-54347343D01*
X158037489Y-54275914D01*
X158037489Y-54418771D01*
X158537489Y-53418771D02*
X159108918Y-53418771D01*
X158751775Y-54418771D02*
X158751775Y-53133057D01*
X158823203Y-52990200D01*
X158966061Y-52918771D01*
X159108918Y-52918771D01*
X159608918Y-54418771D02*
X159608918Y-53418771D01*
X159608918Y-53704486D02*
X159680346Y-53561629D01*
X159751775Y-53490200D01*
X159894632Y-53418771D01*
X160037489Y-53418771D01*
D10*
D11*
X120812200Y-55617200D02*
X120812200Y-30117200D01*
D10*
D11*
X54952857Y-39788571D02*
X55524286Y-39788571D01*
X55167143Y-40788571D02*
X55167143Y-39502857D01*
X55238571Y-39360000D01*
X55381429Y-39288571D01*
X55524286Y-39288571D01*
X56238572Y-40788571D02*
X56095714Y-40717143D01*
X56024286Y-40645714D01*
X55952857Y-40502857D01*
X55952857Y-40074286D01*
X56024286Y-39931429D01*
X56095714Y-39860000D01*
X56238572Y-39788571D01*
X56452857Y-39788571D01*
X56595714Y-39860000D01*
X56667143Y-39931429D01*
X56738572Y-40074286D01*
X56738572Y-40502857D01*
X56667143Y-40645714D01*
X56595714Y-40717143D01*
X56452857Y-40788571D01*
X56238572Y-40788571D01*
X57381429Y-40788571D02*
X57381429Y-39788571D01*
X57381429Y-40074286D02*
X57452857Y-39931429D01*
X57524286Y-39860000D01*
X57667143Y-39788571D01*
X57810000Y-39788571D01*
X59238571Y-39788571D02*
X59810000Y-39788571D01*
X59452857Y-39288571D02*
X59452857Y-40574286D01*
X59524285Y-40717143D01*
X59667143Y-40788571D01*
X59810000Y-40788571D01*
X60881428Y-40717143D02*
X60738571Y-40788571D01*
X60452857Y-40788571D01*
X60310000Y-40717143D01*
X60238571Y-40574286D01*
X60238571Y-40002857D01*
X60310000Y-39860000D01*
X60452857Y-39788571D01*
X60738571Y-39788571D01*
X60881428Y-39860000D01*
X60952857Y-40002857D01*
X60952857Y-40145714D01*
X60238571Y-40288571D01*
X61524285Y-40717143D02*
X61667142Y-40788571D01*
X61952857Y-40788571D01*
X62095714Y-40717143D01*
X62167142Y-40574286D01*
X62167142Y-40502857D01*
X62095714Y-40360000D01*
X61952857Y-40288571D01*
X61738571Y-40288571D01*
X61595714Y-40217143D01*
X61524285Y-40074286D01*
X61524285Y-40002857D01*
X61595714Y-39860000D01*
X61738571Y-39788571D01*
X61952857Y-39788571D01*
X62095714Y-39860000D01*
X62595714Y-39788571D02*
X63167143Y-39788571D01*
X62810000Y-39288571D02*
X62810000Y-40574286D01*
X62881428Y-40717143D01*
X63024286Y-40788571D01*
X63167143Y-40788571D01*
X63667143Y-40788571D02*
X63667143Y-39788571D01*
X63667143Y-39288571D02*
X63595714Y-39360000D01*
X63667143Y-39431429D01*
X63738571Y-39360000D01*
X63667143Y-39288571D01*
X63667143Y-39431429D01*
X64381429Y-39788571D02*
X64381429Y-40788571D01*
X64381429Y-39931429D02*
X64452857Y-39860000D01*
X64595715Y-39788571D01*
X64810000Y-39788571D01*
X64952857Y-39860000D01*
X65024286Y-40002857D01*
X65024286Y-40788571D01*
X66381429Y-39788571D02*
X66381429Y-41002857D01*
X66310000Y-41145714D01*
X66238572Y-41217143D01*
X66095715Y-41288571D01*
X65881429Y-41288571D01*
X65738572Y-41217143D01*
X66381429Y-40717143D02*
X66238572Y-40788571D01*
X65952858Y-40788571D01*
X65810000Y-40717143D01*
X65738572Y-40645714D01*
X65667143Y-40502857D01*
X65667143Y-40074286D01*
X65738572Y-39931429D01*
X65810000Y-39860000D01*
X65952858Y-39788571D01*
X66238572Y-39788571D01*
X66381429Y-39860000D01*
X68238572Y-39788571D02*
X68238572Y-41288571D01*
X68238572Y-39860000D02*
X68381429Y-39788571D01*
X68667143Y-39788571D01*
X68810000Y-39860000D01*
X68881429Y-39931429D01*
X68952858Y-40074286D01*
X68952858Y-40502857D01*
X68881429Y-40645714D01*
X68810000Y-40717143D01*
X68667143Y-40788571D01*
X68381429Y-40788571D01*
X68238572Y-40717143D01*
X70238572Y-39788571D02*
X70238572Y-40788571D01*
X69595715Y-39788571D02*
X69595715Y-40574286D01*
X69667143Y-40717143D01*
X69810001Y-40788571D01*
X70024286Y-40788571D01*
X70167143Y-40717143D01*
X70238572Y-40645714D01*
X70952858Y-40788571D02*
X70952858Y-39788571D01*
X70952858Y-40074286D02*
X71024286Y-39931429D01*
X71095715Y-39860000D01*
X71238572Y-39788571D01*
X71381429Y-39788571D01*
X71881429Y-39788571D02*
X71881429Y-41288571D01*
X71881429Y-39860000D02*
X72024286Y-39788571D01*
X72310000Y-39788571D01*
X72452857Y-39860000D01*
X72524286Y-39931429D01*
X72595715Y-40074286D01*
X72595715Y-40502857D01*
X72524286Y-40645714D01*
X72452857Y-40717143D01*
X72310000Y-40788571D01*
X72024286Y-40788571D01*
X71881429Y-40717143D01*
X73452858Y-40788571D02*
X73310000Y-40717143D01*
X73238572Y-40645714D01*
X73167143Y-40502857D01*
X73167143Y-40074286D01*
X73238572Y-39931429D01*
X73310000Y-39860000D01*
X73452858Y-39788571D01*
X73667143Y-39788571D01*
X73810000Y-39860000D01*
X73881429Y-39931429D01*
X73952858Y-40074286D01*
X73952858Y-40502857D01*
X73881429Y-40645714D01*
X73810000Y-40717143D01*
X73667143Y-40788571D01*
X73452858Y-40788571D01*
X74524286Y-40717143D02*
X74667143Y-40788571D01*
X74952858Y-40788571D01*
X75095715Y-40717143D01*
X75167143Y-40574286D01*
X75167143Y-40502857D01*
X75095715Y-40360000D01*
X74952858Y-40288571D01*
X74738572Y-40288571D01*
X74595715Y-40217143D01*
X74524286Y-40074286D01*
X74524286Y-40002857D01*
X74595715Y-39860000D01*
X74738572Y-39788571D01*
X74952858Y-39788571D01*
X75095715Y-39860000D01*
X76381429Y-40717143D02*
X76238572Y-40788571D01*
X75952858Y-40788571D01*
X75810001Y-40717143D01*
X75738572Y-40574286D01*
X75738572Y-40002857D01*
X75810001Y-39860000D01*
X75952858Y-39788571D01*
X76238572Y-39788571D01*
X76381429Y-39860000D01*
X76452858Y-40002857D01*
X76452858Y-40145714D01*
X75738572Y-40288571D01*
D12*
X60460001Y77021429D02*
X61388572Y77021429D01*
X60888572Y76450000D01*
X61102858Y76450000D01*
X61245715Y76378571D01*
X61317144Y76307143D01*
X61388572Y76164286D01*
X61388572Y75807143D01*
X61317144Y75664286D01*
X61245715Y75592857D01*
X61102858Y75521429D01*
X60674286Y75521429D01*
X60531429Y75592857D01*
X60460001Y75664286D01*
D14*
X18351500Y3556000D03*
D15*
X18351500Y19056000D03*
D16*
X55245000Y38544500D03*
D17*
X57785000Y41084500D03*
X52705000Y41084500D03*
X52705000Y36004500D03*
X57785000Y36004500D03*
D14*
X43497500Y3556000D03*
D15*
X43497500Y19056000D03*
D16*
X64897000Y61087000D03*
D17*
X67437000Y63627000D03*
X62357000Y63627000D03*
X62357000Y58547000D03*
X67437000Y58547000D03*
D14*
X30924500Y3556000D03*
D15*
X30924500Y19056000D03*
D16*
X18796000Y45275500D03*
D17*
X21336000Y47815500D03*
X16256000Y47815500D03*
X16256000Y42735500D03*
X21336000Y42735500D03*
D16*
X18796000Y69786500D03*
D17*
X21336000Y72326500D03*
X16256000Y72326500D03*
X16256000Y67246500D03*
X21336000Y67246500D03*
D18*
X0Y76200000D03*
X76200000Y76200000D03*
X0Y0D03*
X76200000Y0D03*
D19*
X32067500Y46672500D03*
X28028900Y55372000D03*
X28232100Y56438800D03*
X27749500Y58991500D03*
X16319500Y32893000D03*
X15748000Y27305000D03*
X68897500Y50927000D03*
X40728900Y48933100D03*
X24003000Y53238400D03*
X32664400Y66535300D03*
X39179500Y63119000D03*
X37846000Y64135000D03*
X47752000Y46672500D03*
X44005500Y46672500D03*
X41211500Y54991000D03*
X66294000Y46482000D03*
X65341500Y46482000D03*
X42100500Y71818500D03*
X20510500Y35179000D03*
X24130000Y27305000D03*
X49212500Y27305000D03*
X45656500Y35052000D03*
X70993000Y46799500D03*
X60769500Y46164500D03*
X23622000Y61087000D03*
X44069000Y63246000D03*
X57531000Y65278000D03*
X30289500Y62661800D03*
X35433000Y55626000D03*
X41529000Y32893000D03*
X41275000Y27305000D03*
X30474920Y58018680D03*
X35377120Y58049160D03*
D20*
G36*
X47879000Y47607390D02*
X47879000Y47607390D01*
X47566833Y47607662D01*
X47223057Y47465617D01*
X46959808Y47202827D01*
X46817162Y46859299D01*
X46816838Y46487333D01*
X46958883Y46143557D01*
X47221673Y45880308D01*
X47565201Y45737662D01*
X47879000Y45737389D01*
X47879000Y127000D01*
X34112200Y127000D01*
X34112200Y3429000D01*
X41521380Y3429000D01*
X41362630Y3270250D01*
X41362630Y1929821D01*
X41459303Y1696432D01*
X41637931Y1517803D01*
X41871320Y1421130D01*
X43211750Y1421130D01*
X43370500Y1579880D01*
X43370500Y3429000D01*
X43624500Y3429000D01*
X43624500Y1579880D01*
X43783250Y1421130D01*
X45123680Y1421130D01*
X45357069Y1517803D01*
X45535697Y1696432D01*
X45632370Y1929821D01*
X45632370Y3270250D01*
X45473620Y3429000D01*
X43624500Y3429000D01*
X43370500Y3429000D01*
X43370500Y3429000D01*
X41521380Y3429000D01*
X34112200Y3429000D01*
X34112200Y5690870D01*
X41871320Y5690870D01*
X41637931Y5594197D01*
X41459303Y5415568D01*
X41362630Y5182179D01*
X41362630Y3841750D01*
X41521380Y3683000D01*
X43370500Y3683000D01*
X43370500Y5532120D01*
X43211750Y5690870D01*
X43783250Y5690870D01*
X43624500Y5532120D01*
X43624500Y3683000D01*
X45473620Y3683000D01*
X45632370Y3841750D01*
X45632370Y5182179D01*
X45535697Y5415568D01*
X45357069Y5594197D01*
X45123680Y5690870D01*
X43783250Y5690870D01*
X43211750Y5690870D01*
X43211750Y5690870D01*
X41871320Y5690870D01*
X34112200Y5690870D01*
X34112200Y20390272D01*
X41983623Y20390272D01*
X41664868Y20230505D01*
X41354905Y19439783D01*
X41371133Y18590634D01*
X41664868Y17881495D01*
X41983623Y17721728D01*
X43138290Y18876395D01*
X43497500Y18876395D01*
X42163228Y17542123D01*
X42322995Y17223368D01*
X43113717Y16913405D01*
X43962866Y16929633D01*
X44672005Y17223368D01*
X44831772Y17542123D01*
X43497500Y18876395D01*
X43138290Y18876395D01*
X43317895Y19056000D01*
X41983623Y20390272D01*
X34112200Y20390272D01*
X34112200Y21198595D01*
X43881283Y21198595D01*
X43032134Y21182367D01*
X42322995Y20888632D01*
X42163228Y20569877D01*
X43497500Y19235605D01*
X44652167Y20390272D01*
X45011377Y20390272D01*
X43677105Y19056000D01*
X45011377Y17721728D01*
X45330132Y17881495D01*
X45640095Y18672217D01*
X45623867Y19521366D01*
X45330132Y20230505D01*
X45011377Y20390272D01*
X44652167Y20390272D01*
X44831772Y20569877D01*
X44672005Y20888632D01*
X43881283Y21198595D01*
X34112200Y21198595D01*
X34112200Y35987162D01*
X45471333Y35987162D01*
X45127557Y35845117D01*
X44864308Y35582327D01*
X44721662Y35238799D01*
X44721338Y34866833D01*
X44863383Y34523057D01*
X45126173Y34259808D01*
X45469701Y34117162D01*
X45841667Y34116838D01*
X46185443Y34258883D01*
X46448692Y34521673D01*
X46591338Y34865201D01*
X46591662Y35237167D01*
X46449617Y35580943D01*
X46186827Y35844192D01*
X45843299Y35986838D01*
X45471333Y35987162D01*
X34112200Y35987162D01*
X34112200Y47607662D01*
X43820333Y47607662D01*
X43476557Y47465617D01*
X43213308Y47202827D01*
X43070662Y46859299D01*
X43070338Y46487333D01*
X43212383Y46143557D01*
X43475173Y45880308D01*
X43818701Y45737662D01*
X44190667Y45737338D01*
X44534443Y45879383D01*
X44797692Y46142173D01*
X44940338Y46485701D01*
X44940662Y46857667D01*
X44798617Y47201443D01*
X44535827Y47464692D01*
X44192299Y47607338D01*
X43820333Y47607662D01*
X34112200Y47607662D01*
X34112200Y49868262D01*
X40543733Y49868262D01*
X40199957Y49726217D01*
X39936708Y49463427D01*
X39794062Y49119899D01*
X39793738Y48747933D01*
X39935783Y48404157D01*
X40198573Y48140908D01*
X40542101Y47998262D01*
X40914067Y47997938D01*
X41257843Y48139983D01*
X41521092Y48402773D01*
X41663738Y48746301D01*
X41664062Y49118267D01*
X41522017Y49462043D01*
X41259227Y49725292D01*
X40915699Y49867938D01*
X40543733Y49868262D01*
X34112200Y49868262D01*
X34112200Y55926162D01*
X41026333Y55926162D01*
X40682557Y55784117D01*
X40419308Y55521327D01*
X40276662Y55177799D01*
X40276338Y54805833D01*
X40418383Y54462057D01*
X40681173Y54198808D01*
X41024701Y54056162D01*
X41396667Y54055838D01*
X41740443Y54197883D01*
X42003692Y54460673D01*
X42146338Y54804201D01*
X42146662Y55176167D01*
X42004617Y55519943D01*
X41741827Y55783192D01*
X41398299Y55925838D01*
X41026333Y55926162D01*
X34112200Y55926162D01*
X34112200Y58984322D01*
X35191953Y58984322D01*
X34848177Y58842277D01*
X34584928Y58579487D01*
X34442282Y58235959D01*
X34441958Y57863993D01*
X34584003Y57520217D01*
X34846793Y57256968D01*
X35190321Y57114322D01*
X35562287Y57113998D01*
X35906063Y57256043D01*
X36169312Y57518833D01*
X36311958Y57862361D01*
X36312282Y58234327D01*
X36170237Y58578103D01*
X35907447Y58841352D01*
X35563919Y58983998D01*
X35191953Y58984322D01*
X34112200Y58984322D01*
X34112200Y59817000D01*
X34102533Y59865601D01*
X34075003Y59906803D01*
X34033801Y59934333D01*
X33985200Y59944000D01*
X29743400Y59944000D01*
X29743400Y65070162D01*
X37660833Y65070162D01*
X37317057Y64928117D01*
X37053808Y64665327D01*
X36911162Y64321799D01*
X36910838Y63949833D01*
X37052883Y63606057D01*
X37315673Y63342808D01*
X37659201Y63200162D01*
X38031167Y63199838D01*
X38244647Y63288046D01*
X38244338Y62933833D01*
X38386383Y62590057D01*
X38649173Y62326808D01*
X38992701Y62184162D01*
X39364667Y62183838D01*
X39708443Y62325883D01*
X39971692Y62588673D01*
X40114338Y62932201D01*
X40114662Y63304167D01*
X39972617Y63647943D01*
X39709827Y63911192D01*
X39366299Y64053838D01*
X38994333Y64054162D01*
X38780853Y63965954D01*
X38781040Y64181162D01*
X43883833Y64181162D01*
X43540057Y64039117D01*
X43276808Y63776327D01*
X43134162Y63432799D01*
X43133838Y63060833D01*
X43275883Y62717057D01*
X43538673Y62453808D01*
X43882201Y62311162D01*
X44254167Y62310838D01*
X44597943Y62452883D01*
X44861192Y62715673D01*
X45003838Y63059201D01*
X45004162Y63431167D01*
X44862117Y63774943D01*
X44599327Y64038192D01*
X44255799Y64180838D01*
X43883833Y64181162D01*
X38781040Y64181162D01*
X38781162Y64320167D01*
X38639117Y64663943D01*
X38376327Y64927192D01*
X38032799Y65069838D01*
X37660833Y65070162D01*
X29743400Y65070162D01*
X29743400Y65138300D01*
X47879000Y65138300D01*
X47879000Y47607390D01*
X47879000Y47607390D01*
G37*
X47879000Y47607390D02*
X47879000Y47607390D01*
X47566833Y47607662D01*
X47223057Y47465617D01*
X46959808Y47202827D01*
X46817162Y46859299D01*
X46816838Y46487333D01*
X46958883Y46143557D01*
X47221673Y45880308D01*
X47565201Y45737662D01*
X47879000Y45737389D01*
X47879000Y127000D01*
X34112200Y127000D01*
X34112200Y3429000D01*
X41521380Y3429000D01*
X41362630Y3270250D01*
X41362630Y1929821D01*
X41459303Y1696432D01*
X41637931Y1517803D01*
X41871320Y1421130D01*
X43211750Y1421130D01*
X43370500Y1579880D01*
X43370500Y3429000D01*
X43624500Y3429000D01*
X43624500Y1579880D01*
X43783250Y1421130D01*
X45123680Y1421130D01*
X45357069Y1517803D01*
X45535697Y1696432D01*
X45632370Y1929821D01*
X45632370Y3270250D01*
X45473620Y3429000D01*
X43624500Y3429000D01*
X43370500Y3429000D01*
X43370500Y3429000D01*
X41521380Y3429000D01*
X34112200Y3429000D01*
X34112200Y5690870D01*
X41871320Y5690870D01*
X41637931Y5594197D01*
X41459303Y5415568D01*
X41362630Y5182179D01*
X41362630Y3841750D01*
X41521380Y3683000D01*
X43370500Y3683000D01*
X43370500Y5532120D01*
X43211750Y5690870D01*
X43783250Y5690870D01*
X43624500Y5532120D01*
X43624500Y3683000D01*
X45473620Y3683000D01*
X45632370Y3841750D01*
X45632370Y5182179D01*
X45535697Y5415568D01*
X45357069Y5594197D01*
X45123680Y5690870D01*
X43783250Y5690870D01*
X43211750Y5690870D01*
X43211750Y5690870D01*
X41871320Y5690870D01*
X34112200Y5690870D01*
X34112200Y20390272D01*
X41983623Y20390272D01*
X41664868Y20230505D01*
X41354905Y19439783D01*
X41371133Y18590634D01*
X41664868Y17881495D01*
X41983623Y17721728D01*
X43138290Y18876395D01*
X43497500Y18876395D01*
X42163228Y17542123D01*
X42322995Y17223368D01*
X43113717Y16913405D01*
X43962866Y16929633D01*
X44672005Y17223368D01*
X44831772Y17542123D01*
X43497500Y18876395D01*
X43138290Y18876395D01*
X43317895Y19056000D01*
X41983623Y20390272D01*
X34112200Y20390272D01*
X34112200Y21198595D01*
X43881283Y21198595D01*
X43032134Y21182367D01*
X42322995Y20888632D01*
X42163228Y20569877D01*
X43497500Y19235605D01*
X44652167Y20390272D01*
X45011377Y20390272D01*
X43677105Y19056000D01*
X45011377Y17721728D01*
X45330132Y17881495D01*
X45640095Y18672217D01*
X45623867Y19521366D01*
X45330132Y20230505D01*
X45011377Y20390272D01*
X44652167Y20390272D01*
X44831772Y20569877D01*
X44672005Y20888632D01*
X43881283Y21198595D01*
X34112200Y21198595D01*
X34112200Y35987162D01*
X45471333Y35987162D01*
X45127557Y35845117D01*
X44864308Y35582327D01*
X44721662Y35238799D01*
X44721338Y34866833D01*
X44863383Y34523057D01*
X45126173Y34259808D01*
X45469701Y34117162D01*
X45841667Y34116838D01*
X46185443Y34258883D01*
X46448692Y34521673D01*
X46591338Y34865201D01*
X46591662Y35237167D01*
X46449617Y35580943D01*
X46186827Y35844192D01*
X45843299Y35986838D01*
X45471333Y35987162D01*
X34112200Y35987162D01*
X34112200Y47607662D01*
X43820333Y47607662D01*
X43476557Y47465617D01*
X43213308Y47202827D01*
X43070662Y46859299D01*
X43070338Y46487333D01*
X43212383Y46143557D01*
X43475173Y45880308D01*
X43818701Y45737662D01*
X44190667Y45737338D01*
X44534443Y45879383D01*
X44797692Y46142173D01*
X44940338Y46485701D01*
X44940662Y46857667D01*
X44798617Y47201443D01*
X44535827Y47464692D01*
X44192299Y47607338D01*
X43820333Y47607662D01*
X34112200Y47607662D01*
X34112200Y49868262D01*
X40543733Y49868262D01*
X40199957Y49726217D01*
X39936708Y49463427D01*
X39794062Y49119899D01*
X39793738Y48747933D01*
X39935783Y48404157D01*
X40198573Y48140908D01*
X40542101Y47998262D01*
X40914067Y47997938D01*
X41257843Y48139983D01*
X41521092Y48402773D01*
X41663738Y48746301D01*
X41664062Y49118267D01*
X41522017Y49462043D01*
X41259227Y49725292D01*
X40915699Y49867938D01*
X40543733Y49868262D01*
X34112200Y49868262D01*
X34112200Y55926162D01*
X41026333Y55926162D01*
X40682557Y55784117D01*
X40419308Y55521327D01*
X40276662Y55177799D01*
X40276338Y54805833D01*
X40418383Y54462057D01*
X40681173Y54198808D01*
X41024701Y54056162D01*
X41396667Y54055838D01*
X41740443Y54197883D01*
X42003692Y54460673D01*
X42146338Y54804201D01*
X42146662Y55176167D01*
X42004617Y55519943D01*
X41741827Y55783192D01*
X41398299Y55925838D01*
X41026333Y55926162D01*
X34112200Y55926162D01*
X34112200Y58984322D01*
X35191953Y58984322D01*
X34848177Y58842277D01*
X34584928Y58579487D01*
X34442282Y58235959D01*
X34441958Y57863993D01*
X34584003Y57520217D01*
X34846793Y57256968D01*
X35190321Y57114322D01*
X35562287Y57113998D01*
X35906063Y57256043D01*
X36169312Y57518833D01*
X36311958Y57862361D01*
X36312282Y58234327D01*
X36170237Y58578103D01*
X35907447Y58841352D01*
X35563919Y58983998D01*
X35191953Y58984322D01*
X34112200Y58984322D01*
X34112200Y59817000D01*
X34102533Y59865601D01*
X34075003Y59906803D01*
X34033801Y59934333D01*
X33985200Y59944000D01*
X29743400Y59944000D01*
X29743400Y65070162D01*
X37660833Y65070162D01*
X37317057Y64928117D01*
X37053808Y64665327D01*
X36911162Y64321799D01*
X36910838Y63949833D01*
X37052883Y63606057D01*
X37315673Y63342808D01*
X37659201Y63200162D01*
X38031167Y63199838D01*
X38244647Y63288046D01*
X38244338Y62933833D01*
X38386383Y62590057D01*
X38649173Y62326808D01*
X38992701Y62184162D01*
X39364667Y62183838D01*
X39708443Y62325883D01*
X39971692Y62588673D01*
X40114338Y62932201D01*
X40114662Y63304167D01*
X39972617Y63647943D01*
X39709827Y63911192D01*
X39366299Y64053838D01*
X38994333Y64054162D01*
X38780853Y63965954D01*
X38781040Y64181162D01*
X43883833Y64181162D01*
X43540057Y64039117D01*
X43276808Y63776327D01*
X43134162Y63432799D01*
X43133838Y63060833D01*
X43275883Y62717057D01*
X43538673Y62453808D01*
X43882201Y62311162D01*
X44254167Y62310838D01*
X44597943Y62452883D01*
X44861192Y62715673D01*
X45003838Y63059201D01*
X45004162Y63431167D01*
X44862117Y63774943D01*
X44599327Y64038192D01*
X44255799Y64180838D01*
X43883833Y64181162D01*
X38781040Y64181162D01*
X38781162Y64320167D01*
X38639117Y64663943D01*
X38376327Y64927192D01*
X38032799Y65069838D01*
X37660833Y65070162D01*
X29743400Y65070162D01*
X29743400Y65138300D01*
X47879000Y65138300D01*
X47879000Y47607390D01*
G36*
X-4724400Y80924400D02*
X-4724400Y80924400D01*
X80924400Y80924400D01*
X80924400Y-4724400D01*
X-4724400Y-4724400D01*
X-4724400Y3435945D01*
X-680335Y3435945D01*
X-1943427Y2914046D01*
X-2910649Y1948510D01*
X-3434752Y686331D01*
X-3435945Y-680335D01*
X-2914046Y-1943427D01*
X-1948510Y-2910649D01*
X-686331Y-3434752D01*
X680335Y-3435945D01*
X1943427Y-2914046D01*
X2910649Y-1948510D01*
X3434752Y-686331D01*
X3435945Y680335D01*
X2914046Y1943427D01*
X1948510Y2910649D01*
X700184Y3429000D01*
X16375380Y3429000D01*
X16216630Y3270250D01*
X16216630Y1929821D01*
X16313303Y1696432D01*
X16491931Y1517803D01*
X16725320Y1421130D01*
X18065750Y1421130D01*
X18224500Y1579880D01*
X18224500Y3429000D01*
X18478500Y3429000D01*
X18478500Y1579880D01*
X18637250Y1421130D01*
X19977680Y1421130D01*
X20211069Y1517803D01*
X20389697Y1696432D01*
X20486370Y1929821D01*
X20486370Y3270250D01*
X20327620Y3429000D01*
X18478500Y3429000D01*
X18224500Y3429000D01*
X18224500Y3429000D01*
X16375380Y3429000D01*
X700184Y3429000D01*
X686331Y3434752D01*
X-680335Y3435945D01*
X-4724400Y3435945D01*
X-4724400Y5690870D01*
X16725320Y5690870D01*
X16491931Y5594197D01*
X16313303Y5415568D01*
X16216630Y5182179D01*
X16216630Y3841750D01*
X16375380Y3683000D01*
X18224500Y3683000D01*
X18224500Y5532120D01*
X18065750Y5690870D01*
X18637250Y5690870D01*
X18478500Y5532120D01*
X18478500Y3683000D01*
X20327620Y3683000D01*
X20486370Y3841750D01*
X20486370Y5182179D01*
X20389697Y5415568D01*
X20211069Y5594197D01*
X19977680Y5690870D01*
X18637250Y5690870D01*
X18065750Y5690870D01*
X18065750Y5690870D01*
X16725320Y5690870D01*
X-4724400Y5690870D01*
X-4724400Y5703310D01*
X29424630Y5703310D01*
X29182507Y5656333D01*
X28969703Y5516543D01*
X28827253Y5305510D01*
X28777190Y5055870D01*
X28777190Y2056130D01*
X28824167Y1814007D01*
X28963957Y1601203D01*
X29174990Y1458753D01*
X29424630Y1408690D01*
X32424370Y1408690D01*
X32666493Y1455667D01*
X32879297Y1595457D01*
X33021747Y1806490D01*
X33071810Y2056130D01*
X33071810Y5055870D01*
X33024833Y5297993D01*
X32885043Y5510797D01*
X32674010Y5653247D01*
X32424370Y5703310D01*
X29424630Y5703310D01*
X-4724400Y5703310D01*
X-4724400Y20390272D01*
X16837623Y20390272D01*
X16518868Y20230505D01*
X16208905Y19439783D01*
X16225133Y18590634D01*
X16518868Y17881495D01*
X16837623Y17721728D01*
X17992290Y18876395D01*
X18351500Y18876395D01*
X17017228Y17542123D01*
X17176995Y17223368D01*
X17967717Y16913405D01*
X18816866Y16929633D01*
X19526005Y17223368D01*
X19685772Y17542123D01*
X18351500Y18876395D01*
X17992290Y18876395D01*
X18171895Y19056000D01*
X16837623Y20390272D01*
X-4724400Y20390272D01*
X-4724400Y21198595D01*
X18735283Y21198595D01*
X17886134Y21182367D01*
X17176995Y20888632D01*
X17017228Y20569877D01*
X18351500Y19235605D01*
X19506167Y20390272D01*
X19865377Y20390272D01*
X18531105Y19056000D01*
X19865377Y17721728D01*
X20184132Y17881495D01*
X20494095Y18672217D01*
X20477867Y19521366D01*
X20184132Y20230505D01*
X19865377Y20390272D01*
X19506167Y20390272D01*
X19685772Y20569877D01*
X19526005Y20888632D01*
X18754046Y21191240D01*
X30501711Y21191240D01*
X29716773Y20866910D01*
X29115700Y20266886D01*
X28790001Y19482515D01*
X28789260Y18633211D01*
X29113590Y17848273D01*
X29713614Y17247200D01*
X30497985Y16921501D01*
X31347289Y16920760D01*
X32132227Y17245090D01*
X32733300Y17845114D01*
X33058999Y18629485D01*
X33059740Y19478789D01*
X32735410Y20263727D01*
X32135386Y20864800D01*
X31351015Y21190499D01*
X30501711Y21191240D01*
X18754046Y21191240D01*
X18735283Y21198595D01*
X-4724400Y21198595D01*
X-4724400Y28240162D01*
X23944833Y28240162D01*
X23601057Y28098117D01*
X23337808Y27835327D01*
X23195162Y27491799D01*
X23194838Y27119833D01*
X23336883Y26776057D01*
X23599673Y26512808D01*
X23943201Y26370162D01*
X24315167Y26369838D01*
X24658943Y26511883D01*
X24922192Y26774673D01*
X25064838Y27118201D01*
X25065162Y27490167D01*
X24923117Y27833943D01*
X24660327Y28097192D01*
X24316799Y28239838D01*
X23944833Y28240162D01*
X-4724400Y28240162D01*
X-4724400Y36114162D01*
X20325333Y36114162D01*
X19981557Y35972117D01*
X19718308Y35709327D01*
X19575662Y35365799D01*
X19575338Y34993833D01*
X19717383Y34650057D01*
X19980173Y34386808D01*
X20323701Y34244162D01*
X20695667Y34243838D01*
X21039443Y34385883D01*
X21302692Y34648673D01*
X21445338Y34992201D01*
X21445662Y35364167D01*
X21303617Y35707943D01*
X21040827Y35971192D01*
X20697299Y36113838D01*
X20325333Y36114162D01*
X-4724400Y36114162D01*
X-4724400Y49750835D01*
X15872793Y49750835D01*
X15161342Y49456870D01*
X14616543Y48913021D01*
X14321337Y48202084D01*
X14320665Y47432293D01*
X14614630Y46720842D01*
X15158479Y46176043D01*
X15869416Y45880837D01*
X16639207Y45880165D01*
X17147354Y46090127D01*
X16961319Y45642105D01*
X16960682Y44912097D01*
X17147230Y44460616D01*
X16642584Y44670163D01*
X15872793Y44670835D01*
X15161342Y44376870D01*
X14616543Y43833021D01*
X14321337Y43122084D01*
X14320665Y42352293D01*
X14614630Y41640842D01*
X15158479Y41096043D01*
X15869416Y40800837D01*
X16639207Y40800165D01*
X17350658Y41094130D01*
X17895457Y41637979D01*
X18190663Y42348916D01*
X18191335Y43118707D01*
X17981373Y43626854D01*
X18429395Y43440819D01*
X19159403Y43440182D01*
X19610884Y43626730D01*
X19401337Y43122084D01*
X19400665Y42352293D01*
X19694630Y41640842D01*
X20238479Y41096043D01*
X20949416Y40800837D01*
X21719207Y40800165D01*
X22430658Y41094130D01*
X22975457Y41637979D01*
X23270663Y42348916D01*
X23271335Y43118707D01*
X22977370Y43830158D01*
X22433521Y44374957D01*
X21722584Y44670163D01*
X20952793Y44670835D01*
X20444646Y44460873D01*
X20630681Y44908895D01*
X20631318Y45638903D01*
X20444770Y46090384D01*
X20949416Y45880837D01*
X21719207Y45880165D01*
X22430658Y46174130D01*
X22975457Y46717979D01*
X23270663Y47428916D01*
X23271335Y48198707D01*
X22977370Y48910158D01*
X22433521Y49454957D01*
X21722584Y49750163D01*
X20952793Y49750835D01*
X20241342Y49456870D01*
X19696543Y48913021D01*
X19401337Y48202084D01*
X19400665Y47432293D01*
X19610627Y46924146D01*
X19162605Y47110181D01*
X18432597Y47110818D01*
X17981116Y46924270D01*
X18190663Y47428916D01*
X18191335Y48198707D01*
X17897370Y48910158D01*
X17353521Y49454957D01*
X16642584Y49750163D01*
X15872793Y49750835D01*
X-4724400Y49750835D01*
X-4724400Y54173562D01*
X23817833Y54173562D01*
X23474057Y54031517D01*
X23210808Y53768727D01*
X23068162Y53425199D01*
X23067838Y53053233D01*
X23209883Y52709457D01*
X23472673Y52446208D01*
X23816201Y52303562D01*
X24188167Y52303238D01*
X24531943Y52445283D01*
X24795192Y52708073D01*
X24937838Y53051601D01*
X24938162Y53423567D01*
X24796117Y53767343D01*
X24533327Y54030592D01*
X24189799Y54173238D01*
X23817833Y54173562D01*
X-4724400Y54173562D01*
X-4724400Y58953842D01*
X30289753Y58953842D01*
X29945977Y58811797D01*
X29682728Y58549007D01*
X29540082Y58205479D01*
X29539758Y57833513D01*
X29681803Y57489737D01*
X29944593Y57226488D01*
X30288121Y57083842D01*
X30660087Y57083518D01*
X31003863Y57225563D01*
X31267112Y57488353D01*
X31409758Y57831881D01*
X31410082Y58203847D01*
X31268037Y58547623D01*
X31005247Y58810872D01*
X30661719Y58953518D01*
X30289753Y58953842D01*
X-4724400Y58953842D01*
X-4724400Y62022162D01*
X23436833Y62022162D01*
X23093057Y61880117D01*
X22829808Y61617327D01*
X22687162Y61273799D01*
X22686838Y60901833D01*
X22828883Y60558057D01*
X23091673Y60294808D01*
X23435201Y60152162D01*
X23807167Y60151838D01*
X24150943Y60293883D01*
X24414192Y60556673D01*
X24556838Y60900201D01*
X24557162Y61272167D01*
X24415117Y61615943D01*
X24152327Y61879192D01*
X23808799Y62021838D01*
X23436833Y62022162D01*
X-4724400Y62022162D01*
X-4724400Y79635945D01*
X-680335Y79635945D01*
X-1943427Y79114046D01*
X-2910649Y78148510D01*
X-3434752Y76886331D01*
X-3435945Y75519665D01*
X-2914046Y74256573D01*
X-1948510Y73289351D01*
X-686331Y72765248D01*
X680335Y72764055D01*
X1943427Y73285954D01*
X2910649Y74251490D01*
X2914944Y74261835D01*
X15872793Y74261835D01*
X15161342Y73967870D01*
X14616543Y73424021D01*
X14321337Y72713084D01*
X14320665Y71943293D01*
X14614630Y71231842D01*
X15158479Y70687043D01*
X15869416Y70391837D01*
X16639207Y70391165D01*
X17147354Y70601127D01*
X16961319Y70153105D01*
X16960682Y69423097D01*
X17147230Y68971616D01*
X16642584Y69181163D01*
X15872793Y69181835D01*
X15161342Y68887870D01*
X14616543Y68344021D01*
X14321337Y67633084D01*
X14320665Y66863293D01*
X14614630Y66151842D01*
X15158479Y65607043D01*
X15869416Y65311837D01*
X16639207Y65311165D01*
X17350658Y65605130D01*
X17895457Y66148979D01*
X18190663Y66859916D01*
X18191335Y67629707D01*
X17981373Y68137854D01*
X18429395Y67951819D01*
X19159403Y67951182D01*
X19610884Y68137730D01*
X19401337Y67633084D01*
X19400665Y66863293D01*
X19694630Y66151842D01*
X20238479Y65607043D01*
X20949416Y65311837D01*
X21719207Y65311165D01*
X22430658Y65605130D01*
X22975457Y66148979D01*
X23270663Y66859916D01*
X23271195Y67470462D01*
X32479233Y67470462D01*
X32135457Y67328417D01*
X31872208Y67065627D01*
X31729562Y66722099D01*
X31729238Y66350133D01*
X31871283Y66006357D01*
X31977155Y65900300D01*
X29108400Y65900300D01*
X29059799Y65890633D01*
X29018597Y65863103D01*
X28991067Y65821901D01*
X28981400Y65773300D01*
X28981400Y59309000D01*
X28991067Y59260399D01*
X29018597Y59219197D01*
X29059799Y59191667D01*
X29108400Y59182000D01*
X33350200Y59182000D01*
X33350200Y-508000D01*
X33359867Y-556601D01*
X33387397Y-597803D01*
X33428599Y-625333D01*
X33477200Y-635000D01*
X48514000Y-635000D01*
X48562601Y-625333D01*
X48603803Y-597803D01*
X48631333Y-556601D01*
X48641000Y-508000D01*
X48641000Y3435945D01*
X75519665Y3435945D01*
X74256573Y2914046D01*
X73289351Y1948510D01*
X72765248Y686331D01*
X72764055Y-680335D01*
X73285954Y-1943427D01*
X74251490Y-2910649D01*
X75513669Y-3434752D01*
X76880335Y-3435945D01*
X78143427Y-2914046D01*
X79110649Y-1948510D01*
X79634752Y-686331D01*
X79635945Y680335D01*
X79114046Y1943427D01*
X78148510Y2910649D01*
X76886331Y3434752D01*
X75519665Y3435945D01*
X48641000Y3435945D01*
X48641000Y26554053D01*
X48682173Y26512808D01*
X49025701Y26370162D01*
X49397667Y26369838D01*
X49741443Y26511883D01*
X50004692Y26774673D01*
X50147338Y27118201D01*
X50147662Y27490167D01*
X50005617Y27833943D01*
X49742827Y28097192D01*
X49399299Y28239838D01*
X49027333Y28240162D01*
X48683557Y28098117D01*
X48641000Y28055634D01*
X48641000Y43019835D01*
X52321793Y43019835D01*
X51610342Y42725870D01*
X51065543Y42182021D01*
X50770337Y41471084D01*
X50769665Y40701293D01*
X51063630Y39989842D01*
X51607479Y39445043D01*
X52318416Y39149837D01*
X53088207Y39149165D01*
X53596354Y39359127D01*
X53410319Y38911105D01*
X53409682Y38181097D01*
X53596230Y37729616D01*
X53091584Y37939163D01*
X52321793Y37939835D01*
X51610342Y37645870D01*
X51065543Y37102021D01*
X50770337Y36391084D01*
X50769665Y35621293D01*
X51063630Y34909842D01*
X51607479Y34365043D01*
X52318416Y34069837D01*
X53088207Y34069165D01*
X53799658Y34363130D01*
X54344457Y34906979D01*
X54639663Y35617916D01*
X54640335Y36387707D01*
X54430373Y36895854D01*
X54878395Y36709819D01*
X55608403Y36709182D01*
X56059884Y36895730D01*
X55850337Y36391084D01*
X55849665Y35621293D01*
X56143630Y34909842D01*
X56687479Y34365043D01*
X57398416Y34069837D01*
X58168207Y34069165D01*
X58879658Y34363130D01*
X59424457Y34906979D01*
X59719663Y35617916D01*
X59720335Y36387707D01*
X59426370Y37099158D01*
X58882521Y37643957D01*
X58171584Y37939163D01*
X57401793Y37939835D01*
X56893646Y37729873D01*
X57079681Y38177895D01*
X57080318Y38907903D01*
X56893770Y39359384D01*
X57398416Y39149837D01*
X58168207Y39149165D01*
X58879658Y39443130D01*
X59424457Y39986979D01*
X59719663Y40697916D01*
X59720335Y41467707D01*
X59426370Y42179158D01*
X58882521Y42723957D01*
X58171584Y43019163D01*
X57401793Y43019835D01*
X56690342Y42725870D01*
X56145543Y42182021D01*
X55850337Y41471084D01*
X55849665Y40701293D01*
X56059627Y40193146D01*
X55611605Y40379181D01*
X54881597Y40379818D01*
X54430116Y40193270D01*
X54639663Y40697916D01*
X54640335Y41467707D01*
X54346370Y42179158D01*
X53802521Y42723957D01*
X53091584Y43019163D01*
X52321793Y43019835D01*
X48641000Y43019835D01*
X48641000Y46375311D01*
X48686838Y46485701D01*
X48687162Y46857667D01*
X48641000Y46969388D01*
X48641000Y47099662D01*
X60584333Y47099662D01*
X60240557Y46957617D01*
X59977308Y46694827D01*
X59834662Y46351299D01*
X59834338Y45979333D01*
X59976383Y45635557D01*
X60239173Y45372308D01*
X60582701Y45229662D01*
X60954667Y45229338D01*
X61298443Y45371383D01*
X61561692Y45634173D01*
X61704338Y45977701D01*
X61704662Y46349667D01*
X61562617Y46693443D01*
X61299827Y46956692D01*
X60956299Y47099338D01*
X60584333Y47099662D01*
X48641000Y47099662D01*
X48641000Y47417162D01*
X65156333Y47417162D01*
X64812557Y47275117D01*
X64549308Y47012327D01*
X64406662Y46668799D01*
X64406338Y46296833D01*
X64548383Y45953057D01*
X64811173Y45689808D01*
X65154701Y45547162D01*
X65526667Y45546838D01*
X65818043Y45667232D01*
X66107201Y45547162D01*
X66479167Y45546838D01*
X66822943Y45688883D01*
X67086192Y45951673D01*
X67228838Y46295201D01*
X67229162Y46667167D01*
X67087117Y47010943D01*
X66824327Y47274192D01*
X66480799Y47416838D01*
X66108833Y47417162D01*
X65817457Y47296768D01*
X65528299Y47416838D01*
X65156333Y47417162D01*
X48641000Y47417162D01*
X48641000Y47734662D01*
X70807833Y47734662D01*
X70464057Y47592617D01*
X70200808Y47329827D01*
X70058162Y46986299D01*
X70057838Y46614333D01*
X70199883Y46270557D01*
X70462673Y46007308D01*
X70806201Y45864662D01*
X71178167Y45864338D01*
X71521943Y46006383D01*
X71785192Y46269173D01*
X71927838Y46612701D01*
X71928162Y46984667D01*
X71786117Y47328443D01*
X71523327Y47591692D01*
X71179799Y47734338D01*
X70807833Y47734662D01*
X48641000Y47734662D01*
X48641000Y56896000D01*
X48653700Y65773118D01*
X48653681Y65773210D01*
X48653700Y65773300D01*
X48648859Y65797635D01*
X48644102Y65821733D01*
X48644051Y65821810D01*
X48644033Y65821901D01*
X48630132Y65842705D01*
X48616631Y65862974D01*
X48616555Y65863025D01*
X48616503Y65863103D01*
X48595756Y65876966D01*
X48575469Y65890563D01*
X48575378Y65890582D01*
X48575301Y65890633D01*
X48551047Y65895458D01*
X48526882Y65900300D01*
X48526790Y65900282D01*
X48526700Y65900300D01*
X33351736Y65900300D01*
X33456592Y66004973D01*
X33543040Y66213162D01*
X57345833Y66213162D01*
X57002057Y66071117D01*
X56738808Y65808327D01*
X56596162Y65464799D01*
X56595838Y65092833D01*
X56737883Y64749057D01*
X57000673Y64485808D01*
X57344201Y64343162D01*
X57716167Y64342838D01*
X58059943Y64484883D01*
X58323192Y64747673D01*
X58465838Y65091201D01*
X58466162Y65463167D01*
X58425187Y65562335D01*
X61973793Y65562335D01*
X61262342Y65268370D01*
X60717543Y64724521D01*
X60422337Y64013584D01*
X60421665Y63243793D01*
X60715630Y62532342D01*
X61259479Y61987543D01*
X61970416Y61692337D01*
X62740207Y61691665D01*
X63248354Y61901627D01*
X63062319Y61453605D01*
X63061682Y60723597D01*
X63248230Y60272116D01*
X62743584Y60481663D01*
X61973793Y60482335D01*
X61262342Y60188370D01*
X60717543Y59644521D01*
X60422337Y58933584D01*
X60421665Y58163793D01*
X60715630Y57452342D01*
X61259479Y56907543D01*
X61970416Y56612337D01*
X62740207Y56611665D01*
X63451658Y56905630D01*
X63996457Y57449479D01*
X64291663Y58160416D01*
X64292335Y58930207D01*
X64082373Y59438354D01*
X64530395Y59252319D01*
X65260403Y59251682D01*
X65711884Y59438230D01*
X65502337Y58933584D01*
X65501665Y58163793D01*
X65795630Y57452342D01*
X66339479Y56907543D01*
X67050416Y56612337D01*
X67820207Y56611665D01*
X68531658Y56905630D01*
X69076457Y57449479D01*
X69371663Y58160416D01*
X69372335Y58930207D01*
X69078370Y59641658D01*
X68534521Y60186457D01*
X67823584Y60481663D01*
X67053793Y60482335D01*
X66545646Y60272373D01*
X66731681Y60720395D01*
X66732318Y61450403D01*
X66545770Y61901884D01*
X67050416Y61692337D01*
X67820207Y61691665D01*
X68531658Y61985630D01*
X69076457Y62529479D01*
X69371663Y63240416D01*
X69372335Y64010207D01*
X69078370Y64721658D01*
X68534521Y65266457D01*
X67823584Y65561663D01*
X67053793Y65562335D01*
X66342342Y65268370D01*
X65797543Y64724521D01*
X65502337Y64013584D01*
X65501665Y63243793D01*
X65711627Y62735646D01*
X65263605Y62921681D01*
X64533597Y62922318D01*
X64082116Y62735770D01*
X64291663Y63240416D01*
X64292335Y64010207D01*
X63998370Y64721658D01*
X63454521Y65266457D01*
X62743584Y65561663D01*
X61973793Y65562335D01*
X58425187Y65562335D01*
X58324117Y65806943D01*
X58061327Y66070192D01*
X57717799Y66212838D01*
X57345833Y66213162D01*
X33543040Y66213162D01*
X33599238Y66348501D01*
X33599562Y66720467D01*
X33457517Y67064243D01*
X33194727Y67327492D01*
X32851199Y67470138D01*
X32479233Y67470462D01*
X23271195Y67470462D01*
X23271335Y67629707D01*
X22977370Y68341158D01*
X22433521Y68885957D01*
X21722584Y69181163D01*
X20952793Y69181835D01*
X20444646Y68971873D01*
X20630681Y69419895D01*
X20631318Y70149903D01*
X20444770Y70601384D01*
X20949416Y70391837D01*
X21719207Y70391165D01*
X22430658Y70685130D01*
X22975457Y71228979D01*
X23270663Y71939916D01*
X23271335Y72709707D01*
X23253174Y72753662D01*
X41915333Y72753662D01*
X41571557Y72611617D01*
X41308308Y72348827D01*
X41165662Y72005299D01*
X41165338Y71633333D01*
X41307383Y71289557D01*
X41570173Y71026308D01*
X41913701Y70883662D01*
X42285667Y70883338D01*
X42629443Y71025383D01*
X42892692Y71288173D01*
X43035338Y71631701D01*
X43035662Y72003667D01*
X42893617Y72347443D01*
X42630827Y72610692D01*
X42287299Y72753338D01*
X41915333Y72753662D01*
X23253174Y72753662D01*
X22977370Y73421158D01*
X22433521Y73965957D01*
X21722584Y74261163D01*
X20952793Y74261835D01*
X20241342Y73967870D01*
X19696543Y73424021D01*
X19401337Y72713084D01*
X19400665Y71943293D01*
X19610627Y71435146D01*
X19162605Y71621181D01*
X18432597Y71621818D01*
X17981116Y71435270D01*
X18190663Y71939916D01*
X18191335Y72709707D01*
X17897370Y73421158D01*
X17353521Y73965957D01*
X16642584Y74261163D01*
X15872793Y74261835D01*
X2914944Y74261835D01*
X3434752Y75513669D01*
X3435945Y76880335D01*
X2914046Y78143427D01*
X2722807Y78335000D01*
X59460715Y78335000D01*
X59460715Y74365000D01*
X62459286Y74365000D01*
X62459286Y78335000D01*
X59460715Y78335000D01*
X2722807Y78335000D01*
X1948510Y79110649D01*
X686331Y79634752D01*
X-680335Y79635945D01*
X75519665Y79635945D01*
X74256573Y79114046D01*
X73289351Y78148510D01*
X72765248Y76886331D01*
X72764055Y75519665D01*
X73285954Y74256573D01*
X74251490Y73289351D01*
X75513669Y72765248D01*
X76880335Y72764055D01*
X78143427Y73285954D01*
X79110649Y74251490D01*
X79634752Y75513669D01*
X79635945Y76880335D01*
X79114046Y78143427D01*
X78148510Y79110649D01*
X76886331Y79634752D01*
X75519665Y79635945D01*
X-680335Y79635945D01*
X-680335Y79635945D01*
X-4724400Y79635945D01*
X-4724400Y80924400D01*
X-4724400Y80924400D01*
G37*
X-4724400Y80924400D02*
X-4724400Y80924400D01*
X80924400Y80924400D01*
X80924400Y-4724400D01*
X-4724400Y-4724400D01*
X-4724400Y3435945D01*
X-680335Y3435945D01*
X-1943427Y2914046D01*
X-2910649Y1948510D01*
X-3434752Y686331D01*
X-3435945Y-680335D01*
X-2914046Y-1943427D01*
X-1948510Y-2910649D01*
X-686331Y-3434752D01*
X680335Y-3435945D01*
X1943427Y-2914046D01*
X2910649Y-1948510D01*
X3434752Y-686331D01*
X3435945Y680335D01*
X2914046Y1943427D01*
X1948510Y2910649D01*
X700184Y3429000D01*
X16375380Y3429000D01*
X16216630Y3270250D01*
X16216630Y1929821D01*
X16313303Y1696432D01*
X16491931Y1517803D01*
X16725320Y1421130D01*
X18065750Y1421130D01*
X18224500Y1579880D01*
X18224500Y3429000D01*
X18478500Y3429000D01*
X18478500Y1579880D01*
X18637250Y1421130D01*
X19977680Y1421130D01*
X20211069Y1517803D01*
X20389697Y1696432D01*
X20486370Y1929821D01*
X20486370Y3270250D01*
X20327620Y3429000D01*
X18478500Y3429000D01*
X18224500Y3429000D01*
X18224500Y3429000D01*
X16375380Y3429000D01*
X700184Y3429000D01*
X686331Y3434752D01*
X-680335Y3435945D01*
X-4724400Y3435945D01*
X-4724400Y5690870D01*
X16725320Y5690870D01*
X16491931Y5594197D01*
X16313303Y5415568D01*
X16216630Y5182179D01*
X16216630Y3841750D01*
X16375380Y3683000D01*
X18224500Y3683000D01*
X18224500Y5532120D01*
X18065750Y5690870D01*
X18637250Y5690870D01*
X18478500Y5532120D01*
X18478500Y3683000D01*
X20327620Y3683000D01*
X20486370Y3841750D01*
X20486370Y5182179D01*
X20389697Y5415568D01*
X20211069Y5594197D01*
X19977680Y5690870D01*
X18637250Y5690870D01*
X18065750Y5690870D01*
X18065750Y5690870D01*
X16725320Y5690870D01*
X-4724400Y5690870D01*
X-4724400Y5703310D01*
X29424630Y5703310D01*
X29182507Y5656333D01*
X28969703Y5516543D01*
X28827253Y5305510D01*
X28777190Y5055870D01*
X28777190Y2056130D01*
X28824167Y1814007D01*
X28963957Y1601203D01*
X29174990Y1458753D01*
X29424630Y1408690D01*
X32424370Y1408690D01*
X32666493Y1455667D01*
X32879297Y1595457D01*
X33021747Y1806490D01*
X33071810Y2056130D01*
X33071810Y5055870D01*
X33024833Y5297993D01*
X32885043Y5510797D01*
X32674010Y5653247D01*
X32424370Y5703310D01*
X29424630Y5703310D01*
X-4724400Y5703310D01*
X-4724400Y20390272D01*
X16837623Y20390272D01*
X16518868Y20230505D01*
X16208905Y19439783D01*
X16225133Y18590634D01*
X16518868Y17881495D01*
X16837623Y17721728D01*
X17992290Y18876395D01*
X18351500Y18876395D01*
X17017228Y17542123D01*
X17176995Y17223368D01*
X17967717Y16913405D01*
X18816866Y16929633D01*
X19526005Y17223368D01*
X19685772Y17542123D01*
X18351500Y18876395D01*
X17992290Y18876395D01*
X18171895Y19056000D01*
X16837623Y20390272D01*
X-4724400Y20390272D01*
X-4724400Y21198595D01*
X18735283Y21198595D01*
X17886134Y21182367D01*
X17176995Y20888632D01*
X17017228Y20569877D01*
X18351500Y19235605D01*
X19506167Y20390272D01*
X19865377Y20390272D01*
X18531105Y19056000D01*
X19865377Y17721728D01*
X20184132Y17881495D01*
X20494095Y18672217D01*
X20477867Y19521366D01*
X20184132Y20230505D01*
X19865377Y20390272D01*
X19506167Y20390272D01*
X19685772Y20569877D01*
X19526005Y20888632D01*
X18754046Y21191240D01*
X30501711Y21191240D01*
X29716773Y20866910D01*
X29115700Y20266886D01*
X28790001Y19482515D01*
X28789260Y18633211D01*
X29113590Y17848273D01*
X29713614Y17247200D01*
X30497985Y16921501D01*
X31347289Y16920760D01*
X32132227Y17245090D01*
X32733300Y17845114D01*
X33058999Y18629485D01*
X33059740Y19478789D01*
X32735410Y20263727D01*
X32135386Y20864800D01*
X31351015Y21190499D01*
X30501711Y21191240D01*
X18754046Y21191240D01*
X18735283Y21198595D01*
X-4724400Y21198595D01*
X-4724400Y28240162D01*
X23944833Y28240162D01*
X23601057Y28098117D01*
X23337808Y27835327D01*
X23195162Y27491799D01*
X23194838Y27119833D01*
X23336883Y26776057D01*
X23599673Y26512808D01*
X23943201Y26370162D01*
X24315167Y26369838D01*
X24658943Y26511883D01*
X24922192Y26774673D01*
X25064838Y27118201D01*
X25065162Y27490167D01*
X24923117Y27833943D01*
X24660327Y28097192D01*
X24316799Y28239838D01*
X23944833Y28240162D01*
X-4724400Y28240162D01*
X-4724400Y36114162D01*
X20325333Y36114162D01*
X19981557Y35972117D01*
X19718308Y35709327D01*
X19575662Y35365799D01*
X19575338Y34993833D01*
X19717383Y34650057D01*
X19980173Y34386808D01*
X20323701Y34244162D01*
X20695667Y34243838D01*
X21039443Y34385883D01*
X21302692Y34648673D01*
X21445338Y34992201D01*
X21445662Y35364167D01*
X21303617Y35707943D01*
X21040827Y35971192D01*
X20697299Y36113838D01*
X20325333Y36114162D01*
X-4724400Y36114162D01*
X-4724400Y49750835D01*
X15872793Y49750835D01*
X15161342Y49456870D01*
X14616543Y48913021D01*
X14321337Y48202084D01*
X14320665Y47432293D01*
X14614630Y46720842D01*
X15158479Y46176043D01*
X15869416Y45880837D01*
X16639207Y45880165D01*
X17147354Y46090127D01*
X16961319Y45642105D01*
X16960682Y44912097D01*
X17147230Y44460616D01*
X16642584Y44670163D01*
X15872793Y44670835D01*
X15161342Y44376870D01*
X14616543Y43833021D01*
X14321337Y43122084D01*
X14320665Y42352293D01*
X14614630Y41640842D01*
X15158479Y41096043D01*
X15869416Y40800837D01*
X16639207Y40800165D01*
X17350658Y41094130D01*
X17895457Y41637979D01*
X18190663Y42348916D01*
X18191335Y43118707D01*
X17981373Y43626854D01*
X18429395Y43440819D01*
X19159403Y43440182D01*
X19610884Y43626730D01*
X19401337Y43122084D01*
X19400665Y42352293D01*
X19694630Y41640842D01*
X20238479Y41096043D01*
X20949416Y40800837D01*
X21719207Y40800165D01*
X22430658Y41094130D01*
X22975457Y41637979D01*
X23270663Y42348916D01*
X23271335Y43118707D01*
X22977370Y43830158D01*
X22433521Y44374957D01*
X21722584Y44670163D01*
X20952793Y44670835D01*
X20444646Y44460873D01*
X20630681Y44908895D01*
X20631318Y45638903D01*
X20444770Y46090384D01*
X20949416Y45880837D01*
X21719207Y45880165D01*
X22430658Y46174130D01*
X22975457Y46717979D01*
X23270663Y47428916D01*
X23271335Y48198707D01*
X22977370Y48910158D01*
X22433521Y49454957D01*
X21722584Y49750163D01*
X20952793Y49750835D01*
X20241342Y49456870D01*
X19696543Y48913021D01*
X19401337Y48202084D01*
X19400665Y47432293D01*
X19610627Y46924146D01*
X19162605Y47110181D01*
X18432597Y47110818D01*
X17981116Y46924270D01*
X18190663Y47428916D01*
X18191335Y48198707D01*
X17897370Y48910158D01*
X17353521Y49454957D01*
X16642584Y49750163D01*
X15872793Y49750835D01*
X-4724400Y49750835D01*
X-4724400Y54173562D01*
X23817833Y54173562D01*
X23474057Y54031517D01*
X23210808Y53768727D01*
X23068162Y53425199D01*
X23067838Y53053233D01*
X23209883Y52709457D01*
X23472673Y52446208D01*
X23816201Y52303562D01*
X24188167Y52303238D01*
X24531943Y52445283D01*
X24795192Y52708073D01*
X24937838Y53051601D01*
X24938162Y53423567D01*
X24796117Y53767343D01*
X24533327Y54030592D01*
X24189799Y54173238D01*
X23817833Y54173562D01*
X-4724400Y54173562D01*
X-4724400Y58953842D01*
X30289753Y58953842D01*
X29945977Y58811797D01*
X29682728Y58549007D01*
X29540082Y58205479D01*
X29539758Y57833513D01*
X29681803Y57489737D01*
X29944593Y57226488D01*
X30288121Y57083842D01*
X30660087Y57083518D01*
X31003863Y57225563D01*
X31267112Y57488353D01*
X31409758Y57831881D01*
X31410082Y58203847D01*
X31268037Y58547623D01*
X31005247Y58810872D01*
X30661719Y58953518D01*
X30289753Y58953842D01*
X-4724400Y58953842D01*
X-4724400Y62022162D01*
X23436833Y62022162D01*
X23093057Y61880117D01*
X22829808Y61617327D01*
X22687162Y61273799D01*
X22686838Y60901833D01*
X22828883Y60558057D01*
X23091673Y60294808D01*
X23435201Y60152162D01*
X23807167Y60151838D01*
X24150943Y60293883D01*
X24414192Y60556673D01*
X24556838Y60900201D01*
X24557162Y61272167D01*
X24415117Y61615943D01*
X24152327Y61879192D01*
X23808799Y62021838D01*
X23436833Y62022162D01*
X-4724400Y62022162D01*
X-4724400Y79635945D01*
X-680335Y79635945D01*
X-1943427Y79114046D01*
X-2910649Y78148510D01*
X-3434752Y76886331D01*
X-3435945Y75519665D01*
X-2914046Y74256573D01*
X-1948510Y73289351D01*
X-686331Y72765248D01*
X680335Y72764055D01*
X1943427Y73285954D01*
X2910649Y74251490D01*
X2914944Y74261835D01*
X15872793Y74261835D01*
X15161342Y73967870D01*
X14616543Y73424021D01*
X14321337Y72713084D01*
X14320665Y71943293D01*
X14614630Y71231842D01*
X15158479Y70687043D01*
X15869416Y70391837D01*
X16639207Y70391165D01*
X17147354Y70601127D01*
X16961319Y70153105D01*
X16960682Y69423097D01*
X17147230Y68971616D01*
X16642584Y69181163D01*
X15872793Y69181835D01*
X15161342Y68887870D01*
X14616543Y68344021D01*
X14321337Y67633084D01*
X14320665Y66863293D01*
X14614630Y66151842D01*
X15158479Y65607043D01*
X15869416Y65311837D01*
X16639207Y65311165D01*
X17350658Y65605130D01*
X17895457Y66148979D01*
X18190663Y66859916D01*
X18191335Y67629707D01*
X17981373Y68137854D01*
X18429395Y67951819D01*
X19159403Y67951182D01*
X19610884Y68137730D01*
X19401337Y67633084D01*
X19400665Y66863293D01*
X19694630Y66151842D01*
X20238479Y65607043D01*
X20949416Y65311837D01*
X21719207Y65311165D01*
X22430658Y65605130D01*
X22975457Y66148979D01*
X23270663Y66859916D01*
X23271195Y67470462D01*
X32479233Y67470462D01*
X32135457Y67328417D01*
X31872208Y67065627D01*
X31729562Y66722099D01*
X31729238Y66350133D01*
X31871283Y66006357D01*
X31977155Y65900300D01*
X29108400Y65900300D01*
X29059799Y65890633D01*
X29018597Y65863103D01*
X28991067Y65821901D01*
X28981400Y65773300D01*
X28981400Y59309000D01*
X28991067Y59260399D01*
X29018597Y59219197D01*
X29059799Y59191667D01*
X29108400Y59182000D01*
X33350200Y59182000D01*
X33350200Y-508000D01*
X33359867Y-556601D01*
X33387397Y-597803D01*
X33428599Y-625333D01*
X33477200Y-635000D01*
X48514000Y-635000D01*
X48562601Y-625333D01*
X48603803Y-597803D01*
X48631333Y-556601D01*
X48641000Y-508000D01*
X48641000Y3435945D01*
X75519665Y3435945D01*
X74256573Y2914046D01*
X73289351Y1948510D01*
X72765248Y686331D01*
X72764055Y-680335D01*
X73285954Y-1943427D01*
X74251490Y-2910649D01*
X75513669Y-3434752D01*
X76880335Y-3435945D01*
X78143427Y-2914046D01*
X79110649Y-1948510D01*
X79634752Y-686331D01*
X79635945Y680335D01*
X79114046Y1943427D01*
X78148510Y2910649D01*
X76886331Y3434752D01*
X75519665Y3435945D01*
X48641000Y3435945D01*
X48641000Y26554053D01*
X48682173Y26512808D01*
X49025701Y26370162D01*
X49397667Y26369838D01*
X49741443Y26511883D01*
X50004692Y26774673D01*
X50147338Y27118201D01*
X50147662Y27490167D01*
X50005617Y27833943D01*
X49742827Y28097192D01*
X49399299Y28239838D01*
X49027333Y28240162D01*
X48683557Y28098117D01*
X48641000Y28055634D01*
X48641000Y43019835D01*
X52321793Y43019835D01*
X51610342Y42725870D01*
X51065543Y42182021D01*
X50770337Y41471084D01*
X50769665Y40701293D01*
X51063630Y39989842D01*
X51607479Y39445043D01*
X52318416Y39149837D01*
X53088207Y39149165D01*
X53596354Y39359127D01*
X53410319Y38911105D01*
X53409682Y38181097D01*
X53596230Y37729616D01*
X53091584Y37939163D01*
X52321793Y37939835D01*
X51610342Y37645870D01*
X51065543Y37102021D01*
X50770337Y36391084D01*
X50769665Y35621293D01*
X51063630Y34909842D01*
X51607479Y34365043D01*
X52318416Y34069837D01*
X53088207Y34069165D01*
X53799658Y34363130D01*
X54344457Y34906979D01*
X54639663Y35617916D01*
X54640335Y36387707D01*
X54430373Y36895854D01*
X54878395Y36709819D01*
X55608403Y36709182D01*
X56059884Y36895730D01*
X55850337Y36391084D01*
X55849665Y35621293D01*
X56143630Y34909842D01*
X56687479Y34365043D01*
X57398416Y34069837D01*
X58168207Y34069165D01*
X58879658Y34363130D01*
X59424457Y34906979D01*
X59719663Y35617916D01*
X59720335Y36387707D01*
X59426370Y37099158D01*
X58882521Y37643957D01*
X58171584Y37939163D01*
X57401793Y37939835D01*
X56893646Y37729873D01*
X57079681Y38177895D01*
X57080318Y38907903D01*
X56893770Y39359384D01*
X57398416Y39149837D01*
X58168207Y39149165D01*
X58879658Y39443130D01*
X59424457Y39986979D01*
X59719663Y40697916D01*
X59720335Y41467707D01*
X59426370Y42179158D01*
X58882521Y42723957D01*
X58171584Y43019163D01*
X57401793Y43019835D01*
X56690342Y42725870D01*
X56145543Y42182021D01*
X55850337Y41471084D01*
X55849665Y40701293D01*
X56059627Y40193146D01*
X55611605Y40379181D01*
X54881597Y40379818D01*
X54430116Y40193270D01*
X54639663Y40697916D01*
X54640335Y41467707D01*
X54346370Y42179158D01*
X53802521Y42723957D01*
X53091584Y43019163D01*
X52321793Y43019835D01*
X48641000Y43019835D01*
X48641000Y46375311D01*
X48686838Y46485701D01*
X48687162Y46857667D01*
X48641000Y46969388D01*
X48641000Y47099662D01*
X60584333Y47099662D01*
X60240557Y46957617D01*
X59977308Y46694827D01*
X59834662Y46351299D01*
X59834338Y45979333D01*
X59976383Y45635557D01*
X60239173Y45372308D01*
X60582701Y45229662D01*
X60954667Y45229338D01*
X61298443Y45371383D01*
X61561692Y45634173D01*
X61704338Y45977701D01*
X61704662Y46349667D01*
X61562617Y46693443D01*
X61299827Y46956692D01*
X60956299Y47099338D01*
X60584333Y47099662D01*
X48641000Y47099662D01*
X48641000Y47417162D01*
X65156333Y47417162D01*
X64812557Y47275117D01*
X64549308Y47012327D01*
X64406662Y46668799D01*
X64406338Y46296833D01*
X64548383Y45953057D01*
X64811173Y45689808D01*
X65154701Y45547162D01*
X65526667Y45546838D01*
X65818043Y45667232D01*
X66107201Y45547162D01*
X66479167Y45546838D01*
X66822943Y45688883D01*
X67086192Y45951673D01*
X67228838Y46295201D01*
X67229162Y46667167D01*
X67087117Y47010943D01*
X66824327Y47274192D01*
X66480799Y47416838D01*
X66108833Y47417162D01*
X65817457Y47296768D01*
X65528299Y47416838D01*
X65156333Y47417162D01*
X48641000Y47417162D01*
X48641000Y47734662D01*
X70807833Y47734662D01*
X70464057Y47592617D01*
X70200808Y47329827D01*
X70058162Y46986299D01*
X70057838Y46614333D01*
X70199883Y46270557D01*
X70462673Y46007308D01*
X70806201Y45864662D01*
X71178167Y45864338D01*
X71521943Y46006383D01*
X71785192Y46269173D01*
X71927838Y46612701D01*
X71928162Y46984667D01*
X71786117Y47328443D01*
X71523327Y47591692D01*
X71179799Y47734338D01*
X70807833Y47734662D01*
X48641000Y47734662D01*
X48641000Y56896000D01*
X48653700Y65773118D01*
X48653681Y65773210D01*
X48653700Y65773300D01*
X48648859Y65797635D01*
X48644102Y65821733D01*
X48644051Y65821810D01*
X48644033Y65821901D01*
X48630132Y65842705D01*
X48616631Y65862974D01*
X48616555Y65863025D01*
X48616503Y65863103D01*
X48595756Y65876966D01*
X48575469Y65890563D01*
X48575378Y65890582D01*
X48575301Y65890633D01*
X48551047Y65895458D01*
X48526882Y65900300D01*
X48526790Y65900282D01*
X48526700Y65900300D01*
X33351736Y65900300D01*
X33456592Y66004973D01*
X33543040Y66213162D01*
X57345833Y66213162D01*
X57002057Y66071117D01*
X56738808Y65808327D01*
X56596162Y65464799D01*
X56595838Y65092833D01*
X56737883Y64749057D01*
X57000673Y64485808D01*
X57344201Y64343162D01*
X57716167Y64342838D01*
X58059943Y64484883D01*
X58323192Y64747673D01*
X58465838Y65091201D01*
X58466162Y65463167D01*
X58425187Y65562335D01*
X61973793Y65562335D01*
X61262342Y65268370D01*
X60717543Y64724521D01*
X60422337Y64013584D01*
X60421665Y63243793D01*
X60715630Y62532342D01*
X61259479Y61987543D01*
X61970416Y61692337D01*
X62740207Y61691665D01*
X63248354Y61901627D01*
X63062319Y61453605D01*
X63061682Y60723597D01*
X63248230Y60272116D01*
X62743584Y60481663D01*
X61973793Y60482335D01*
X61262342Y60188370D01*
X60717543Y59644521D01*
X60422337Y58933584D01*
X60421665Y58163793D01*
X60715630Y57452342D01*
X61259479Y56907543D01*
X61970416Y56612337D01*
X62740207Y56611665D01*
X63451658Y56905630D01*
X63996457Y57449479D01*
X64291663Y58160416D01*
X64292335Y58930207D01*
X64082373Y59438354D01*
X64530395Y59252319D01*
X65260403Y59251682D01*
X65711884Y59438230D01*
X65502337Y58933584D01*
X65501665Y58163793D01*
X65795630Y57452342D01*
X66339479Y56907543D01*
X67050416Y56612337D01*
X67820207Y56611665D01*
X68531658Y56905630D01*
X69076457Y57449479D01*
X69371663Y58160416D01*
X69372335Y58930207D01*
X69078370Y59641658D01*
X68534521Y60186457D01*
X67823584Y60481663D01*
X67053793Y60482335D01*
X66545646Y60272373D01*
X66731681Y60720395D01*
X66732318Y61450403D01*
X66545770Y61901884D01*
X67050416Y61692337D01*
X67820207Y61691665D01*
X68531658Y61985630D01*
X69076457Y62529479D01*
X69371663Y63240416D01*
X69372335Y64010207D01*
X69078370Y64721658D01*
X68534521Y65266457D01*
X67823584Y65561663D01*
X67053793Y65562335D01*
X66342342Y65268370D01*
X65797543Y64724521D01*
X65502337Y64013584D01*
X65501665Y63243793D01*
X65711627Y62735646D01*
X65263605Y62921681D01*
X64533597Y62922318D01*
X64082116Y62735770D01*
X64291663Y63240416D01*
X64292335Y64010207D01*
X63998370Y64721658D01*
X63454521Y65266457D01*
X62743584Y65561663D01*
X61973793Y65562335D01*
X58425187Y65562335D01*
X58324117Y65806943D01*
X58061327Y66070192D01*
X57717799Y66212838D01*
X57345833Y66213162D01*
X33543040Y66213162D01*
X33599238Y66348501D01*
X33599562Y66720467D01*
X33457517Y67064243D01*
X33194727Y67327492D01*
X32851199Y67470138D01*
X32479233Y67470462D01*
X23271195Y67470462D01*
X23271335Y67629707D01*
X22977370Y68341158D01*
X22433521Y68885957D01*
X21722584Y69181163D01*
X20952793Y69181835D01*
X20444646Y68971873D01*
X20630681Y69419895D01*
X20631318Y70149903D01*
X20444770Y70601384D01*
X20949416Y70391837D01*
X21719207Y70391165D01*
X22430658Y70685130D01*
X22975457Y71228979D01*
X23270663Y71939916D01*
X23271335Y72709707D01*
X23253174Y72753662D01*
X41915333Y72753662D01*
X41571557Y72611617D01*
X41308308Y72348827D01*
X41165662Y72005299D01*
X41165338Y71633333D01*
X41307383Y71289557D01*
X41570173Y71026308D01*
X41913701Y70883662D01*
X42285667Y70883338D01*
X42629443Y71025383D01*
X42892692Y71288173D01*
X43035338Y71631701D01*
X43035662Y72003667D01*
X42893617Y72347443D01*
X42630827Y72610692D01*
X42287299Y72753338D01*
X41915333Y72753662D01*
X23253174Y72753662D01*
X22977370Y73421158D01*
X22433521Y73965957D01*
X21722584Y74261163D01*
X20952793Y74261835D01*
X20241342Y73967870D01*
X19696543Y73424021D01*
X19401337Y72713084D01*
X19400665Y71943293D01*
X19610627Y71435146D01*
X19162605Y71621181D01*
X18432597Y71621818D01*
X17981116Y71435270D01*
X18190663Y71939916D01*
X18191335Y72709707D01*
X17897370Y73421158D01*
X17353521Y73965957D01*
X16642584Y74261163D01*
X15872793Y74261835D01*
X2914944Y74261835D01*
X3434752Y75513669D01*
X3435945Y76880335D01*
X2914046Y78143427D01*
X2722807Y78335000D01*
X59460715Y78335000D01*
X59460715Y74365000D01*
X62459286Y74365000D01*
X62459286Y78335000D01*
X59460715Y78335000D01*
X2722807Y78335000D01*
X1948510Y79110649D01*
X686331Y79634752D01*
X-680335Y79635945D01*
X75519665Y79635945D01*
X74256573Y79114046D01*
X73289351Y78148510D01*
X72765248Y76886331D01*
X72764055Y75519665D01*
X73285954Y74256573D01*
X74251490Y73289351D01*
X75513669Y72765248D01*
X76880335Y72764055D01*
X78143427Y73285954D01*
X79110649Y74251490D01*
X79634752Y75513669D01*
X79635945Y76880335D01*
X79114046Y78143427D01*
X78148510Y79110649D01*
X76886331Y79634752D01*
X75519665Y79635945D01*
X-680335Y79635945D01*
X-680335Y79635945D01*
X-4724400Y79635945D01*
X-4724400Y80924400D01*
M02*
