M48
;DRILL file {KiCad (2015-06-14 BZR 5747, Git dc9ebf3)-product} date 25/06/2015 14:05:04
;FORMAT={-:-/ absolute / metric / decimal}
FMAT,2
METRIC,TZ
T1C0.400
T2C1.500
T3C1.699
T4C1.700
T5C2.799
%
G90
G05
M71
T1
X15.748Y27.305
X16.319Y32.893
X20.511Y35.179
X23.622Y61.087
X24.003Y53.238
X24.13Y27.305
X27.749Y58.991
X28.029Y55.372
X28.232Y56.439
X30.29Y62.662
X30.475Y58.019
X32.067Y46.672
X32.664Y66.535
X35.377Y58.049
X35.433Y55.626
X37.846Y64.135
X39.179Y63.119
X40.729Y48.933
X41.212Y54.991
X41.275Y27.305
X41.529Y32.893
X42.1Y71.819
X44.005Y46.672
X44.069Y63.246
X45.657Y35.052
X47.752Y46.672
X49.212Y27.305
X57.531Y65.278
X60.77Y46.164
X65.341Y46.482
X66.294Y46.482
X68.897Y50.927
X70.993Y46.799
T2
X18.796Y69.787
X18.796Y45.276
X55.245Y38.544
X64.897Y61.087
T3
X18.351Y19.056
X18.351Y3.556
X30.924Y19.056
X30.924Y3.556
X43.497Y19.056
X43.497Y3.556
T4
X16.256Y72.326
X16.256Y67.246
X16.256Y47.816
X16.256Y42.735
X21.336Y72.326
X21.336Y67.246
X21.336Y47.816
X21.336Y42.735
X52.705Y41.084
X52.705Y36.005
X57.785Y41.084
X57.785Y36.005
X62.357Y63.627
X62.357Y58.547
X67.437Y63.627
X67.437Y58.547
T5
X0.Y76.2
X0.Y0.
X76.2Y76.2
X76.2Y0.
T0
M30
