%FSLAX45Y45*%
G04 Gerber Fmt 4.5, Leading zero omitted, Abs format (unit mm)*
G04 Created by KiCad (PCBNEW (2015-06-14 BZR 5747, Git dc9ebf3)-product) date 23/06/2015 18:14:59*
%MOMM*%
G01*
G04 APERTURE LIST*
%ADD10C,0.127000*%
%ADD11C,0.100000*%
%ADD12C,0.200000*%
%ADD13C,0.300000*%
G04 APERTURE END LIST*
D10*
D11*
X-635000Y8255000D02*
X8255000Y8255000D01*
X-635000Y-635000D02*
X-635000Y8255000D01*
X8255000Y-635000D02*
X-635000Y-635000D01*
X8255000Y8255000D02*
X8255000Y-635000D01*
D12*
X1554800Y2750500D02*
X1594800Y2710500D01*
X1594800Y2750500D02*
X1554800Y2710500D01*
X1611950Y3309300D02*
X1651950Y3269300D01*
X1651950Y3309300D02*
X1611950Y3269300D01*
X2031050Y3537900D02*
X2071050Y3497900D01*
X2071050Y3537900D02*
X2031050Y3497900D01*
X2342200Y6128700D02*
X2382200Y6088700D01*
X2382200Y6128700D02*
X2342200Y6088700D01*
X2380300Y5343840D02*
X2420300Y5303840D01*
X2420300Y5343840D02*
X2380300Y5303840D01*
X2393000Y2750500D02*
X2433000Y2710500D01*
X2433000Y2750500D02*
X2393000Y2710500D01*
X2754950Y5919150D02*
X2794950Y5879150D01*
X2794950Y5919150D02*
X2754950Y5879150D01*
X2782890Y5557200D02*
X2822890Y5517200D01*
X2822890Y5557200D02*
X2782890Y5517200D01*
X2803210Y5663880D02*
X2843210Y5623880D01*
X2843210Y5663880D02*
X2803210Y5623880D01*
X3008950Y6286180D02*
X3048950Y6246180D01*
X3048950Y6286180D02*
X3008950Y6246180D01*
X3027492Y5821868D02*
X3067492Y5781868D01*
X3067492Y5821868D02*
X3027492Y5781868D01*
X3186750Y4687250D02*
X3226750Y4647250D01*
X3226750Y4687250D02*
X3186750Y4647250D01*
X3246440Y6673530D02*
X3286440Y6633530D01*
X3286440Y6673530D02*
X3246440Y6633530D01*
X3517712Y5824916D02*
X3557712Y5784916D01*
X3557712Y5824916D02*
X3517712Y5784916D01*
X3523300Y5582600D02*
X3563300Y5542600D01*
X3563300Y5582600D02*
X3523300Y5542600D01*
X3764600Y6433500D02*
X3804600Y6393500D01*
X3804600Y6433500D02*
X3764600Y6393500D01*
X3897950Y6331900D02*
X3937950Y6291900D01*
X3937950Y6331900D02*
X3897950Y6291900D01*
X4052890Y4913310D02*
X4092890Y4873310D01*
X4092890Y4913310D02*
X4052890Y4873310D01*
X4101150Y5519100D02*
X4141150Y5479100D01*
X4141150Y5519100D02*
X4101150Y5479100D01*
X4107500Y2750500D02*
X4147500Y2710500D01*
X4147500Y2750500D02*
X4107500Y2710500D01*
X4132900Y3309300D02*
X4172900Y3269300D01*
X4172900Y3309300D02*
X4132900Y3269300D01*
X4190050Y7201850D02*
X4230050Y7161850D01*
X4230050Y7201850D02*
X4190050Y7161850D01*
X4380550Y4687250D02*
X4420550Y4647250D01*
X4420550Y4687250D02*
X4380550Y4647250D01*
X4386900Y6344600D02*
X4426900Y6304600D01*
X4426900Y6344600D02*
X4386900Y6304600D01*
X4545650Y3525200D02*
X4585650Y3485200D01*
X4585650Y3525200D02*
X4545650Y3485200D01*
X4755200Y4687250D02*
X4795200Y4647250D01*
X4795200Y4687250D02*
X4755200Y4647250D01*
X4901250Y2750500D02*
X4941250Y2710500D01*
X4941250Y2750500D02*
X4901250Y2710500D01*
X5733100Y6547800D02*
X5773100Y6507800D01*
X5773100Y6547800D02*
X5733100Y6507800D01*
X6056950Y4636450D02*
X6096950Y4596450D01*
X6096950Y4636450D02*
X6056950Y4596450D01*
X6514150Y4668200D02*
X6554150Y4628200D01*
X6554150Y4668200D02*
X6514150Y4628200D01*
X6609400Y4668200D02*
X6649400Y4628200D01*
X6649400Y4668200D02*
X6609400Y4628200D01*
X6869750Y5112700D02*
X6909750Y5072700D01*
X6909750Y5112700D02*
X6869750Y5072700D01*
X7079300Y4699950D02*
X7119300Y4659950D01*
X7119300Y4699950D02*
X7079300Y4659950D01*
X1954600Y6978650D02*
G75*
G03X1954600Y6978650I-75000J0D01*
G01*
X1954600Y4527550D02*
G75*
G03X1954600Y4527550I-75000J0D01*
G01*
X5599500Y3854450D02*
G75*
G03X5599500Y3854450I-75000J0D01*
G01*
X6564700Y6108700D02*
G75*
G03X6564700Y6108700I-75000J0D01*
G01*
X1835150Y1990563D02*
X1835150Y1820637D01*
X1750187Y1905600D02*
X1920113Y1905600D01*
X1835150Y440563D02*
X1835150Y270637D01*
X1750187Y355600D02*
X1920113Y355600D01*
X3092450Y1990563D02*
X3092450Y1820637D01*
X3007487Y1905600D02*
X3177413Y1905600D01*
X3092450Y440563D02*
X3092450Y270637D01*
X3007487Y355600D02*
X3177413Y355600D01*
X4349750Y1990563D02*
X4349750Y1820637D01*
X4264787Y1905600D02*
X4434713Y1905600D01*
X4349750Y440563D02*
X4349750Y270637D01*
X4264787Y355600D02*
X4434713Y355600D01*
X1685705Y7172545D02*
X1685705Y7292755D01*
X1565495Y7292755D01*
X1565495Y7172545D01*
X1685705Y7172545D01*
X1685705Y6664545D02*
X1685705Y6784755D01*
X1565495Y6784755D01*
X1565495Y6664545D01*
X1685705Y6664545D01*
X1685705Y4721445D02*
X1685705Y4841655D01*
X1565495Y4841655D01*
X1565495Y4721445D01*
X1685705Y4721445D01*
X1685705Y4213445D02*
X1685705Y4333655D01*
X1565495Y4333655D01*
X1565495Y4213445D01*
X1685705Y4213445D01*
X2193705Y7172545D02*
X2193705Y7292755D01*
X2073495Y7292755D01*
X2073495Y7172545D01*
X2193705Y7172545D01*
X2193705Y6664545D02*
X2193705Y6784755D01*
X2073495Y6784755D01*
X2073495Y6664545D01*
X2193705Y6664545D01*
X2193705Y4721445D02*
X2193705Y4841655D01*
X2073495Y4841655D01*
X2073495Y4721445D01*
X2193705Y4721445D01*
X2193705Y4213445D02*
X2193705Y4333655D01*
X2073495Y4333655D01*
X2073495Y4213445D01*
X2193705Y4213445D01*
X5330605Y4048345D02*
X5330605Y4168555D01*
X5210395Y4168555D01*
X5210395Y4048345D01*
X5330605Y4048345D01*
X5330605Y3540345D02*
X5330605Y3660555D01*
X5210395Y3660555D01*
X5210395Y3540345D01*
X5330605Y3540345D01*
X5838605Y4048345D02*
X5838605Y4168555D01*
X5718395Y4168555D01*
X5718395Y4048345D01*
X5838605Y4048345D01*
X5838605Y3540345D02*
X5838605Y3660555D01*
X5718395Y3660555D01*
X5718395Y3540345D01*
X5838605Y3540345D01*
X6295805Y6302595D02*
X6295805Y6422805D01*
X6175595Y6422805D01*
X6175595Y6302595D01*
X6295805Y6302595D01*
X6295805Y5794595D02*
X6295805Y5914805D01*
X6175595Y5914805D01*
X6175595Y5794595D01*
X6295805Y5794595D01*
X6803805Y6302595D02*
X6803805Y6422805D01*
X6683595Y6422805D01*
X6683595Y6302595D01*
X6803805Y6302595D01*
X6803805Y5794595D02*
X6803805Y5914805D01*
X6683595Y5914805D01*
X6683595Y5794595D01*
X6803805Y5794595D01*
X0Y7480046D02*
X139954Y7620000D01*
X0Y7759954D01*
X-139954Y7620000D01*
X0Y7480046D01*
X0Y-139954D02*
X139954Y0D01*
X0Y139954D01*
X-139954Y0D01*
X0Y-139954D01*
X7620000Y7480046D02*
X7759954Y7620000D01*
X7620000Y7759954D01*
X7480046Y7620000D01*
X7620000Y7480046D01*
X7620000Y-139954D02*
X7759954Y0D01*
X7620000Y139954D01*
X7480046Y0D01*
X7620000Y-139954D01*
D13*
X-368571Y-1105714D02*
X-368571Y-805714D01*
X-297143Y-805714D01*
X-254286Y-820000D01*
X-225714Y-848571D01*
X-211429Y-877143D01*
X-197143Y-934286D01*
X-197143Y-977143D01*
X-211429Y-1034286D01*
X-225714Y-1062857D01*
X-254286Y-1091429D01*
X-297143Y-1105714D01*
X-368571Y-1105714D01*
X-68572Y-1105714D02*
X-68572Y-905714D01*
X-68572Y-962857D02*
X-54286Y-934286D01*
X-40000Y-920000D01*
X-11429Y-905714D01*
X17143Y-905714D01*
X117143Y-1105714D02*
X117143Y-905714D01*
X117143Y-805714D02*
X102857Y-820000D01*
X117143Y-834286D01*
X131429Y-820000D01*
X117143Y-805714D01*
X117143Y-834286D01*
X302857Y-1105714D02*
X274286Y-1091429D01*
X260000Y-1062857D01*
X260000Y-805714D01*
X460000Y-1105714D02*
X431428Y-1091429D01*
X417143Y-1062857D01*
X417143Y-805714D01*
X802857Y-1105714D02*
X802857Y-805714D01*
X902857Y-1020000D01*
X1002857Y-805714D01*
X1002857Y-1105714D01*
X1274286Y-1105714D02*
X1274286Y-948571D01*
X1260000Y-920000D01*
X1231429Y-905714D01*
X1174286Y-905714D01*
X1145714Y-920000D01*
X1274286Y-1091429D02*
X1245714Y-1105714D01*
X1174286Y-1105714D01*
X1145714Y-1091429D01*
X1131429Y-1062857D01*
X1131429Y-1034286D01*
X1145714Y-1005714D01*
X1174286Y-991429D01*
X1245714Y-991429D01*
X1274286Y-977143D01*
X1417143Y-905714D02*
X1417143Y-1205714D01*
X1417143Y-920000D02*
X1445714Y-905714D01*
X1502857Y-905714D01*
X1531428Y-920000D01*
X1545714Y-934286D01*
X1560000Y-962857D01*
X1560000Y-1048571D01*
X1545714Y-1077143D01*
X1531428Y-1091429D01*
X1502857Y-1105714D01*
X1445714Y-1105714D01*
X1417143Y-1091429D01*
X1688571Y-1077143D02*
X1702857Y-1091429D01*
X1688571Y-1105714D01*
X1674286Y-1091429D01*
X1688571Y-1077143D01*
X1688571Y-1105714D01*
X1688571Y-920000D02*
X1702857Y-934286D01*
X1688571Y-948571D01*
X1674286Y-934286D01*
X1688571Y-920000D01*
X1688571Y-948571D01*
X-680000Y-1580000D02*
X-640000Y-1620000D01*
X-640000Y-1580000D02*
X-680000Y-1620000D01*
X-311429Y-1435714D02*
X-282857Y-1435714D01*
X-254286Y-1450000D01*
X-240000Y-1464286D01*
X-225714Y-1492857D01*
X-211429Y-1550000D01*
X-211429Y-1621429D01*
X-225714Y-1678571D01*
X-240000Y-1707143D01*
X-254286Y-1721429D01*
X-282857Y-1735714D01*
X-311429Y-1735714D01*
X-340000Y-1721429D01*
X-354286Y-1707143D01*
X-368571Y-1678571D01*
X-382857Y-1621429D01*
X-382857Y-1550000D01*
X-368571Y-1492857D01*
X-354286Y-1464286D01*
X-340000Y-1450000D01*
X-311429Y-1435714D01*
X-82857Y-1707143D02*
X-68572Y-1721429D01*
X-82857Y-1735714D01*
X-97143Y-1721429D01*
X-82857Y-1707143D01*
X-82857Y-1735714D01*
X188571Y-1535714D02*
X188571Y-1735714D01*
X117143Y-1421429D02*
X45714Y-1635714D01*
X231428Y-1635714D01*
X402857Y-1435714D02*
X431428Y-1435714D01*
X460000Y-1450000D01*
X474286Y-1464286D01*
X488571Y-1492857D01*
X502857Y-1550000D01*
X502857Y-1621429D01*
X488571Y-1678571D01*
X474286Y-1707143D01*
X460000Y-1721429D01*
X431428Y-1735714D01*
X402857Y-1735714D01*
X374286Y-1721429D01*
X360000Y-1707143D01*
X345714Y-1678571D01*
X331429Y-1621429D01*
X331429Y-1550000D01*
X345714Y-1492857D01*
X360000Y-1464286D01*
X374286Y-1450000D01*
X402857Y-1435714D01*
X631429Y-1735714D02*
X631429Y-1535714D01*
X631429Y-1564286D02*
X645714Y-1550000D01*
X674286Y-1535714D01*
X717143Y-1535714D01*
X745714Y-1550000D01*
X760000Y-1578571D01*
X760000Y-1735714D01*
X760000Y-1578571D02*
X774286Y-1550000D01*
X802857Y-1535714D01*
X845714Y-1535714D01*
X874286Y-1550000D01*
X888571Y-1578571D01*
X888571Y-1735714D01*
X1031428Y-1735714D02*
X1031428Y-1535714D01*
X1031428Y-1564286D02*
X1045714Y-1550000D01*
X1074286Y-1535714D01*
X1117143Y-1535714D01*
X1145714Y-1550000D01*
X1160000Y-1578571D01*
X1160000Y-1735714D01*
X1160000Y-1578571D02*
X1174286Y-1550000D01*
X1202857Y-1535714D01*
X1245714Y-1535714D01*
X1274286Y-1550000D01*
X1288571Y-1578571D01*
X1288571Y-1735714D01*
X1874286Y-1421429D02*
X1617143Y-1807143D01*
X2260000Y-1435714D02*
X2288571Y-1435714D01*
X2317143Y-1450000D01*
X2331428Y-1464286D01*
X2345714Y-1492857D01*
X2360000Y-1550000D01*
X2360000Y-1621429D01*
X2345714Y-1678571D01*
X2331428Y-1707143D01*
X2317143Y-1721429D01*
X2288571Y-1735714D01*
X2260000Y-1735714D01*
X2231428Y-1721429D01*
X2217143Y-1707143D01*
X2202857Y-1678571D01*
X2188571Y-1621429D01*
X2188571Y-1550000D01*
X2202857Y-1492857D01*
X2217143Y-1464286D01*
X2231428Y-1450000D01*
X2260000Y-1435714D01*
X2488571Y-1707143D02*
X2502857Y-1721429D01*
X2488571Y-1735714D01*
X2474286Y-1721429D01*
X2488571Y-1707143D01*
X2488571Y-1735714D01*
X2688571Y-1435714D02*
X2717143Y-1435714D01*
X2745714Y-1450000D01*
X2760000Y-1464286D01*
X2774286Y-1492857D01*
X2788571Y-1550000D01*
X2788571Y-1621429D01*
X2774286Y-1678571D01*
X2760000Y-1707143D01*
X2745714Y-1721429D01*
X2717143Y-1735714D01*
X2688571Y-1735714D01*
X2660000Y-1721429D01*
X2645714Y-1707143D01*
X2631428Y-1678571D01*
X2617143Y-1621429D01*
X2617143Y-1550000D01*
X2631428Y-1492857D01*
X2645714Y-1464286D01*
X2660000Y-1450000D01*
X2688571Y-1435714D01*
X3074285Y-1735714D02*
X2902857Y-1735714D01*
X2988571Y-1735714D02*
X2988571Y-1435714D01*
X2960000Y-1478571D01*
X2931428Y-1507143D01*
X2902857Y-1521429D01*
X3331428Y-1435714D02*
X3274285Y-1435714D01*
X3245714Y-1450000D01*
X3231428Y-1464286D01*
X3202857Y-1507143D01*
X3188571Y-1564286D01*
X3188571Y-1678571D01*
X3202857Y-1707143D01*
X3217143Y-1721429D01*
X3245714Y-1735714D01*
X3302857Y-1735714D01*
X3331428Y-1721429D01*
X3345714Y-1707143D01*
X3360000Y-1678571D01*
X3360000Y-1607143D01*
X3345714Y-1578571D01*
X3331428Y-1564286D01*
X3302857Y-1550000D01*
X3245714Y-1550000D01*
X3217143Y-1564286D01*
X3202857Y-1578571D01*
X3188571Y-1607143D01*
X3474286Y-1435714D02*
X3474286Y-1492857D01*
X3588571Y-1435714D02*
X3588571Y-1492857D01*
X4031428Y-1850000D02*
X4017143Y-1835714D01*
X3988571Y-1792857D01*
X3974285Y-1764286D01*
X3960000Y-1721429D01*
X3945714Y-1650000D01*
X3945714Y-1592857D01*
X3960000Y-1521429D01*
X3974285Y-1478571D01*
X3988571Y-1450000D01*
X4017143Y-1407143D01*
X4031428Y-1392857D01*
X4117143Y-1435714D02*
X4302857Y-1435714D01*
X4202857Y-1550000D01*
X4245714Y-1550000D01*
X4274286Y-1564286D01*
X4288571Y-1578571D01*
X4302857Y-1607143D01*
X4302857Y-1678571D01*
X4288571Y-1707143D01*
X4274286Y-1721429D01*
X4245714Y-1735714D01*
X4160000Y-1735714D01*
X4131428Y-1721429D01*
X4117143Y-1707143D01*
X4402857Y-1435714D02*
X4588571Y-1435714D01*
X4488571Y-1550000D01*
X4531428Y-1550000D01*
X4560000Y-1564286D01*
X4574286Y-1578571D01*
X4588571Y-1607143D01*
X4588571Y-1678571D01*
X4574286Y-1707143D01*
X4560000Y-1721429D01*
X4531428Y-1735714D01*
X4445714Y-1735714D01*
X4417143Y-1721429D01*
X4402857Y-1707143D01*
X4945714Y-1735714D02*
X4945714Y-1435714D01*
X5074286Y-1735714D02*
X5074286Y-1578571D01*
X5060000Y-1550000D01*
X5031428Y-1535714D01*
X4988571Y-1535714D01*
X4960000Y-1550000D01*
X4945714Y-1564286D01*
X5260000Y-1735714D02*
X5231428Y-1721429D01*
X5217143Y-1707143D01*
X5202857Y-1678571D01*
X5202857Y-1592857D01*
X5217143Y-1564286D01*
X5231428Y-1550000D01*
X5260000Y-1535714D01*
X5302857Y-1535714D01*
X5331428Y-1550000D01*
X5345714Y-1564286D01*
X5360000Y-1592857D01*
X5360000Y-1678571D01*
X5345714Y-1707143D01*
X5331428Y-1721429D01*
X5302857Y-1735714D01*
X5260000Y-1735714D01*
X5531428Y-1735714D02*
X5502857Y-1721429D01*
X5488571Y-1692857D01*
X5488571Y-1435714D01*
X5760000Y-1721429D02*
X5731428Y-1735714D01*
X5674286Y-1735714D01*
X5645714Y-1721429D01*
X5631428Y-1692857D01*
X5631428Y-1578571D01*
X5645714Y-1550000D01*
X5674286Y-1535714D01*
X5731428Y-1535714D01*
X5760000Y-1550000D01*
X5774286Y-1578571D01*
X5774286Y-1607143D01*
X5631428Y-1635714D01*
X5888571Y-1721429D02*
X5917143Y-1735714D01*
X5974286Y-1735714D01*
X6002857Y-1721429D01*
X6017143Y-1692857D01*
X6017143Y-1678571D01*
X6002857Y-1650000D01*
X5974286Y-1635714D01*
X5931428Y-1635714D01*
X5902857Y-1621429D01*
X5888571Y-1592857D01*
X5888571Y-1578571D01*
X5902857Y-1550000D01*
X5931428Y-1535714D01*
X5974286Y-1535714D01*
X6002857Y-1550000D01*
X6117143Y-1850000D02*
X6131428Y-1835714D01*
X6160000Y-1792857D01*
X6174286Y-1764286D01*
X6188571Y-1721429D01*
X6202857Y-1650000D01*
X6202857Y-1592857D01*
X6188571Y-1521429D01*
X6174286Y-1478571D01*
X6160000Y-1450000D01*
X6131428Y-1407143D01*
X6117143Y-1392857D01*
X-640000Y-1996000D02*
G75*
G03X-640000Y-1996000I-75000J0D01*
G01*
X-211429Y-2131714D02*
X-382857Y-2131714D01*
X-297143Y-2131714D02*
X-297143Y-1831714D01*
X-325714Y-1874571D01*
X-354286Y-1903143D01*
X-382857Y-1917429D01*
X-82857Y-2103143D02*
X-68572Y-2117429D01*
X-82857Y-2131714D01*
X-97143Y-2117429D01*
X-82857Y-2103143D01*
X-82857Y-2131714D01*
X202857Y-1831714D02*
X60000Y-1831714D01*
X45714Y-1974571D01*
X60000Y-1960286D01*
X88571Y-1946000D01*
X160000Y-1946000D01*
X188571Y-1960286D01*
X202857Y-1974571D01*
X217143Y-2003143D01*
X217143Y-2074571D01*
X202857Y-2103143D01*
X188571Y-2117429D01*
X160000Y-2131714D01*
X88571Y-2131714D01*
X60000Y-2117429D01*
X45714Y-2103143D01*
X402857Y-1831714D02*
X431428Y-1831714D01*
X460000Y-1846000D01*
X474286Y-1860286D01*
X488571Y-1888857D01*
X502857Y-1946000D01*
X502857Y-2017429D01*
X488571Y-2074571D01*
X474286Y-2103143D01*
X460000Y-2117429D01*
X431428Y-2131714D01*
X402857Y-2131714D01*
X374286Y-2117429D01*
X360000Y-2103143D01*
X345714Y-2074571D01*
X331429Y-2017429D01*
X331429Y-1946000D01*
X345714Y-1888857D01*
X360000Y-1860286D01*
X374286Y-1846000D01*
X402857Y-1831714D01*
X631429Y-2131714D02*
X631429Y-1931714D01*
X631429Y-1960286D02*
X645714Y-1946000D01*
X674286Y-1931714D01*
X717143Y-1931714D01*
X745714Y-1946000D01*
X760000Y-1974571D01*
X760000Y-2131714D01*
X760000Y-1974571D02*
X774286Y-1946000D01*
X802857Y-1931714D01*
X845714Y-1931714D01*
X874286Y-1946000D01*
X888571Y-1974571D01*
X888571Y-2131714D01*
X1031428Y-2131714D02*
X1031428Y-1931714D01*
X1031428Y-1960286D02*
X1045714Y-1946000D01*
X1074286Y-1931714D01*
X1117143Y-1931714D01*
X1145714Y-1946000D01*
X1160000Y-1974571D01*
X1160000Y-2131714D01*
X1160000Y-1974571D02*
X1174286Y-1946000D01*
X1202857Y-1931714D01*
X1245714Y-1931714D01*
X1274286Y-1946000D01*
X1288571Y-1974571D01*
X1288571Y-2131714D01*
X1874286Y-1817429D02*
X1617143Y-2203143D01*
X2260000Y-1831714D02*
X2288571Y-1831714D01*
X2317143Y-1846000D01*
X2331428Y-1860286D01*
X2345714Y-1888857D01*
X2360000Y-1946000D01*
X2360000Y-2017429D01*
X2345714Y-2074571D01*
X2331428Y-2103143D01*
X2317143Y-2117429D01*
X2288571Y-2131714D01*
X2260000Y-2131714D01*
X2231428Y-2117429D01*
X2217143Y-2103143D01*
X2202857Y-2074571D01*
X2188571Y-2017429D01*
X2188571Y-1946000D01*
X2202857Y-1888857D01*
X2217143Y-1860286D01*
X2231428Y-1846000D01*
X2260000Y-1831714D01*
X2488571Y-2103143D02*
X2502857Y-2117429D01*
X2488571Y-2131714D01*
X2474286Y-2117429D01*
X2488571Y-2103143D01*
X2488571Y-2131714D01*
X2688571Y-1831714D02*
X2717143Y-1831714D01*
X2745714Y-1846000D01*
X2760000Y-1860286D01*
X2774286Y-1888857D01*
X2788571Y-1946000D01*
X2788571Y-2017429D01*
X2774286Y-2074571D01*
X2760000Y-2103143D01*
X2745714Y-2117429D01*
X2717143Y-2131714D01*
X2688571Y-2131714D01*
X2660000Y-2117429D01*
X2645714Y-2103143D01*
X2631428Y-2074571D01*
X2617143Y-2017429D01*
X2617143Y-1946000D01*
X2631428Y-1888857D01*
X2645714Y-1860286D01*
X2660000Y-1846000D01*
X2688571Y-1831714D01*
X3060000Y-1831714D02*
X2917143Y-1831714D01*
X2902857Y-1974571D01*
X2917143Y-1960286D01*
X2945714Y-1946000D01*
X3017143Y-1946000D01*
X3045714Y-1960286D01*
X3060000Y-1974571D01*
X3074285Y-2003143D01*
X3074285Y-2074571D01*
X3060000Y-2103143D01*
X3045714Y-2117429D01*
X3017143Y-2131714D01*
X2945714Y-2131714D01*
X2917143Y-2117429D01*
X2902857Y-2103143D01*
X3217143Y-2131714D02*
X3274285Y-2131714D01*
X3302857Y-2117429D01*
X3317143Y-2103143D01*
X3345714Y-2060286D01*
X3360000Y-2003143D01*
X3360000Y-1888857D01*
X3345714Y-1860286D01*
X3331428Y-1846000D01*
X3302857Y-1831714D01*
X3245714Y-1831714D01*
X3217143Y-1846000D01*
X3202857Y-1860286D01*
X3188571Y-1888857D01*
X3188571Y-1960286D01*
X3202857Y-1988857D01*
X3217143Y-2003143D01*
X3245714Y-2017429D01*
X3302857Y-2017429D01*
X3331428Y-2003143D01*
X3345714Y-1988857D01*
X3360000Y-1960286D01*
X3474286Y-1831714D02*
X3474286Y-1888857D01*
X3588571Y-1831714D02*
X3588571Y-1888857D01*
X4031428Y-2246000D02*
X4017143Y-2231714D01*
X3988571Y-2188857D01*
X3974285Y-2160286D01*
X3960000Y-2117429D01*
X3945714Y-2046000D01*
X3945714Y-1988857D01*
X3960000Y-1917429D01*
X3974285Y-1874571D01*
X3988571Y-1846000D01*
X4017143Y-1803143D01*
X4031428Y-1788857D01*
X4274286Y-1931714D02*
X4274286Y-2131714D01*
X4202857Y-1817429D02*
X4131428Y-2031714D01*
X4317143Y-2031714D01*
X4660000Y-2131714D02*
X4660000Y-1831714D01*
X4788571Y-2131714D02*
X4788571Y-1974571D01*
X4774286Y-1946000D01*
X4745714Y-1931714D01*
X4702857Y-1931714D01*
X4674286Y-1946000D01*
X4660000Y-1960286D01*
X4974286Y-2131714D02*
X4945714Y-2117429D01*
X4931428Y-2103143D01*
X4917143Y-2074571D01*
X4917143Y-1988857D01*
X4931428Y-1960286D01*
X4945714Y-1946000D01*
X4974286Y-1931714D01*
X5017143Y-1931714D01*
X5045714Y-1946000D01*
X5060000Y-1960286D01*
X5074286Y-1988857D01*
X5074286Y-2074571D01*
X5060000Y-2103143D01*
X5045714Y-2117429D01*
X5017143Y-2131714D01*
X4974286Y-2131714D01*
X5245714Y-2131714D02*
X5217143Y-2117429D01*
X5202857Y-2088857D01*
X5202857Y-1831714D01*
X5474286Y-2117429D02*
X5445714Y-2131714D01*
X5388571Y-2131714D01*
X5360000Y-2117429D01*
X5345714Y-2088857D01*
X5345714Y-1974571D01*
X5360000Y-1946000D01*
X5388571Y-1931714D01*
X5445714Y-1931714D01*
X5474286Y-1946000D01*
X5488571Y-1974571D01*
X5488571Y-2003143D01*
X5345714Y-2031714D01*
X5602857Y-2117429D02*
X5631428Y-2131714D01*
X5688571Y-2131714D01*
X5717143Y-2117429D01*
X5731428Y-2088857D01*
X5731428Y-2074571D01*
X5717143Y-2046000D01*
X5688571Y-2031714D01*
X5645714Y-2031714D01*
X5617143Y-2017429D01*
X5602857Y-1988857D01*
X5602857Y-1974571D01*
X5617143Y-1946000D01*
X5645714Y-1931714D01*
X5688571Y-1931714D01*
X5717143Y-1946000D01*
X5831428Y-2246000D02*
X5845714Y-2231714D01*
X5874286Y-2188857D01*
X5888571Y-2160286D01*
X5902857Y-2117429D01*
X5917143Y-2046000D01*
X5917143Y-1988857D01*
X5902857Y-1917429D01*
X5888571Y-1874571D01*
X5874286Y-1846000D01*
X5845714Y-1803143D01*
X5831428Y-1788857D01*
X-724963Y-2307037D02*
X-724963Y-2476963D01*
X-809926Y-2392000D02*
X-640000Y-2392000D01*
X-211429Y-2527714D02*
X-382857Y-2527714D01*
X-297143Y-2527714D02*
X-297143Y-2227714D01*
X-325714Y-2270572D01*
X-354286Y-2299143D01*
X-382857Y-2313429D01*
X-82857Y-2499143D02*
X-68572Y-2513429D01*
X-82857Y-2527714D01*
X-97143Y-2513429D01*
X-82857Y-2499143D01*
X-82857Y-2527714D01*
X31428Y-2227714D02*
X231428Y-2227714D01*
X102857Y-2527714D01*
X402857Y-2227714D02*
X431428Y-2227714D01*
X460000Y-2242000D01*
X474286Y-2256286D01*
X488571Y-2284857D01*
X502857Y-2342000D01*
X502857Y-2413429D01*
X488571Y-2470572D01*
X474286Y-2499143D01*
X460000Y-2513429D01*
X431428Y-2527714D01*
X402857Y-2527714D01*
X374286Y-2513429D01*
X360000Y-2499143D01*
X345714Y-2470572D01*
X331429Y-2413429D01*
X331429Y-2342000D01*
X345714Y-2284857D01*
X360000Y-2256286D01*
X374286Y-2242000D01*
X402857Y-2227714D01*
X631429Y-2527714D02*
X631429Y-2327714D01*
X631429Y-2356286D02*
X645714Y-2342000D01*
X674286Y-2327714D01*
X717143Y-2327714D01*
X745714Y-2342000D01*
X760000Y-2370572D01*
X760000Y-2527714D01*
X760000Y-2370572D02*
X774286Y-2342000D01*
X802857Y-2327714D01*
X845714Y-2327714D01*
X874286Y-2342000D01*
X888571Y-2370572D01*
X888571Y-2527714D01*
X1031428Y-2527714D02*
X1031428Y-2327714D01*
X1031428Y-2356286D02*
X1045714Y-2342000D01*
X1074286Y-2327714D01*
X1117143Y-2327714D01*
X1145714Y-2342000D01*
X1160000Y-2370572D01*
X1160000Y-2527714D01*
X1160000Y-2370572D02*
X1174286Y-2342000D01*
X1202857Y-2327714D01*
X1245714Y-2327714D01*
X1274286Y-2342000D01*
X1288571Y-2370572D01*
X1288571Y-2527714D01*
X1874286Y-2213429D02*
X1617143Y-2599143D01*
X2260000Y-2227714D02*
X2288571Y-2227714D01*
X2317143Y-2242000D01*
X2331428Y-2256286D01*
X2345714Y-2284857D01*
X2360000Y-2342000D01*
X2360000Y-2413429D01*
X2345714Y-2470572D01*
X2331428Y-2499143D01*
X2317143Y-2513429D01*
X2288571Y-2527714D01*
X2260000Y-2527714D01*
X2231428Y-2513429D01*
X2217143Y-2499143D01*
X2202857Y-2470572D01*
X2188571Y-2413429D01*
X2188571Y-2342000D01*
X2202857Y-2284857D01*
X2217143Y-2256286D01*
X2231428Y-2242000D01*
X2260000Y-2227714D01*
X2488571Y-2499143D02*
X2502857Y-2513429D01*
X2488571Y-2527714D01*
X2474286Y-2513429D01*
X2488571Y-2499143D01*
X2488571Y-2527714D01*
X2688571Y-2227714D02*
X2717143Y-2227714D01*
X2745714Y-2242000D01*
X2760000Y-2256286D01*
X2774286Y-2284857D01*
X2788571Y-2342000D01*
X2788571Y-2413429D01*
X2774286Y-2470572D01*
X2760000Y-2499143D01*
X2745714Y-2513429D01*
X2717143Y-2527714D01*
X2688571Y-2527714D01*
X2660000Y-2513429D01*
X2645714Y-2499143D01*
X2631428Y-2470572D01*
X2617143Y-2413429D01*
X2617143Y-2342000D01*
X2631428Y-2284857D01*
X2645714Y-2256286D01*
X2660000Y-2242000D01*
X2688571Y-2227714D01*
X3045714Y-2227714D02*
X2988571Y-2227714D01*
X2960000Y-2242000D01*
X2945714Y-2256286D01*
X2917143Y-2299143D01*
X2902857Y-2356286D01*
X2902857Y-2470572D01*
X2917143Y-2499143D01*
X2931428Y-2513429D01*
X2960000Y-2527714D01*
X3017143Y-2527714D01*
X3045714Y-2513429D01*
X3060000Y-2499143D01*
X3074285Y-2470572D01*
X3074285Y-2399143D01*
X3060000Y-2370572D01*
X3045714Y-2356286D01*
X3017143Y-2342000D01*
X2960000Y-2342000D01*
X2931428Y-2356286D01*
X2917143Y-2370572D01*
X2902857Y-2399143D01*
X3174285Y-2227714D02*
X3374285Y-2227714D01*
X3245714Y-2527714D01*
X3474286Y-2227714D02*
X3474286Y-2284857D01*
X3588571Y-2227714D02*
X3588571Y-2284857D01*
X4031428Y-2642000D02*
X4017143Y-2627714D01*
X3988571Y-2584857D01*
X3974285Y-2556286D01*
X3960000Y-2513429D01*
X3945714Y-2442000D01*
X3945714Y-2384857D01*
X3960000Y-2313429D01*
X3974285Y-2270572D01*
X3988571Y-2242000D01*
X4017143Y-2199143D01*
X4031428Y-2184857D01*
X4274286Y-2227714D02*
X4217143Y-2227714D01*
X4188571Y-2242000D01*
X4174285Y-2256286D01*
X4145714Y-2299143D01*
X4131428Y-2356286D01*
X4131428Y-2470572D01*
X4145714Y-2499143D01*
X4160000Y-2513429D01*
X4188571Y-2527714D01*
X4245714Y-2527714D01*
X4274286Y-2513429D01*
X4288571Y-2499143D01*
X4302857Y-2470572D01*
X4302857Y-2399143D01*
X4288571Y-2370572D01*
X4274286Y-2356286D01*
X4245714Y-2342000D01*
X4188571Y-2342000D01*
X4160000Y-2356286D01*
X4145714Y-2370572D01*
X4131428Y-2399143D01*
X4660000Y-2527714D02*
X4660000Y-2227714D01*
X4788571Y-2527714D02*
X4788571Y-2370572D01*
X4774286Y-2342000D01*
X4745714Y-2327714D01*
X4702857Y-2327714D01*
X4674286Y-2342000D01*
X4660000Y-2356286D01*
X4974286Y-2527714D02*
X4945714Y-2513429D01*
X4931428Y-2499143D01*
X4917143Y-2470572D01*
X4917143Y-2384857D01*
X4931428Y-2356286D01*
X4945714Y-2342000D01*
X4974286Y-2327714D01*
X5017143Y-2327714D01*
X5045714Y-2342000D01*
X5060000Y-2356286D01*
X5074286Y-2384857D01*
X5074286Y-2470572D01*
X5060000Y-2499143D01*
X5045714Y-2513429D01*
X5017143Y-2527714D01*
X4974286Y-2527714D01*
X5245714Y-2527714D02*
X5217143Y-2513429D01*
X5202857Y-2484857D01*
X5202857Y-2227714D01*
X5474286Y-2513429D02*
X5445714Y-2527714D01*
X5388571Y-2527714D01*
X5360000Y-2513429D01*
X5345714Y-2484857D01*
X5345714Y-2370572D01*
X5360000Y-2342000D01*
X5388571Y-2327714D01*
X5445714Y-2327714D01*
X5474286Y-2342000D01*
X5488571Y-2370572D01*
X5488571Y-2399143D01*
X5345714Y-2427714D01*
X5602857Y-2513429D02*
X5631428Y-2527714D01*
X5688571Y-2527714D01*
X5717143Y-2513429D01*
X5731428Y-2484857D01*
X5731428Y-2470572D01*
X5717143Y-2442000D01*
X5688571Y-2427714D01*
X5645714Y-2427714D01*
X5617143Y-2413429D01*
X5602857Y-2384857D01*
X5602857Y-2370572D01*
X5617143Y-2342000D01*
X5645714Y-2327714D01*
X5688571Y-2327714D01*
X5717143Y-2342000D01*
X5831428Y-2642000D02*
X5845714Y-2627714D01*
X5874286Y-2584857D01*
X5888571Y-2556286D01*
X5902857Y-2513429D01*
X5917143Y-2442000D01*
X5917143Y-2384857D01*
X5902857Y-2313429D01*
X5888571Y-2270572D01*
X5874286Y-2242000D01*
X5845714Y-2199143D01*
X5831428Y-2184857D01*
X-664895Y-2848105D02*
X-664895Y-2727895D01*
X-785105Y-2727895D01*
X-785105Y-2848105D01*
X-664895Y-2848105D01*
X-211429Y-2923714D02*
X-382857Y-2923714D01*
X-297143Y-2923714D02*
X-297143Y-2623714D01*
X-325714Y-2666572D01*
X-354286Y-2695143D01*
X-382857Y-2709429D01*
X-82857Y-2895143D02*
X-68572Y-2909429D01*
X-82857Y-2923714D01*
X-97143Y-2909429D01*
X-82857Y-2895143D01*
X-82857Y-2923714D01*
X31428Y-2623714D02*
X231428Y-2623714D01*
X102857Y-2923714D01*
X402857Y-2623714D02*
X431428Y-2623714D01*
X460000Y-2638000D01*
X474286Y-2652286D01*
X488571Y-2680857D01*
X502857Y-2738000D01*
X502857Y-2809429D01*
X488571Y-2866571D01*
X474286Y-2895143D01*
X460000Y-2909429D01*
X431428Y-2923714D01*
X402857Y-2923714D01*
X374286Y-2909429D01*
X360000Y-2895143D01*
X345714Y-2866571D01*
X331429Y-2809429D01*
X331429Y-2738000D01*
X345714Y-2680857D01*
X360000Y-2652286D01*
X374286Y-2638000D01*
X402857Y-2623714D01*
X631429Y-2923714D02*
X631429Y-2723714D01*
X631429Y-2752286D02*
X645714Y-2738000D01*
X674286Y-2723714D01*
X717143Y-2723714D01*
X745714Y-2738000D01*
X760000Y-2766572D01*
X760000Y-2923714D01*
X760000Y-2766572D02*
X774286Y-2738000D01*
X802857Y-2723714D01*
X845714Y-2723714D01*
X874286Y-2738000D01*
X888571Y-2766572D01*
X888571Y-2923714D01*
X1031428Y-2923714D02*
X1031428Y-2723714D01*
X1031428Y-2752286D02*
X1045714Y-2738000D01*
X1074286Y-2723714D01*
X1117143Y-2723714D01*
X1145714Y-2738000D01*
X1160000Y-2766572D01*
X1160000Y-2923714D01*
X1160000Y-2766572D02*
X1174286Y-2738000D01*
X1202857Y-2723714D01*
X1245714Y-2723714D01*
X1274286Y-2738000D01*
X1288571Y-2766572D01*
X1288571Y-2923714D01*
X1874286Y-2609429D02*
X1617143Y-2995143D01*
X2260000Y-2623714D02*
X2288571Y-2623714D01*
X2317143Y-2638000D01*
X2331428Y-2652286D01*
X2345714Y-2680857D01*
X2360000Y-2738000D01*
X2360000Y-2809429D01*
X2345714Y-2866571D01*
X2331428Y-2895143D01*
X2317143Y-2909429D01*
X2288571Y-2923714D01*
X2260000Y-2923714D01*
X2231428Y-2909429D01*
X2217143Y-2895143D01*
X2202857Y-2866571D01*
X2188571Y-2809429D01*
X2188571Y-2738000D01*
X2202857Y-2680857D01*
X2217143Y-2652286D01*
X2231428Y-2638000D01*
X2260000Y-2623714D01*
X2488571Y-2895143D02*
X2502857Y-2909429D01*
X2488571Y-2923714D01*
X2474286Y-2909429D01*
X2488571Y-2895143D01*
X2488571Y-2923714D01*
X2688571Y-2623714D02*
X2717143Y-2623714D01*
X2745714Y-2638000D01*
X2760000Y-2652286D01*
X2774286Y-2680857D01*
X2788571Y-2738000D01*
X2788571Y-2809429D01*
X2774286Y-2866571D01*
X2760000Y-2895143D01*
X2745714Y-2909429D01*
X2717143Y-2923714D01*
X2688571Y-2923714D01*
X2660000Y-2909429D01*
X2645714Y-2895143D01*
X2631428Y-2866571D01*
X2617143Y-2809429D01*
X2617143Y-2738000D01*
X2631428Y-2680857D01*
X2645714Y-2652286D01*
X2660000Y-2638000D01*
X2688571Y-2623714D01*
X3045714Y-2623714D02*
X2988571Y-2623714D01*
X2960000Y-2638000D01*
X2945714Y-2652286D01*
X2917143Y-2695143D01*
X2902857Y-2752286D01*
X2902857Y-2866571D01*
X2917143Y-2895143D01*
X2931428Y-2909429D01*
X2960000Y-2923714D01*
X3017143Y-2923714D01*
X3045714Y-2909429D01*
X3060000Y-2895143D01*
X3074285Y-2866571D01*
X3074285Y-2795143D01*
X3060000Y-2766572D01*
X3045714Y-2752286D01*
X3017143Y-2738000D01*
X2960000Y-2738000D01*
X2931428Y-2752286D01*
X2917143Y-2766572D01*
X2902857Y-2795143D01*
X3174285Y-2623714D02*
X3374285Y-2623714D01*
X3245714Y-2923714D01*
X3474286Y-2623714D02*
X3474286Y-2680857D01*
X3588571Y-2623714D02*
X3588571Y-2680857D01*
X4031428Y-3038000D02*
X4017143Y-3023714D01*
X3988571Y-2980857D01*
X3974285Y-2952286D01*
X3960000Y-2909429D01*
X3945714Y-2838000D01*
X3945714Y-2780857D01*
X3960000Y-2709429D01*
X3974285Y-2666572D01*
X3988571Y-2638000D01*
X4017143Y-2595143D01*
X4031428Y-2580857D01*
X4302857Y-2923714D02*
X4131428Y-2923714D01*
X4217143Y-2923714D02*
X4217143Y-2623714D01*
X4188571Y-2666572D01*
X4160000Y-2695143D01*
X4131428Y-2709429D01*
X4560000Y-2623714D02*
X4502857Y-2623714D01*
X4474286Y-2638000D01*
X4460000Y-2652286D01*
X4431428Y-2695143D01*
X4417143Y-2752286D01*
X4417143Y-2866571D01*
X4431428Y-2895143D01*
X4445714Y-2909429D01*
X4474286Y-2923714D01*
X4531428Y-2923714D01*
X4560000Y-2909429D01*
X4574286Y-2895143D01*
X4588571Y-2866571D01*
X4588571Y-2795143D01*
X4574286Y-2766572D01*
X4560000Y-2752286D01*
X4531428Y-2738000D01*
X4474286Y-2738000D01*
X4445714Y-2752286D01*
X4431428Y-2766572D01*
X4417143Y-2795143D01*
X4945714Y-2923714D02*
X4945714Y-2623714D01*
X5074286Y-2923714D02*
X5074286Y-2766572D01*
X5060000Y-2738000D01*
X5031428Y-2723714D01*
X4988571Y-2723714D01*
X4960000Y-2738000D01*
X4945714Y-2752286D01*
X5260000Y-2923714D02*
X5231428Y-2909429D01*
X5217143Y-2895143D01*
X5202857Y-2866571D01*
X5202857Y-2780857D01*
X5217143Y-2752286D01*
X5231428Y-2738000D01*
X5260000Y-2723714D01*
X5302857Y-2723714D01*
X5331428Y-2738000D01*
X5345714Y-2752286D01*
X5360000Y-2780857D01*
X5360000Y-2866571D01*
X5345714Y-2895143D01*
X5331428Y-2909429D01*
X5302857Y-2923714D01*
X5260000Y-2923714D01*
X5531428Y-2923714D02*
X5502857Y-2909429D01*
X5488571Y-2880857D01*
X5488571Y-2623714D01*
X5760000Y-2909429D02*
X5731428Y-2923714D01*
X5674286Y-2923714D01*
X5645714Y-2909429D01*
X5631428Y-2880857D01*
X5631428Y-2766572D01*
X5645714Y-2738000D01*
X5674286Y-2723714D01*
X5731428Y-2723714D01*
X5760000Y-2738000D01*
X5774286Y-2766572D01*
X5774286Y-2795143D01*
X5631428Y-2823714D01*
X5888571Y-2909429D02*
X5917143Y-2923714D01*
X5974286Y-2923714D01*
X6002857Y-2909429D01*
X6017143Y-2880857D01*
X6017143Y-2866571D01*
X6002857Y-2838000D01*
X5974286Y-2823714D01*
X5931428Y-2823714D01*
X5902857Y-2809429D01*
X5888571Y-2780857D01*
X5888571Y-2766572D01*
X5902857Y-2738000D01*
X5931428Y-2723714D01*
X5974286Y-2723714D01*
X6002857Y-2738000D01*
X6117143Y-3038000D02*
X6131428Y-3023714D01*
X6160000Y-2980857D01*
X6174286Y-2952286D01*
X6188571Y-2909429D01*
X6202857Y-2838000D01*
X6202857Y-2780857D01*
X6188571Y-2709429D01*
X6174286Y-2666572D01*
X6160000Y-2638000D01*
X6131428Y-2595143D01*
X6117143Y-2580857D01*
X-779954Y-3323954D02*
X-640000Y-3184000D01*
X-779954Y-3044046D01*
X-919908Y-3184000D01*
X-779954Y-3323954D01*
X-382857Y-3048286D02*
X-368571Y-3034000D01*
X-340000Y-3019714D01*
X-268572Y-3019714D01*
X-240000Y-3034000D01*
X-225714Y-3048286D01*
X-211429Y-3076857D01*
X-211429Y-3105429D01*
X-225714Y-3148286D01*
X-397143Y-3319714D01*
X-211429Y-3319714D01*
X-82857Y-3291143D02*
X-68572Y-3305429D01*
X-82857Y-3319714D01*
X-97143Y-3305429D01*
X-82857Y-3291143D01*
X-82857Y-3319714D01*
X102857Y-3148286D02*
X74286Y-3134000D01*
X60000Y-3119714D01*
X45714Y-3091143D01*
X45714Y-3076857D01*
X60000Y-3048286D01*
X74286Y-3034000D01*
X102857Y-3019714D01*
X160000Y-3019714D01*
X188571Y-3034000D01*
X202857Y-3048286D01*
X217143Y-3076857D01*
X217143Y-3091143D01*
X202857Y-3119714D01*
X188571Y-3134000D01*
X160000Y-3148286D01*
X102857Y-3148286D01*
X74286Y-3162571D01*
X60000Y-3176857D01*
X45714Y-3205429D01*
X45714Y-3262571D01*
X60000Y-3291143D01*
X74286Y-3305429D01*
X102857Y-3319714D01*
X160000Y-3319714D01*
X188571Y-3305429D01*
X202857Y-3291143D01*
X217143Y-3262571D01*
X217143Y-3205429D01*
X202857Y-3176857D01*
X188571Y-3162571D01*
X160000Y-3148286D01*
X402857Y-3019714D02*
X431428Y-3019714D01*
X460000Y-3034000D01*
X474286Y-3048286D01*
X488571Y-3076857D01*
X502857Y-3134000D01*
X502857Y-3205429D01*
X488571Y-3262571D01*
X474286Y-3291143D01*
X460000Y-3305429D01*
X431428Y-3319714D01*
X402857Y-3319714D01*
X374286Y-3305429D01*
X360000Y-3291143D01*
X345714Y-3262571D01*
X331429Y-3205429D01*
X331429Y-3134000D01*
X345714Y-3076857D01*
X360000Y-3048286D01*
X374286Y-3034000D01*
X402857Y-3019714D01*
X631429Y-3319714D02*
X631429Y-3119714D01*
X631429Y-3148286D02*
X645714Y-3134000D01*
X674286Y-3119714D01*
X717143Y-3119714D01*
X745714Y-3134000D01*
X760000Y-3162571D01*
X760000Y-3319714D01*
X760000Y-3162571D02*
X774286Y-3134000D01*
X802857Y-3119714D01*
X845714Y-3119714D01*
X874286Y-3134000D01*
X888571Y-3162571D01*
X888571Y-3319714D01*
X1031428Y-3319714D02*
X1031428Y-3119714D01*
X1031428Y-3148286D02*
X1045714Y-3134000D01*
X1074286Y-3119714D01*
X1117143Y-3119714D01*
X1145714Y-3134000D01*
X1160000Y-3162571D01*
X1160000Y-3319714D01*
X1160000Y-3162571D02*
X1174286Y-3134000D01*
X1202857Y-3119714D01*
X1245714Y-3119714D01*
X1274286Y-3134000D01*
X1288571Y-3162571D01*
X1288571Y-3319714D01*
X1874286Y-3005429D02*
X1617143Y-3391143D01*
X2260000Y-3019714D02*
X2288571Y-3019714D01*
X2317143Y-3034000D01*
X2331428Y-3048286D01*
X2345714Y-3076857D01*
X2360000Y-3134000D01*
X2360000Y-3205429D01*
X2345714Y-3262571D01*
X2331428Y-3291143D01*
X2317143Y-3305429D01*
X2288571Y-3319714D01*
X2260000Y-3319714D01*
X2231428Y-3305429D01*
X2217143Y-3291143D01*
X2202857Y-3262571D01*
X2188571Y-3205429D01*
X2188571Y-3134000D01*
X2202857Y-3076857D01*
X2217143Y-3048286D01*
X2231428Y-3034000D01*
X2260000Y-3019714D01*
X2488571Y-3291143D02*
X2502857Y-3305429D01*
X2488571Y-3319714D01*
X2474286Y-3305429D01*
X2488571Y-3291143D01*
X2488571Y-3319714D01*
X2788571Y-3319714D02*
X2617143Y-3319714D01*
X2702857Y-3319714D02*
X2702857Y-3019714D01*
X2674286Y-3062571D01*
X2645714Y-3091143D01*
X2617143Y-3105429D01*
X3074285Y-3319714D02*
X2902857Y-3319714D01*
X2988571Y-3319714D02*
X2988571Y-3019714D01*
X2960000Y-3062571D01*
X2931428Y-3091143D01*
X2902857Y-3105429D01*
X3260000Y-3019714D02*
X3288571Y-3019714D01*
X3317143Y-3034000D01*
X3331428Y-3048286D01*
X3345714Y-3076857D01*
X3360000Y-3134000D01*
X3360000Y-3205429D01*
X3345714Y-3262571D01*
X3331428Y-3291143D01*
X3317143Y-3305429D01*
X3288571Y-3319714D01*
X3260000Y-3319714D01*
X3231428Y-3305429D01*
X3217143Y-3291143D01*
X3202857Y-3262571D01*
X3188571Y-3205429D01*
X3188571Y-3134000D01*
X3202857Y-3076857D01*
X3217143Y-3048286D01*
X3231428Y-3034000D01*
X3260000Y-3019714D01*
X3474286Y-3019714D02*
X3474286Y-3076857D01*
X3588571Y-3019714D02*
X3588571Y-3076857D01*
X4031428Y-3434000D02*
X4017143Y-3419714D01*
X3988571Y-3376857D01*
X3974285Y-3348286D01*
X3960000Y-3305429D01*
X3945714Y-3234000D01*
X3945714Y-3176857D01*
X3960000Y-3105429D01*
X3974285Y-3062571D01*
X3988571Y-3034000D01*
X4017143Y-2991143D01*
X4031428Y-2976857D01*
X4274286Y-3119714D02*
X4274286Y-3319714D01*
X4202857Y-3005429D02*
X4131428Y-3219714D01*
X4317143Y-3219714D01*
X4660000Y-3319714D02*
X4660000Y-3019714D01*
X4788571Y-3319714D02*
X4788571Y-3162571D01*
X4774286Y-3134000D01*
X4745714Y-3119714D01*
X4702857Y-3119714D01*
X4674286Y-3134000D01*
X4660000Y-3148286D01*
X4974286Y-3319714D02*
X4945714Y-3305429D01*
X4931428Y-3291143D01*
X4917143Y-3262571D01*
X4917143Y-3176857D01*
X4931428Y-3148286D01*
X4945714Y-3134000D01*
X4974286Y-3119714D01*
X5017143Y-3119714D01*
X5045714Y-3134000D01*
X5060000Y-3148286D01*
X5074286Y-3176857D01*
X5074286Y-3262571D01*
X5060000Y-3291143D01*
X5045714Y-3305429D01*
X5017143Y-3319714D01*
X4974286Y-3319714D01*
X5245714Y-3319714D02*
X5217143Y-3305429D01*
X5202857Y-3276857D01*
X5202857Y-3019714D01*
X5474286Y-3305429D02*
X5445714Y-3319714D01*
X5388571Y-3319714D01*
X5360000Y-3305429D01*
X5345714Y-3276857D01*
X5345714Y-3162571D01*
X5360000Y-3134000D01*
X5388571Y-3119714D01*
X5445714Y-3119714D01*
X5474286Y-3134000D01*
X5488571Y-3162571D01*
X5488571Y-3191143D01*
X5345714Y-3219714D01*
X5602857Y-3305429D02*
X5631428Y-3319714D01*
X5688571Y-3319714D01*
X5717143Y-3305429D01*
X5731428Y-3276857D01*
X5731428Y-3262571D01*
X5717143Y-3234000D01*
X5688571Y-3219714D01*
X5645714Y-3219714D01*
X5617143Y-3205429D01*
X5602857Y-3176857D01*
X5602857Y-3162571D01*
X5617143Y-3134000D01*
X5645714Y-3119714D01*
X5688571Y-3119714D01*
X5717143Y-3134000D01*
X5831428Y-3434000D02*
X5845714Y-3419714D01*
X5874286Y-3376857D01*
X5888571Y-3348286D01*
X5902857Y-3305429D01*
X5917143Y-3234000D01*
X5917143Y-3176857D01*
X5902857Y-3105429D01*
X5888571Y-3062571D01*
X5874286Y-3034000D01*
X5845714Y-2991143D01*
X5831428Y-2976857D01*
M02*
